{
    "asset" : {
        "generator" : "Khronos glTF Blender I/O v1.1.46",
        "version" : "2.0"
    },
    "scene" : 0,
    "scenes" : [
        {
            "name" : "Scene",
            "nodes" : [
                0,
                1,
                2,
                3,
                4,
                5
            ]
        }
    ],
    "nodes" : [
        {
            "mesh" : 0,
            "name" : "Head",
            "rotation" : [
                0,
                -0.7071067690849304,
                0,
                0.7071067690849304
            ]
        },
        {
            "mesh" : 1,
            "name" : "LeftEye",
            "rotation" : [
                0,
                -0.7115745544433594,
                0,
                0.7026105523109436
            ],
            "scale" : [
                0.1595965027809143,
                0.1595965027809143,
                0.1595965027809143
            ],
            "translation" : [
                -0.39849311113357544,
                0.3133368492126465,
                0.6794607639312744
            ]
        },
        {
            "mesh" : 2,
            "name" : "RightEye",
            "rotation" : [
                0,
                -0.7115745544433594,
                0,
                0.7026105523109436
            ],
            "scale" : [
                0.1595965027809143,
                0.1595965027809143,
                0.1595965027809143
            ],
            "translation" : [
                0.29473239183425903,
                0.30067676305770874,
                0.696142315864563
            ]
        },
        {
            "mesh" : 3,
            "name" : "Mouth",
            "rotation" : [
                0,
                -0.7115745544433594,
                0,
                0.7026105523109436
            ],
            "scale" : [
                0.09804917126893997,
                0.04165370762348175,
                0.2646028697490692
            ],
            "translation" : [
                -0.05094856023788452,
                -0.3875238597393036,
                0.7237939834594727
            ]
        },
        {
            "mesh" : 4,
            "name" : "LeftPupil",
            "rotation" : [
                0,
                -0.7115745544433594,
                0,
                0.7026105523109436
            ],
            "scale" : [
                0.05386950075626373,
                0.05386950075626373,
                0.05386950075626373
            ],
            "translation" : [
                -0.39997416734695435,
                0.3133368492126465,
                0.7962812185287476
            ]
        },
        {
            "mesh" : 5,
            "name" : "RightPupil",
            "rotation" : [
                0,
                -0.7115745544433594,
                0,
                0.7026105523109436
            ],
            "scale" : [
                0.05386950075626373,
                0.05386950075626373,
                0.05386950075626373
            ],
            "translation" : [
                0.30809855461120605,
                0.3133368492126465,
                0.8052579760551453
            ]
        }
    ],
    "materials" : [
        {
            "doubleSided" : true,
            "emissiveFactor" : [
                0,
                0,
                0
            ],
            "name" : "Black",
            "pbrMetallicRoughness" : {
                "baseColorFactor" : [
                    0,
                    0,
                    0,
                    1
                ],
                "metallicFactor" : 0,
                "roughnessFactor" : 0.7577981948852539
            }
        },
        {
            "doubleSided" : true,
            "emissiveFactor" : [
                0,
                0,
                0
            ],
            "name" : "White",
            "pbrMetallicRoughness" : {
                "baseColorFactor" : [
                    0.800000011920929,
                    0.800000011920929,
                    0.800000011920929,
                    1
                ],
                "metallicFactor" : 0,
                "roughnessFactor" : 0.5
            }
        }
    ],
    "meshes" : [
        {
            "name" : "Cube",
            "primitives" : [
                {
                    "attributes" : {
                        "POSITION" : 0,
                        "NORMAL" : 1,
                        "TEXCOORD_0" : 2
                    },
                    "indices" : 3,
                    "material" : 0
                }
            ]
        },
        {
            "name" : "Cube.001",
            "primitives" : [
                {
                    "attributes" : {
                        "POSITION" : 4,
                        "NORMAL" : 5,
                        "TEXCOORD_0" : 6
                    },
                    "indices" : 7,
                    "material" : 1
                }
            ]
        },
        {
            "name" : "Cube.002",
            "primitives" : [
                {
                    "attributes" : {
                        "POSITION" : 8,
                        "NORMAL" : 9,
                        "TEXCOORD_0" : 10
                    },
                    "indices" : 7,
                    "material" : 1
                }
            ]
        },
        {
            "name" : "Cube.003",
            "primitives" : [
                {
                    "attributes" : {
                        "POSITION" : 11,
                        "NORMAL" : 12,
                        "TEXCOORD_0" : 13
                    },
                    "indices" : 14,
                    "material" : 1
                }
            ]
        },
        {
            "name" : "Cube.004",
            "primitives" : [
                {
                    "attributes" : {
                        "POSITION" : 15,
                        "NORMAL" : 16,
                        "TEXCOORD_0" : 17
                    },
                    "indices" : 7,
                    "material" : 0
                }
            ]
        },
        {
            "name" : "Cube.005",
            "primitives" : [
                {
                    "attributes" : {
                        "POSITION" : 18,
                        "NORMAL" : 19,
                        "TEXCOORD_0" : 20
                    },
                    "indices" : 7,
                    "material" : 0
                }
            ]
        }
    ],
    "accessors" : [
        {
            "bufferView" : 0,
            "componentType" : 5126,
            "count" : 125,
            "max" : [
                0.8395062685012817,
                0.8395062685012817,
                0.8395062685012817
            ],
            "min" : [
                -0.8395062685012817,
                -0.8395062685012817,
                -0.8395062685012817
            ],
            "type" : "VEC3"
        },
        {
            "bufferView" : 1,
            "componentType" : 5126,
            "count" : 125,
            "type" : "VEC3"
        },
        {
            "bufferView" : 2,
            "componentType" : 5126,
            "count" : 125,
            "type" : "VEC2"
        },
        {
            "bufferView" : 3,
            "componentType" : 5123,
            "count" : 576,
            "type" : "SCALAR"
        },
        {
            "bufferView" : 4,
            "componentType" : 5126,
            "count" : 125,
            "max" : [
                0.8395062685012817,
                0.8395062685012817,
                0.8395062685012817
            ],
            "min" : [
                -0.8395062685012817,
                -0.8395062685012817,
                -0.8395062685012817
            ],
            "type" : "VEC3"
        },
        {
            "bufferView" : 5,
            "componentType" : 5126,
            "count" : 125,
            "type" : "VEC3"
        },
        {
            "bufferView" : 6,
            "componentType" : 5126,
            "count" : 125,
            "type" : "VEC2"
        },
        {
            "bufferView" : 7,
            "componentType" : 5123,
            "count" : 576,
            "type" : "SCALAR"
        },
        {
            "bufferView" : 8,
            "componentType" : 5126,
            "count" : 125,
            "max" : [
                0.8395062685012817,
                0.8395062685012817,
                0.8395062685012817
            ],
            "min" : [
                -0.8395062685012817,
                -0.8395062685012817,
                -0.8395062685012817
            ],
            "type" : "VEC3"
        },
        {
            "bufferView" : 9,
            "componentType" : 5126,
            "count" : 125,
            "type" : "VEC3"
        },
        {
            "bufferView" : 10,
            "componentType" : 5126,
            "count" : 125,
            "type" : "VEC2"
        },
        {
            "bufferView" : 11,
            "componentType" : 5126,
            "count" : 62,
            "max" : [
                1.3208492994308472,
                1.8387227058410645,
                0.9997223615646362
            ],
            "min" : [
                -1.2121729850769043,
                -1.292293667793274,
                -1.0002776384353638
            ],
            "type" : "VEC3"
        },
        {
            "bufferView" : 12,
            "componentType" : 5126,
            "count" : 62,
            "type" : "VEC3"
        },
        {
            "bufferView" : 13,
            "componentType" : 5126,
            "count" : 62,
            "type" : "VEC2"
        },
        {
            "bufferView" : 14,
            "componentType" : 5123,
            "count" : 240,
            "type" : "SCALAR"
        },
        {
            "bufferView" : 15,
            "componentType" : 5126,
            "count" : 125,
            "max" : [
                0.8395062685012817,
                0.8395062685012817,
                0.8395062685012817
            ],
            "min" : [
                -0.8395062685012817,
                -0.8395062685012817,
                -0.8395062685012817
            ],
            "type" : "VEC3"
        },
        {
            "bufferView" : 16,
            "componentType" : 5126,
            "count" : 125,
            "type" : "VEC3"
        },
        {
            "bufferView" : 17,
            "componentType" : 5126,
            "count" : 125,
            "type" : "VEC2"
        },
        {
            "bufferView" : 18,
            "componentType" : 5126,
            "count" : 125,
            "max" : [
                0.8395062685012817,
                0.8395062685012817,
                0.8395062685012817
            ],
            "min" : [
                -0.8395062685012817,
                -0.8395062685012817,
                -0.8395062685012817
            ],
            "type" : "VEC3"
        },
        {
            "bufferView" : 19,
            "componentType" : 5126,
            "count" : 125,
            "type" : "VEC3"
        },
        {
            "bufferView" : 20,
            "componentType" : 5126,
            "count" : 125,
            "type" : "VEC2"
        }
    ],
    "bufferViews" : [
        {
            "buffer" : 0,
            "byteLength" : 1500,
            "byteOffset" : 0
        },
        {
            "buffer" : 0,
            "byteLength" : 1500,
            "byteOffset" : 1500
        },
        {
            "buffer" : 0,
            "byteLength" : 1000,
            "byteOffset" : 3000
        },
        {
            "buffer" : 0,
            "byteLength" : 1152,
            "byteOffset" : 4000
        },
        {
            "buffer" : 0,
            "byteLength" : 1500,
            "byteOffset" : 5152
        },
        {
            "buffer" : 0,
            "byteLength" : 1500,
            "byteOffset" : 6652
        },
        {
            "buffer" : 0,
            "byteLength" : 1000,
            "byteOffset" : 8152
        },
        {
            "buffer" : 0,
            "byteLength" : 1152,
            "byteOffset" : 9152
        },
        {
            "buffer" : 0,
            "byteLength" : 1500,
            "byteOffset" : 10304
        },
        {
            "buffer" : 0,
            "byteLength" : 1500,
            "byteOffset" : 11804
        },
        {
            "buffer" : 0,
            "byteLength" : 1000,
            "byteOffset" : 13304
        },
        {
            "buffer" : 0,
            "byteLength" : 744,
            "byteOffset" : 14304
        },
        {
            "buffer" : 0,
            "byteLength" : 744,
            "byteOffset" : 15048
        },
        {
            "buffer" : 0,
            "byteLength" : 496,
            "byteOffset" : 15792
        },
        {
            "buffer" : 0,
            "byteLength" : 480,
            "byteOffset" : 16288
        },
        {
            "buffer" : 0,
            "byteLength" : 1500,
            "byteOffset" : 16768
        },
        {
            "buffer" : 0,
            "byteLength" : 1500,
            "byteOffset" : 18268
        },
        {
            "buffer" : 0,
            "byteLength" : 1000,
            "byteOffset" : 19768
        },
        {
            "buffer" : 0,
            "byteLength" : 1500,
            "byteOffset" : 20768
        },
        {
            "buffer" : 0,
            "byteLength" : 1500,
            "byteOffset" : 22268
        },
        {
            "buffer" : 0,
            "byteLength" : 1000,
            "byteOffset" : 23768
        }
    ],
    "buffers" : [
        {
            "byteLength" : 24768,
            "uri" : "Head3D.bin"
        }
    ]
}
