<?xml version="1.0" standalone="no"?>
<!DOCTYPE svg PUBLIC "-//W3C//DTD SVG 1.1//EN" "http://www.w3.org/Graphics/SVG/1.1/DTD/svg11.dtd" >
<svg xmlns="http://www.w3.org/2000/svg" xmlns:xlink="http://www.w3.org/1999/xlink" version="1.1">
<metadata>
Created by FontForge 20170924 at Tue Sep 12 15:49:39 2017
 By www-data
Copyright \(c\) 2017 by Good Type Foundry Kenneth Knutsen. All rights reserved.
</metadata>
<defs>
<font id="Adieu-Regular" horiz-adv-x="0" >
  <font-face 
    font-family="Adieu"
    font-weight="400"
    font-stretch="normal"
    units-per-em="1000"
    panose-1="0 0 5 0 0 0 0 0 0 0"
    ascent="800"
    descent="-200"
    x-height="500"
    cap-height="700"
    bbox="-1050 -532 1696 1021"
    underline-thickness="50"
    underline-position="-100"
    stemh="112"
    stemv="142"
    unicode-range="U+0020-25CA"
  />
<missing-glyph horiz-adv-x="843" 
d="M422 -11c-203 0 -362 167 -362 362s163 361 362 361c195 0 361 -162 361 -361c0 -202 -167 -362 -361 -362zM422 63c159 0 287 128 287 288s-128 287 -287 287c-160 0 -288 -127 -288 -287s128 -288 288 -288zM329 394c-37 0 -66 28 -66 64c0 35 29 63 66 63
c35 0 64 -28 64 -63c0 -36 -29 -64 -64 -64zM521 394c-36 0 -63 28 -63 64c0 35 27 63 63 63s65 -28 65 -63c0 -36 -29 -64 -65 -64zM422 151c-122 0 -218 73 -218 188l64 9c4 -51 39 -114 154 -114c113 0 152 63 154 114l63 -9c0 -116 -99 -188 -217 -188z" />
    <glyph glyph-name=".notdef" horiz-adv-x="843" 
d="M422 -11c-203 0 -362 167 -362 362s163 361 362 361c195 0 361 -162 361 -361c0 -202 -167 -362 -361 -362zM422 63c159 0 287 128 287 288s-128 287 -287 287c-160 0 -288 -127 -288 -287s128 -288 288 -288zM329 394c-37 0 -66 28 -66 64c0 35 29 63 66 63
c35 0 64 -28 64 -63c0 -36 -29 -64 -64 -64zM521 394c-36 0 -63 28 -63 64c0 35 27 63 63 63s65 -28 65 -63c0 -36 -29 -64 -65 -64zM422 151c-122 0 -218 73 -218 188l64 9c4 -51 39 -114 154 -114c113 0 152 63 154 114l63 -9c0 -116 -99 -188 -217 -188z" />
    <glyph glyph-name="A" unicode="A" horiz-adv-x="1090" 
d="M33 0l426 700h172l427 -700h-164l-87 148h-524l-86 -148h-164zM352 268h386l-192 333z" />
    <glyph glyph-name="Aacute" unicode="&#xc1;" horiz-adv-x="1090" 
d="M522 744v80l287 186v-102zM33 0l426 700h172l427 -700h-164l-87 148h-524l-86 -148h-164zM352 268h386l-192 333z" />
    <glyph glyph-name="Abreve" unicode="&#x102;" horiz-adv-x="1090" 
d="M546 751c-122 0 -212 59 -213 149h105c2 -55 46 -81 108 -81c64 0 106 26 110 81h103c-1 -90 -77 -149 -213 -149zM33 0l426 700h172l427 -700h-164l-87 148h-524l-86 -148h-164zM352 268h386l-192 333z" />
    <glyph glyph-name="Acircumflex" unicode="&#xc2;" horiz-adv-x="1090" 
d="M833 755l-287 164l-287 -164v80l287 186l287 -186v-80zM631 700l427 -700h-164l-87 148h-524l-86 -148h-164l426 700h172zM352 268h386l-192 333z" />
    <glyph glyph-name="Adieresis" unicode="&#xc4;" horiz-adv-x="1090" 
d="M405 738c-58 0 -99 34 -99 85s41 85 99 85c64 0 99 -34 99 -85s-35 -85 -99 -85zM695 738c-58 0 -99 34 -99 85s41 85 99 85c64 0 99 -34 99 -85s-35 -85 -99 -85zM33 0l426 700h172l427 -700h-164l-87 148h-524l-86 -148h-164zM352 268h386l-192 333z" />
    <glyph glyph-name="Agrave" unicode="&#xc0;" horiz-adv-x="1090" 
d="M552 744l-287 164v102l287 -186v-80zM33 0l426 700h172l427 -700h-164l-87 148h-524l-86 -148h-164zM352 268h386l-192 333z" />
    <glyph glyph-name="Amacron" unicode="&#x100;" horiz-adv-x="1090" 
d="M280 846v54h532v-54h-532zM33 0l426 700h172l427 -700h-164l-87 148h-524l-86 -148h-164zM352 268h386l-192 333z" />
    <glyph glyph-name="Aogonek" unicode="&#x104;" horiz-adv-x="1090" 
d="M1034 -145c27 0 55 3 84 9l-3 -78c-36 -11 -74 -16 -110 -16c-114 0 -212 52 -212 134c0 36 19 80 67 127l10 10l-63 107h-524l-86 -148h-164l426 700h172l427 -700h-140c-22 -23 -31 -44 -31 -63c0 -49 62 -82 147 -82zM352 268h386l-192 333z" />
    <glyph glyph-name="Aring" unicode="&#xc5;" horiz-adv-x="1090" 
d="M546 738c-136 0 -253 41 -253 103s117 103 253 103c150 0 253 -41 253 -103s-103 -103 -253 -103zM546 789c51 0 91 18 91 51c0 36 -37 53 -91 53c-51 0 -89 -17 -89 -52s38 -52 89 -52zM33 0l426 700h172l427 -700h-164l-87 148h-524l-86 -148h-164zM352 268h386
l-192 333z" />
    <glyph glyph-name="Atilde" unicode="&#xc3;" horiz-adv-x="1090" 
d="M631 772c-72 0 -94 72 -135 72c-36 0 -61 -23 -62 -71h-61c1 78 52 130 123 130c64 0 86 -72 135 -72c37 0 62 22 63 71h60c-1 -79 -52 -130 -123 -130zM33 0l426 700h172l427 -700h-164l-87 148h-524l-86 -148h-164zM352 268h386l-192 333z" />
    <glyph glyph-name="AE" unicode="&#xc6;" horiz-adv-x="1433" 
d="M1355 588h-503v-181h494v-103h-494v-192h503v-112h-645v148h-374l-119 -148h-184l594 700h728v-112zM426 260h284v353z" />
    <glyph glyph-name="B" unicode="B" horiz-adv-x="926" 
d="M88 0v700h520c145 0 225 -78 225 -185c0 -103 -76 -152 -194 -159c131 -3 217 -61 217 -170c0 -112 -90 -186 -226 -186h-542zM230 405h343c75 0 118 25 118 86c0 63 -43 90 -118 90h-344zM231 121h364c75 0 118 28 118 94c0 63 -43 91 -118 91h-365z" />
    <glyph glyph-name="C" unicode="C" horiz-adv-x="932" 
d="M466 -16c-253 0 -422 146 -422 366s169 366 422 366s422 -128 422 -321h-144c-7 128 -118 202 -278 202c-168 0 -280 -92 -280 -247s112 -246 280 -246c161 0 272 73 278 201h144c0 -193 -169 -321 -422 -321z" />
    <glyph glyph-name="Cacute" unicode="&#x106;" horiz-adv-x="932" 
d="M442 744v80l287 186v-102zM466 -16c-253 0 -422 146 -422 366s169 366 422 366s422 -128 422 -321h-144c-7 128 -118 202 -278 202c-168 0 -280 -92 -280 -247s112 -246 280 -246c161 0 272 73 278 201h144c0 -193 -169 -321 -422 -321z" />
    <glyph glyph-name="Ccaron" unicode="&#x10c;" horiz-adv-x="932" 
d="M753 941l-287 -186l-287 186v80l287 -164l287 164v-80zM466 104c161 0 272 73 278 201h144c0 -193 -169 -321 -422 -321s-422 146 -422 366s169 366 422 366s422 -128 422 -321h-144c-7 128 -118 202 -278 202c-168 0 -280 -92 -280 -247s112 -246 280 -246z" />
    <glyph glyph-name="Ccedilla" unicode="&#xc7;" horiz-adv-x="932" 
d="M466 104c161 0 272 73 278 201h144c0 -184 -154 -309 -389 -320l-27 -54c192 -11 314 -48 314 -108c0 -62 -170 -109 -426 -110v55c205 1 277 23 277 55c0 34 -72 55 -277 58v53l31 54c-211 27 -347 164 -347 362c0 220 169 366 422 366s422 -128 422 -321h-144
c-7 128 -118 202 -278 202c-168 0 -280 -92 -280 -247s112 -246 280 -246z" />
    <glyph glyph-name="Cdotaccent" unicode="&#x10a;" horiz-adv-x="932" 
d="M469 738c-58 0 -99 34 -99 85s41 85 99 85c64 0 99 -34 99 -85s-35 -85 -99 -85zM466 -16c-253 0 -422 146 -422 366s169 366 422 366s422 -128 422 -321h-144c-7 128 -118 202 -278 202c-168 0 -280 -92 -280 -247s112 -246 280 -246c161 0 272 73 278 201h144
c0 -193 -169 -321 -422 -321z" />
    <glyph glyph-name="D" unicode="D" horiz-adv-x="869" 
d="M88 0v700h329c253 0 408 -121 408 -350c0 -232 -156 -350 -408 -350h-329zM230 120h187c169 0 274 83 274 230c0 148 -106 231 -274 231h-187v-461z" />
    <glyph glyph-name="Eth" unicode="&#xd0;" horiz-adv-x="869" 
d="M417 700c253 0 408 -121 408 -350c0 -232 -156 -350 -408 -350h-329v294h-68v113h68v293h329zM417 120c169 0 274 83 274 230c0 148 -106 231 -274 231h-187v-174h290v-113h-290v-174h187z" />
    <glyph glyph-name="Dcaron" unicode="&#x10e;" horiz-adv-x="869" 
d="M743 941l-287 -186l-287 186v80l287 -164l287 164v-80zM417 700c253 0 408 -121 408 -350c0 -232 -156 -350 -408 -350h-329v700h329zM417 120c169 0 274 83 274 230c0 148 -106 231 -274 231h-187v-461h187z" />
    <glyph glyph-name="Dcroat" unicode="&#x110;" horiz-adv-x="869" 
d="M417 700c253 0 408 -121 408 -350c0 -232 -156 -350 -408 -350h-329v294h-68v113h68v293h329zM417 120c169 0 274 83 274 230c0 148 -106 231 -274 231h-187v-174h290v-113h-290v-174h187z" />
    <glyph glyph-name="E" unicode="E" horiz-adv-x="825" 
d="M88 0v700h660v-119h-518v-170h509v-111h-509v-180h518v-120h-660z" />
    <glyph glyph-name="Eacute" unicode="&#xc9;" horiz-adv-x="825" 
d="M397 744v80l287 186v-102zM88 0v700h660v-119h-518v-170h509v-111h-509v-180h518v-120h-660z" />
    <glyph glyph-name="Ecaron" unicode="&#x11a;" horiz-adv-x="825" 
d="M708 941l-287 -186l-287 186v80l287 -164l287 164v-80zM748 581h-518v-170h509v-111h-509v-180h518v-120h-660v700h660v-119z" />
    <glyph glyph-name="Ecircumflex" unicode="&#xca;" horiz-adv-x="825" 
d="M708 755l-287 164l-287 -164v80l287 186l287 -186v-80zM748 581h-518v-170h509v-111h-509v-180h518v-120h-660v700h660v-119z" />
    <glyph glyph-name="Edieresis" unicode="&#xcb;" horiz-adv-x="825" 
d="M280 738c-58 0 -99 34 -99 85s41 85 99 85c64 0 99 -34 99 -85s-35 -85 -99 -85zM570 738c-58 0 -99 34 -99 85s41 85 99 85c64 0 99 -34 99 -85s-35 -85 -99 -85zM88 0v700h660v-119h-518v-170h509v-111h-509v-180h518v-120h-660z" />
    <glyph glyph-name="Edotaccent" unicode="&#x116;" horiz-adv-x="825" 
d="M421 738c-58 0 -99 34 -99 85s41 85 99 85c64 0 99 -34 99 -85s-35 -85 -99 -85zM88 0v700h660v-119h-518v-170h509v-111h-509v-180h518v-120h-660z" />
    <glyph glyph-name="Egrave" unicode="&#xc8;" horiz-adv-x="825" 
d="M427 744l-287 164v102l287 -186v-80zM88 0v700h660v-119h-518v-170h509v-111h-509v-180h518v-120h-660z" />
    <glyph glyph-name="Emacron" unicode="&#x112;" horiz-adv-x="825" 
d="M155 846v54h532v-54h-532zM88 0v700h660v-119h-518v-170h509v-111h-509v-180h518v-120h-660z" />
    <glyph glyph-name="Eogonek" unicode="&#x118;" horiz-adv-x="825" 
d="M748 581h-518v-170h509v-111h-509v-180h518v-120h-307c-22 -23 -31 -44 -31 -63c0 -49 62 -82 147 -82c27 0 55 3 84 9l-3 -78c-36 -11 -74 -16 -110 -16c-114 0 -212 52 -212 134c0 28 11 61 39 96h-267v700h660v-119z" />
    <glyph glyph-name="F" unicode="F" horiz-adv-x="773" 
d="M88 0v700h637v-119h-495v-170h486v-111h-486v-300h-142z" />
    <glyph glyph-name="G" unicode="G" horiz-adv-x="965" 
d="M476 -16c-253 0 -422 146 -422 366s169 366 422 366c240 0 406 -109 413 -272h-143c-8 99 -108 153 -270 153c-168 0 -280 -92 -280 -247s112 -246 280 -246c149 0 258 58 276 166h-381v104h529v-374h-108l-1 132c-63 -102 -185 -148 -315 -148z" />
    <glyph glyph-name="Gbreve" unicode="&#x11e;" horiz-adv-x="965" 
d="M476 751c-122 0 -212 59 -213 149h105c2 -55 46 -81 108 -81c64 0 106 26 110 81h103c-1 -90 -77 -149 -213 -149zM476 -16c-253 0 -422 146 -422 366s169 366 422 366c240 0 406 -109 413 -272h-143c-8 99 -108 153 -270 153c-168 0 -280 -92 -280 -247
s112 -246 280 -246c149 0 258 58 276 166h-381v104h529v-374h-108l-1 132c-63 -102 -185 -148 -315 -148z" />
    <glyph glyph-name="Gcommaaccent" unicode="&#x122;" horiz-adv-x="965" 
d="M476 -16c-253 0 -422 146 -422 366s169 366 422 366c240 0 406 -109 413 -272h-143c-8 99 -108 153 -270 153c-168 0 -280 -92 -280 -247s112 -246 280 -246c149 0 258 58 276 166h-381v104h529v-374h-108l-1 132c-63 -102 -185 -148 -315 -148zM376 -350l63 270h125
l-113 -270h-75z" />
    <glyph glyph-name="Gdotaccent" unicode="&#x120;" horiz-adv-x="965" 
d="M476 738c-58 0 -99 34 -99 85s41 85 99 85c64 0 99 -34 99 -85s-35 -85 -99 -85zM476 -16c-253 0 -422 146 -422 366s169 366 422 366c240 0 406 -109 413 -272h-143c-8 99 -108 153 -270 153c-168 0 -280 -92 -280 -247s112 -246 280 -246c149 0 258 58 276 166h-381
v104h529v-374h-108l-1 132c-63 -102 -185 -148 -315 -148z" />
    <glyph glyph-name="H" unicode="H" horiz-adv-x="930" 
d="M88 0v700h142v-278h471v278h142v-700h-142v302h-471v-302h-142z" />
    <glyph glyph-name="Hbar" unicode="&#x126;" horiz-adv-x="930" 
d="M895 642v-103h-52v-539h-142v302h-471v-302h-142v539h-53v103h53v58h142v-58h471v58h142v-58h52zM701 422v117h-471v-117h471z" />
    <glyph glyph-name="I" unicode="I" horiz-adv-x="317" 
d="M88 0v700h142v-700h-142z" />
    <glyph glyph-name="Iacute" unicode="&#xcd;" horiz-adv-x="317" 
d="M135 744v80l287 186v-102zM88 0v700h142v-700h-142z" />
    <glyph glyph-name="Icircumflex" unicode="&#xce;" horiz-adv-x="317" 
d="M159 1021l287 -186v-80l-287 164l-287 -164v80zM88 0v700h142v-700h-142z" />
    <glyph glyph-name="Idieresis" unicode="&#xcf;" horiz-adv-x="317" 
d="M18 738c-58 0 -99 34 -99 85s41 85 99 85c64 0 99 -34 99 -85s-35 -85 -99 -85zM308 738c-58 0 -99 34 -99 85s41 85 99 85c64 0 99 -34 99 -85s-35 -85 -99 -85zM88 0v700h142v-700h-142z" />
    <glyph glyph-name="Idotaccent" unicode="&#x130;" horiz-adv-x="317" 
d="M161 738c-58 0 -99 34 -99 85s41 85 99 85c64 0 99 -34 99 -85s-35 -85 -99 -85zM88 0v700h142v-700h-142z" />
    <glyph glyph-name="Igrave" unicode="&#xcc;" horiz-adv-x="317" 
d="M165 744l-287 164v102l287 -186v-80zM88 0v700h142v-700h-142z" />
    <glyph glyph-name="Imacron" unicode="&#x12a;" horiz-adv-x="317" 
d="M-107 846v54h532v-54h-532zM88 0v700h142v-700h-142z" />
    <glyph glyph-name="Iogonek" unicode="&#x12e;" horiz-adv-x="317" 
d="M281 -145c27 0 55 3 84 9l-3 -78c-36 -11 -74 -16 -110 -16c-114 0 -212 52 -212 134c0 31 14 67 48 107v689h142v-700h-65c-22 -23 -31 -44 -31 -63c0 -49 62 -82 147 -82z" />
    <glyph glyph-name="J" unicode="J" horiz-adv-x="830" 
d="M401 -16c-206 0 -343 95 -343 355h143c0 -172 63 -235 200 -235c136 0 200 63 200 235v242h-450v119h592v-361c0 -260 -137 -355 -342 -355z" />
    <glyph glyph-name="K" unicode="K" horiz-adv-x="957" 
d="M88 0v700h142v-394l448 394h202l-287 -244l312 -456h-184l-239 362l-252 -214v-148h-142z" />
    <glyph glyph-name="Kcommaaccent" unicode="&#x136;" horiz-adv-x="957" 
d="M88 0v700h142v-394l448 394h202l-287 -244l312 -456h-184l-239 362l-252 -214v-148h-142zM326 -350l63 270h125l-113 -270h-75z" />
    <glyph glyph-name="L" unicode="L" horiz-adv-x="755" 
d="M88 0v700h142v-580h488v-120h-630z" />
    <glyph glyph-name="Lacute" unicode="&#x139;" horiz-adv-x="755" 
d="M125 744v80l287 186v-102zM88 0v700h142v-580h488v-120h-630z" />
    <glyph glyph-name="Lcaron" unicode="&#x13d;" horiz-adv-x="755" 
d="M88 0v700h142v-580h488v-120h-630zM338 429l63 270h125l-113 -270h-75z" />
    <glyph glyph-name="Lcommaaccent" unicode="&#x13b;" horiz-adv-x="755" 
d="M88 0v700h142v-580h488v-120h-630zM271 -350l63 270h125l-113 -270h-75z" />
    <glyph glyph-name="Lslash" unicode="&#x141;" horiz-adv-x="755" 
d="M230 120h488v-120h-630v294l-60 -35l-53 93l113 65v283h142v-202l210 121l54 -92l-264 -152v-255z" />
    <glyph glyph-name="M" unicode="M" horiz-adv-x="1057" 
d="M88 0v700h146l295 -492l295 492h146v-700h-142v474l-286 -474h-27l-285 471v-471h-142z" />
    <glyph glyph-name="N" unicode="N" horiz-adv-x="971" 
d="M88 0v700h129l524 -504v504h142v-700h-130l-523 504v-504h-142z" />
    <glyph glyph-name="Nacute" unicode="&#x143;" horiz-adv-x="971" 
d="M465 744v80l287 186v-102zM88 0v700h129l524 -504v504h142v-700h-130l-523 504v-504h-142z" />
    <glyph glyph-name="Ncaron" unicode="&#x147;" horiz-adv-x="971" 
d="M776 941l-287 -186l-287 186v80l287 -164l287 164v-80zM741 700h142v-700h-130l-523 504v-504h-142v700h129l524 -504v504z" />
    <glyph glyph-name="Ncommaaccent" unicode="&#x145;" horiz-adv-x="971" 
d="M88 0v700h129l524 -504v504h142v-700h-130l-523 504v-504h-142zM368 -350l63 270h125l-113 -270h-75z" />
    <glyph glyph-name="Eng" unicode="&#x14a;" horiz-adv-x="971" 
d="M741 700h142v-700c0 -160 -86 -200 -428 -200v89c204 0 317 28 317 75c0 11 -6 23 -19 36l-523 504v-504h-142v700h129l524 -504v504z" />
    <glyph glyph-name="Ntilde" unicode="&#xd1;" horiz-adv-x="971" 
d="M574 772c-72 0 -94 72 -135 72c-36 0 -61 -23 -62 -71h-61c1 78 52 130 123 130c64 0 86 -72 135 -72c37 0 62 22 63 71h60c-1 -79 -52 -130 -123 -130zM88 0v700h129l524 -504v504h142v-700h-130l-523 504v-504h-142z" />
    <glyph glyph-name="O" unicode="O" horiz-adv-x="973" 
d="M486 -16c-273 0 -442 146 -442 366s169 366 442 366c274 0 443 -146 443 -366s-169 -366 -443 -366zM486 104c183 0 301 91 301 246s-118 247 -301 247c-182 0 -300 -92 -300 -247s118 -246 300 -246z" />
    <glyph glyph-name="Oacute" unicode="&#xd3;" horiz-adv-x="973" 
d="M463 744v80l287 186v-102zM486 -16c-273 0 -442 146 -442 366s169 366 442 366c274 0 443 -146 443 -366s-169 -366 -443 -366zM486 104c183 0 301 91 301 246s-118 247 -301 247c-182 0 -300 -92 -300 -247s118 -246 300 -246z" />
    <glyph glyph-name="Ocircumflex" unicode="&#xd4;" horiz-adv-x="973" 
d="M774 755l-287 164l-287 -164v80l287 186l287 -186v-80zM486 716c274 0 443 -146 443 -366s-169 -366 -443 -366c-273 0 -442 146 -442 366s169 366 442 366zM486 104c183 0 301 91 301 246s-118 247 -301 247c-182 0 -300 -92 -300 -247s118 -246 300 -246z" />
    <glyph glyph-name="Odieresis" unicode="&#xd6;" horiz-adv-x="973" 
d="M346 738c-58 0 -99 34 -99 85s41 85 99 85c64 0 99 -34 99 -85s-35 -85 -99 -85zM636 738c-58 0 -99 34 -99 85s41 85 99 85c64 0 99 -34 99 -85s-35 -85 -99 -85zM486 -16c-273 0 -442 146 -442 366s169 366 442 366c274 0 443 -146 443 -366s-169 -366 -443 -366z
M486 104c183 0 301 91 301 246s-118 247 -301 247c-182 0 -300 -92 -300 -247s118 -246 300 -246z" />
    <glyph glyph-name="Ograve" unicode="&#xd2;" horiz-adv-x="973" 
d="M493 744l-287 164v102l287 -186v-80zM486 -16c-273 0 -442 146 -442 366s169 366 442 366c274 0 443 -146 443 -366s-169 -366 -443 -366zM486 104c183 0 301 91 301 246s-118 247 -301 247c-182 0 -300 -92 -300 -247s118 -246 300 -246z" />
    <glyph glyph-name="Ohungarumlaut" unicode="&#x150;" horiz-adv-x="973" 
d="M351 744v80l287 186v-102zM601 744v80l287 186v-102zM486 -16c-273 0 -442 146 -442 366s169 366 442 366c274 0 443 -146 443 -366s-169 -366 -443 -366zM486 104c183 0 301 91 301 246s-118 247 -301 247c-182 0 -300 -92 -300 -247s118 -246 300 -246z" />
    <glyph glyph-name="Omacron" unicode="&#x14c;" horiz-adv-x="973" 
d="M221 846v54h532v-54h-532zM486 -16c-273 0 -442 146 -442 366s169 366 442 366c274 0 443 -146 443 -366s-169 -366 -443 -366zM486 104c183 0 301 91 301 246s-118 247 -301 247c-182 0 -300 -92 -300 -247s118 -246 300 -246z" />
    <glyph glyph-name="Oslash" unicode="&#xd8;" horiz-adv-x="980" 
d="M975 700l-134 -113c57 -62 88 -142 88 -237c0 -220 -169 -366 -443 -366c-112 0 -207 25 -280 69l-63 -53h-141l132 111c-58 62 -90 144 -90 239c0 220 169 366 442 366c114 0 210 -25 283 -71l65 55h141zM186 350c0 -61 18 -112 52 -152l427 360c-48 25 -109 39 -179 39
c-182 0 -300 -92 -300 -247zM787 350c0 60 -18 110 -50 150l-426 -359c47 -24 107 -37 175 -37c183 0 301 91 301 246z" />
    <glyph glyph-name="Otilde" unicode="&#xd5;" horiz-adv-x="973" 
d="M572 772c-72 0 -94 72 -135 72c-36 0 -61 -23 -62 -71h-61c1 78 52 130 123 130c64 0 86 -72 135 -72c37 0 62 22 63 71h60c-1 -79 -52 -130 -123 -130zM486 -16c-273 0 -442 146 -442 366s169 366 442 366c274 0 443 -146 443 -366s-169 -366 -443 -366zM486 104
c183 0 301 91 301 246s-118 247 -301 247c-182 0 -300 -92 -300 -247s118 -246 300 -246z" />
    <glyph glyph-name="OE" unicode="&#x152;" horiz-adv-x="1541" 
d="M1464 581h-518v-170h509v-111h-509v-180h518v-120h-660v79c-76 -60 -185 -95 -318 -95c-273 0 -442 146 -442 366s169 366 442 366c133 0 242 -35 318 -95v79h660v-119zM486 104c183 0 301 91 301 246s-118 247 -301 247c-182 0 -300 -92 -300 -247s118 -246 300 -246z
" />
    <glyph glyph-name="P" unicode="P" horiz-adv-x="878" 
d="M88 0v700h500c145 0 235 -97 235 -214c0 -142 -100 -213 -235 -213h-358v-273h-142zM229 390h334c82 0 118 28 118 96s-36 97 -118 97h-334v-193z" />
    <glyph glyph-name="Thorn" unicode="&#xde;" horiz-adv-x="815" 
d="M560 500c145 0 235 -97 235 -214c0 -142 -100 -213 -235 -213h-339v-73h-146v700h145v-200h340zM535 183c72 0 118 42 118 103s-46 105 -118 105h-315l1 -208h314z" />
    <glyph glyph-name="Q" unicode="Q" horiz-adv-x="993" 
d="M967 96l-66 -103l-116 72c-75 -52 -176 -81 -299 -81c-273 0 -442 146 -442 366s169 366 442 366c274 0 443 -146 443 -366c0 -77 -21 -144 -59 -200zM486 104c69 0 129 13 177 38l-180 112l49 85l218 -122c24 37 37 81 37 133c0 155 -118 247 -301 247
c-182 0 -300 -92 -300 -247s118 -246 300 -246z" />
    <glyph glyph-name="R" unicode="R" horiz-adv-x="941" 
d="M88 0v700h550c145 0 225 -78 225 -185c0 -112 -90 -176 -225 -176h-74c165 -11 230 -111 350 -339h-170c-130 233 -162 297 -287 297h-228l1 -297h-142zM229 413h374c83 0 118 30 118 81c0 62 -36 89 -118 89h-375z" />
    <glyph glyph-name="Racute" unicode="&#x154;" horiz-adv-x="941" 
d="M428 744v80l287 186v-102zM88 0v700h550c145 0 225 -78 225 -185c0 -112 -90 -176 -225 -176h-74c165 -11 230 -111 350 -339h-170c-130 233 -162 297 -287 297h-228l1 -297h-142zM229 413h374c83 0 118 30 118 81c0 62 -36 89 -118 89h-375z" />
    <glyph glyph-name="Rcaron" unicode="&#x158;" horiz-adv-x="941" 
d="M739 941l-287 -186l-287 186v80l287 -164l287 164v-80zM564 339c165 -11 230 -111 350 -339h-170c-130 233 -162 297 -287 297h-228l1 -297h-142v700h550c145 0 225 -78 225 -185c0 -112 -90 -176 -225 -176h-74zM229 413h374c83 0 118 30 118 81c0 62 -36 89 -118 89
h-375z" />
    <glyph glyph-name="Rcommaaccent" unicode="&#x156;" horiz-adv-x="941" 
d="M88 0v700h550c145 0 225 -78 225 -185c0 -112 -90 -176 -225 -176h-74c165 -11 230 -111 350 -339h-170c-130 233 -162 297 -287 297h-228l1 -297h-142zM229 413h374c83 0 118 30 118 81c0 62 -36 89 -118 89h-375zM333 -350l63 270h125l-113 -270h-75z" />
    <glyph glyph-name="S" unicode="S" horiz-adv-x="871" 
d="M435 -16c-239 0 -394 97 -391 240h148c-1 -68 83 -120 232 -120c159 -1 260 27 260 99c0 170 -626 -8 -626 290c0 143 149 223 365 223c229 0 382 -94 384 -240h-148c1 69 -80 120 -226 121c-143 0 -231 -28 -231 -93c0 -155 625 11 625 -296c0 -143 -159 -224 -392 -224
z" />
    <glyph glyph-name="Sacute" unicode="&#x15a;" horiz-adv-x="871" 
d="M414 744v80l287 186v-102zM435 -16c-239 0 -394 97 -391 240h148c-1 -68 83 -120 232 -120c159 -1 260 27 260 99c0 170 -626 -8 -626 290c0 143 149 223 365 223c229 0 382 -94 384 -240h-148c1 69 -80 120 -226 121c-143 0 -231 -28 -231 -93c0 -155 625 11 625 -296
c0 -143 -159 -224 -392 -224z" />
    <glyph glyph-name="Scaron" unicode="&#x160;" horiz-adv-x="871" 
d="M725 941l-287 -186l-287 186v80l287 -164l287 164v-80zM202 504c0 -155 625 11 625 -296c0 -143 -159 -224 -392 -224c-239 0 -394 97 -391 240h148c-1 -68 83 -120 232 -120c159 -1 260 27 260 99c0 170 -626 -8 -626 290c0 143 149 223 365 223c229 0 382 -94 384 -240
h-148c1 69 -80 120 -226 121c-143 0 -231 -28 -231 -93z" />
    <glyph glyph-name="Scedilla" unicode="&#x15e;" horiz-adv-x="871" 
d="M468 -69c192 -11 314 -48 314 -108c0 -62 -170 -109 -426 -110v55c205 1 277 23 277 55c0 34 -72 55 -277 58v53l30 51c-211 13 -345 106 -342 239h148c-1 -68 83 -120 232 -120c159 -1 260 27 260 99c0 170 -626 -8 -626 290c0 143 149 223 365 223
c229 0 382 -94 384 -240h-148c1 69 -80 120 -226 121c-143 0 -231 -28 -231 -93c0 -155 625 11 625 -296c0 -130 -132 -209 -331 -222z" />
    <glyph glyph-name="Scommaaccent" unicode="&#x218;" horiz-adv-x="871" 
d="M435 -16c-239 0 -394 97 -391 240h148c-1 -68 83 -120 232 -120c159 -1 260 27 260 99c0 170 -626 -8 -626 290c0 143 149 223 365 223c229 0 382 -94 384 -240h-148c1 69 -80 120 -226 121c-143 0 -231 -28 -231 -93c0 -155 625 11 625 -296c0 -143 -159 -224 -392 -224
zM327 -350l63 270h125l-113 -270h-75z" />
    <glyph glyph-name="T" unicode="T" horiz-adv-x="888" 
d="M373 0v581h-340v119h823v-119h-341v-581h-142z" />
    <glyph glyph-name="Tbar" unicode="&#x166;" horiz-adv-x="888" 
d="M856 581h-341v-194h180v-113h-180v-274h-142v274h-178v113h178v194h-340v119h823v-119z" />
    <glyph glyph-name="Tcaron" unicode="&#x164;" horiz-adv-x="888" 
d="M732 941l-287 -186l-287 186v80l287 -164l287 164v-80zM33 700h823v-119h-341v-581h-142v581h-340v119z" />
    <glyph glyph-name="uni0162" unicode="&#x162;" horiz-adv-x="888" 
d="M515 0h-35l-35 -69c192 -11 314 -48 314 -108c0 -62 -170 -109 -426 -110v55c205 1 277 23 277 55c0 34 -72 55 -277 58v53l40 70v577h-340v119h823v-119h-341v-581z" />
    <glyph glyph-name="uni021A" unicode="&#x21a;" horiz-adv-x="888" 
d="M373 0v581h-340v119h823v-119h-341v-581h-142zM318 -350l63 270h125l-113 -270h-75z" />
    <glyph glyph-name="U" unicode="U" horiz-adv-x="909" 
d="M455 -16c-229 0 -367 90 -367 388v328h142v-358c0 -160 71 -236 225 -236c153 0 225 76 225 236v358h142v-328c0 -298 -138 -388 -367 -388z" />
    <glyph glyph-name="Uacute" unicode="&#xda;" horiz-adv-x="909" 
d="M431 744v80l287 186v-102zM455 -16c-229 0 -367 90 -367 388v328h142v-358c0 -160 71 -236 225 -236c153 0 225 76 225 236v358h142v-328c0 -298 -138 -388 -367 -388z" />
    <glyph glyph-name="Ucircumflex" unicode="&#xdb;" horiz-adv-x="909" 
d="M742 755l-287 164l-287 -164v80l287 186l287 -186v-80zM680 700h142v-328c0 -298 -138 -388 -367 -388s-367 90 -367 388v328h142v-358c0 -160 71 -236 225 -236c153 0 225 76 225 236v358z" />
    <glyph glyph-name="Udieresis" unicode="&#xdc;" horiz-adv-x="909" 
d="M314 738c-58 0 -99 34 -99 85s41 85 99 85c64 0 99 -34 99 -85s-35 -85 -99 -85zM604 738c-58 0 -99 34 -99 85s41 85 99 85c64 0 99 -34 99 -85s-35 -85 -99 -85zM455 -16c-229 0 -367 90 -367 388v328h142v-358c0 -160 71 -236 225 -236c153 0 225 76 225 236v358h142
v-328c0 -298 -138 -388 -367 -388z" />
    <glyph glyph-name="Ugrave" unicode="&#xd9;" horiz-adv-x="909" 
d="M461 744l-287 164v102l287 -186v-80zM455 -16c-229 0 -367 90 -367 388v328h142v-358c0 -160 71 -236 225 -236c153 0 225 76 225 236v358h142v-328c0 -298 -138 -388 -367 -388z" />
    <glyph glyph-name="Uhungarumlaut" unicode="&#x170;" horiz-adv-x="909" 
d="M319 744v80l287 186v-102zM569 744v80l287 186v-102zM455 -16c-229 0 -367 90 -367 388v328h142v-358c0 -160 71 -236 225 -236c153 0 225 76 225 236v358h142v-328c0 -298 -138 -388 -367 -388z" />
    <glyph glyph-name="Umacron" unicode="&#x16a;" horiz-adv-x="909" 
d="M189 846v54h532v-54h-532zM455 -16c-229 0 -367 90 -367 388v328h142v-358c0 -160 71 -236 225 -236c153 0 225 76 225 236v358h142v-328c0 -298 -138 -388 -367 -388z" />
    <glyph glyph-name="Uogonek" unicode="&#x172;" horiz-adv-x="909" 
d="M680 700h142v-328c0 -278 -120 -375 -323 -387c-12 -17 -18 -33 -18 -48c0 -49 62 -82 147 -82c27 0 55 3 84 9l-3 -78c-36 -11 -74 -16 -110 -16c-114 0 -212 52 -212 134c0 24 8 51 28 81c-205 10 -327 107 -327 387v328h142v-358c0 -160 71 -236 225 -236
c153 0 225 76 225 236v358z" />
    <glyph glyph-name="Uring" unicode="&#x16e;" horiz-adv-x="909" 
d="M455 738c-136 0 -253 41 -253 103s117 103 253 103c150 0 253 -41 253 -103s-103 -103 -253 -103zM455 789c51 0 91 18 91 51c0 36 -37 53 -91 53c-51 0 -89 -17 -89 -52s38 -52 89 -52zM455 -16c-229 0 -367 90 -367 388v328h142v-358c0 -160 71 -236 225 -236
c153 0 225 76 225 236v358h142v-328c0 -298 -138 -388 -367 -388z" />
    <glyph glyph-name="V" unicode="V" horiz-adv-x="1050" 
d="M402 0l-369 700h171l321 -630l321 630h172l-369 -700h-247z" />
    <glyph glyph-name="W" unicode="W" horiz-adv-x="1266" 
d="M307 0l-259 700h154l186 -516l176 516h139l175 -516l187 516h154l-259 -700h-160l-166 493l-168 -493h-159z" />
    <glyph glyph-name="Wacute" unicode="&#x1e82;" horiz-adv-x="1266" 
d="M610 744v80l287 186v-102zM307 0l-259 700h154l186 -516l176 516h139l175 -516l187 516h154l-259 -700h-160l-166 493l-168 -493h-159z" />
    <glyph glyph-name="Wcircumflex" unicode="&#x174;" horiz-adv-x="1266" 
d="M921 755l-287 164l-287 -164v80l287 186l287 -186v-80zM1065 700h154l-259 -700h-160l-166 493l-168 -493h-159l-259 700h154l186 -516l176 516h139l175 -516z" />
    <glyph glyph-name="Wdieresis" unicode="&#x1e84;" horiz-adv-x="1266" 
d="M493 738c-58 0 -99 34 -99 85s41 85 99 85c64 0 99 -34 99 -85s-35 -85 -99 -85zM783 738c-58 0 -99 34 -99 85s41 85 99 85c64 0 99 -34 99 -85s-35 -85 -99 -85zM307 0l-259 700h154l186 -516l176 516h139l175 -516l187 516h154l-259 -700h-160l-166 493l-168 -493
h-159z" />
    <glyph glyph-name="Wgrave" unicode="&#x1e80;" horiz-adv-x="1266" 
d="M640 744l-287 164v102l287 -186v-80zM307 0l-259 700h154l186 -516l176 516h139l175 -516l187 516h154l-259 -700h-160l-166 493l-168 -493h-159z" />
    <glyph glyph-name="X" unicode="X" horiz-adv-x="934" 
d="M48 0l323 352l-322 348h185l234 -252l233 252h185l-327 -354l319 -346h-183l-232 251l-233 -251h-182z" />
    <glyph glyph-name="Y" unicode="Y" horiz-adv-x="935" 
d="M397 0v226l-372 474h174l269 -349l268 349h174l-371 -473v-227h-142z" />
    <glyph glyph-name="Yacute" unicode="&#xdd;" horiz-adv-x="935" 
d="M444 744v80l287 186v-102zM397 0v226l-372 474h174l269 -349l268 349h174l-371 -473v-227h-142z" />
    <glyph glyph-name="Ycircumflex" unicode="&#x176;" horiz-adv-x="935" 
d="M755 755l-287 164l-287 -164v80l287 186l287 -186v-80zM736 700h174l-371 -473v-227h-142v226l-372 474h174l269 -349z" />
    <glyph glyph-name="Ydieresis" unicode="&#x178;" horiz-adv-x="935" 
d="M327 738c-58 0 -99 34 -99 85s41 85 99 85c64 0 99 -34 99 -85s-35 -85 -99 -85zM617 738c-58 0 -99 34 -99 85s41 85 99 85c64 0 99 -34 99 -85s-35 -85 -99 -85zM397 0v226l-372 474h174l269 -349l268 349h174l-371 -473v-227h-142z" />
    <glyph glyph-name="Ygrave" unicode="&#x1ef2;" horiz-adv-x="935" 
d="M474 744l-287 164v102l287 -186v-80zM397 0v226l-372 474h174l269 -349l268 349h174l-371 -473v-227h-142z" />
    <glyph glyph-name="Z" unicode="Z" horiz-adv-x="891" 
d="M43 0v87l572 494h-564v119h787v-85l-568 -495h578v-120h-805z" />
    <glyph glyph-name="Zacute" unicode="&#x179;" horiz-adv-x="891" 
d="M403 744v80l287 186v-102zM43 0v87l572 494h-564v119h787v-85l-568 -495h578v-120h-805z" />
    <glyph glyph-name="Zcaron" unicode="&#x17d;" horiz-adv-x="891" 
d="M714 941l-287 -186l-287 186v80l287 -164l287 164v-80zM270 120h578v-120h-805v87l572 494h-564v119h787v-85z" />
    <glyph glyph-name="Zdotaccent" unicode="&#x17b;" horiz-adv-x="891" 
d="M427 738c-58 0 -99 34 -99 85s41 85 99 85c64 0 99 -34 99 -85s-35 -85 -99 -85zM43 0v87l572 494h-564v119h787v-85l-568 -495h578v-120h-805z" />
    <glyph glyph-name="A.001" horiz-adv-x="1090" 
d="M33 0l394 700h237l394 -700h-169l-78 148h-532l-77 -148h-169zM337 260h416l-208 395z" />
    <glyph glyph-name="B.001" horiz-adv-x="926" 
d="M88 0v700h520c145 0 225 -78 225 -177c0 -120 -90 -161 -225 -161h-41v-14h63c136 0 226 -50 226 -169c0 -105 -90 -179 -226 -179h-542zM230 405h335c86 0 126 24 126 80c0 67 -40 96 -126 96h-335v-176zM231 121h356c86 0 126 30 126 97c0 61 -40 88 -126 88h-356v-185
z" />
    <glyph glyph-name="C.001" horiz-adv-x="855" 
d="M516 -16c-303 0 -472 146 -472 366s169 366 472 366c118 -1 203 -14 295 -54v-129c-81 41 -189 64 -295 64c-203 0 -330 -92 -330 -247s127 -246 330 -246c106 0 214 23 295 64v-130c-92 -40 -177 -53 -295 -54z" />
    <glyph glyph-name="G.001" horiz-adv-x="890" 
d="M518 -16c-303 0 -472 146 -472 366s169 366 472 366c118 -1 213 -14 305 -54v-129c-79 40 -196 64 -305 64c-203 0 -330 -92 -330 -247s127 -246 330 -246c67 0 132 8 196 24v159h-369v110h498v-339c-83 -40 -191 -73 -325 -74z" />
    <glyph glyph-name="J.001" horiz-adv-x="700" 
d="M285 -16c-118 1 -188 14 -280 54v140c102 -51 190 -74 280 -74c126 0 185 63 185 235v361h142v-361c0 -252 -107 -355 -327 -355z" />
    <glyph glyph-name="K.001" horiz-adv-x="950" 
d="M88 0v700h142v-419l390 419h225l-262 -239l314 -461h-191l-231 363c-112 -100 -186 -157 -245 -193v-170h-142z" />
    <glyph glyph-name="R.001" horiz-adv-x="916" 
d="M88 0v700h527c145 0 225 -78 225 -185c0 -112 -90 -159 -225 -159h-82v-15c152 0 248 -99 366 -341h-176c-130 233 -199 310 -309 310h-185l1 -310h-142zM229 428h344c91 0 125 20 125 75c0 59 -34 80 -125 80h-345z" />
    <glyph glyph-name="S.001" horiz-adv-x="887" 
d="M437 -15c-161 0 -309 47 -367 74v133c66 -35 229 -87 351 -87c197 0 280 28 280 92c0 176 -657 17 -657 305c0 153 188 213 388 213c121 0 258 -13 351 -54v-129c-78 39 -236 64 -336 64c-182 0 -261 -30 -261 -91c0 -153 657 -12 657 -296c0 -176 -220 -224 -406 -224z
" />
    <glyph glyph-name="a" unicode="a" horiz-adv-x="679" 
d="M230 -16c-74 0 -186 16 -186 132c0 148 285 166 447 180c-1 79 -45 107 -145 107c-78 0 -172 -26 -239 -55v114c84 31 191 54 279 54c179 0 247 -94 247 -234v-282h-140l27 179h-9c-30 -137 -128 -195 -281 -195zM287 84c100 0 201 47 202 140
c-116 -10 -297 -14 -297 -86c0 -34 37 -54 95 -54z" />
    <glyph glyph-name="aacute" unicode="&#xe1;" horiz-adv-x="679" 
d="M343 544v80l287 186v-102zM230 -16c-74 0 -186 16 -186 132c0 148 285 166 447 180c-1 79 -45 107 -145 107c-78 0 -172 -26 -239 -55v114c84 31 191 54 279 54c179 0 247 -94 247 -234v-282h-140l27 179h-9c-30 -137 -128 -195 -281 -195zM287 84c100 0 201 47 202 140
c-116 -10 -297 -14 -297 -86c0 -34 37 -54 95 -54z" />
    <glyph glyph-name="abreve" unicode="&#x103;" horiz-adv-x="679" 
d="M367 551c-122 0 -212 59 -213 149h105c2 -55 46 -81 108 -81c64 0 106 26 110 81h103c-1 -90 -77 -149 -213 -149zM230 -16c-74 0 -186 16 -186 132c0 148 285 166 447 180c-1 79 -45 107 -145 107c-78 0 -172 -26 -239 -55v114c84 31 191 54 279 54
c179 0 247 -94 247 -234v-282h-140l27 179h-9c-30 -137 -128 -195 -281 -195zM287 84c100 0 201 47 202 140c-116 -10 -297 -14 -297 -86c0 -34 37 -54 95 -54z" />
    <glyph glyph-name="acircumflex" unicode="&#xe2;" horiz-adv-x="679" 
d="M367 821l287 -186v-80l-287 164l-287 -164v80zM386 516c179 0 247 -94 247 -234v-282h-140l27 179h-9c-30 -137 -128 -195 -281 -195c-74 0 -186 16 -186 132c0 148 285 166 447 180c-1 79 -45 107 -145 107c-78 0 -172 -26 -239 -55v114c84 31 191 54 279 54zM287 84
c100 0 201 47 202 140c-116 -10 -297 -14 -297 -86c0 -34 37 -54 95 -54z" />
    <glyph glyph-name="adieresis" unicode="&#xe4;" horiz-adv-x="679" 
d="M226 538c-58 0 -99 34 -99 85s41 85 99 85c64 0 99 -34 99 -85s-35 -85 -99 -85zM516 538c-58 0 -99 34 -99 85s41 85 99 85c64 0 99 -34 99 -85s-35 -85 -99 -85zM230 -16c-74 0 -186 16 -186 132c0 148 285 166 447 180c-1 79 -45 107 -145 107
c-78 0 -172 -26 -239 -55v114c84 31 191 54 279 54c179 0 247 -94 247 -234v-282h-140l27 179h-9c-30 -137 -128 -195 -281 -195zM287 84c100 0 201 47 202 140c-116 -10 -297 -14 -297 -86c0 -34 37 -54 95 -54z" />
    <glyph glyph-name="agrave" unicode="&#xe0;" horiz-adv-x="679" 
d="M373 544l-287 164v102l287 -186v-80zM230 -16c-74 0 -186 16 -186 132c0 148 285 166 447 180c-1 79 -45 107 -145 107c-78 0 -172 -26 -239 -55v114c84 31 191 54 279 54c179 0 247 -94 247 -234v-282h-140l27 179h-9c-30 -137 -128 -195 -281 -195zM287 84
c100 0 201 47 202 140c-116 -10 -297 -14 -297 -86c0 -34 37 -54 95 -54z" />
    <glyph glyph-name="amacron" unicode="&#x101;" horiz-adv-x="679" 
d="M101 646v54h532v-54h-532zM230 -16c-74 0 -186 16 -186 132c0 148 285 166 447 180c-1 79 -45 107 -145 107c-78 0 -172 -26 -239 -55v114c84 31 191 54 279 54c179 0 247 -94 247 -234v-282h-140l27 179h-9c-30 -137 -128 -195 -281 -195zM287 84c100 0 201 47 202 140
c-116 -10 -297 -14 -297 -86c0 -34 37 -54 95 -54z" />
    <glyph glyph-name="aogonek" unicode="&#x105;" horiz-adv-x="679" 
d="M675 -145c27 0 55 3 84 9l-3 -78c-36 -11 -74 -16 -110 -16c-114 0 -212 52 -212 134c0 35 18 78 63 123l23 152h-9c-30 -137 -128 -195 -281 -195c-74 0 -186 16 -186 132c0 148 285 166 447 180c-1 79 -45 107 -145 107c-78 0 -172 -26 -239 -55v114
c84 31 191 54 279 54c179 0 247 -94 247 -234v-282h-74c-22 -23 -31 -44 -31 -63c0 -49 62 -82 147 -82zM287 84c100 0 201 47 202 140c-116 -10 -297 -14 -297 -86c0 -34 37 -54 95 -54z" />
    <glyph glyph-name="aring" unicode="&#xe5;" horiz-adv-x="679" 
d="M367 538c-136 0 -253 41 -253 103s117 103 253 103c150 0 253 -41 253 -103s-103 -103 -253 -103zM367 589c51 0 91 18 91 51c0 36 -37 53 -91 53c-51 0 -89 -17 -89 -52s38 -52 89 -52zM230 -16c-74 0 -186 16 -186 132c0 148 285 166 447 180c-1 79 -45 107 -145 107
c-78 0 -172 -26 -239 -55v114c84 31 191 54 279 54c179 0 247 -94 247 -234v-282h-140l27 179h-9c-30 -137 -128 -195 -281 -195zM287 84c100 0 201 47 202 140c-116 -10 -297 -14 -297 -86c0 -34 37 -54 95 -54z" />
    <glyph glyph-name="atilde" unicode="&#xe3;" horiz-adv-x="679" 
d="M452 572c-72 0 -94 72 -135 72c-36 0 -61 -23 -62 -71h-61c1 78 52 130 123 130c64 0 86 -72 135 -72c37 0 62 22 63 71h60c-1 -79 -52 -130 -123 -130zM230 -16c-74 0 -186 16 -186 132c0 148 285 166 447 180c-1 79 -45 107 -145 107c-78 0 -172 -26 -239 -55v114
c84 31 191 54 279 54c179 0 247 -94 247 -234v-282h-140l27 179h-9c-30 -137 -128 -195 -281 -195zM287 84c100 0 201 47 202 140c-116 -10 -297 -14 -297 -86c0 -34 37 -54 95 -54z" />
    <glyph glyph-name="ae" unicode="&#xe6;" horiz-adv-x="1137" 
d="M230 -16c-74 0 -186 16 -186 132c0 159 318 167 441 175c0 94 -39 112 -139 112c-78 0 -172 -24 -239 -53v112c84 31 191 54 279 54c91 0 152 -27 188 -74c52 47 128 74 218 74c179 0 298 -91 301 -227v-82h-466c17 -83 84 -115 215 -115c122 0 172 31 229 55v-114
c-97 -37 -153 -49 -279 -49c-147 0 -255 71 -289 183c-28 -125 -126 -183 -273 -183zM625 276l333 8c-3 91 -58 123 -166 123c-105 0 -159 -34 -167 -131zM287 84c100 0 194 46 196 138c-107 -8 -291 -9 -291 -84c0 -34 38 -54 95 -54z" />
    <glyph glyph-name="b" unicode="b" horiz-adv-x="775" 
d="M473 -16c-127 0 -248 59 -272 179h-12l22 -163h-146v700h142v-362h4c24 118 137 178 260 178c143 0 260 -105 260 -262c0 -162 -116 -270 -258 -270zM414 94c103 0 178 60 178 158c0 96 -75 155 -178 155c-95 0 -179 -59 -179 -155c0 -98 84 -158 179 -158z" />
    <glyph glyph-name="c" unicode="c" horiz-adv-x="624" 
d="M350 -16c-181 0 -306 106 -306 266c0 161 118 266 307 266c90 0 149 -18 229 -54v-117c-71 40 -134 62 -203 62c-128 0 -194 -45 -194 -157s68 -156 197 -156c76 0 138 19 200 58v-114c-81 -36 -131 -54 -230 -54z" />
    <glyph glyph-name="cacute" unicode="&#x107;" horiz-adv-x="624" 
d="M327 544v80l287 186v-102zM350 -16c-181 0 -306 106 -306 266c0 161 118 266 307 266c90 0 149 -18 229 -54v-117c-71 40 -134 62 -203 62c-128 0 -194 -45 -194 -157s68 -156 197 -156c76 0 138 19 200 58v-114c-81 -36 -131 -54 -230 -54z" />
    <glyph glyph-name="ccaron" unicode="&#x10d;" horiz-adv-x="624" 
d="M351 657l287 164v-80l-287 -186l-287 186v80zM44 250c0 161 118 266 307 266c90 0 149 -18 229 -54v-117c-71 40 -134 62 -203 62c-128 0 -194 -45 -194 -157s68 -156 197 -156c76 0 138 19 200 58v-114c-81 -36 -131 -54 -230 -54c-181 0 -306 106 -306 266z" />
    <glyph glyph-name="ccedilla" unicode="&#xe7;" horiz-adv-x="624" 
d="M358 -69c192 -11 314 -48 314 -108c0 -62 -170 -109 -426 -110v55c205 1 277 23 277 55c0 34 -72 55 -277 58v53l32 56c-141 24 -234 122 -234 260c0 161 118 266 307 266c90 0 149 -18 229 -54v-117c-71 40 -134 62 -203 62c-128 0 -194 -45 -194 -157s68 -156 197 -156
c76 0 138 19 200 58v-114c-71 -31 -118 -49 -195 -53z" />
    <glyph glyph-name="cdotaccent" unicode="&#x10b;" horiz-adv-x="624" 
d="M351 538c-58 0 -99 34 -99 85s41 85 99 85c64 0 99 -34 99 -85s-35 -85 -99 -85zM350 -16c-181 0 -306 106 -306 266c0 161 118 266 307 266c90 0 149 -18 229 -54v-117c-71 40 -134 62 -203 62c-128 0 -194 -45 -194 -157s68 -156 197 -156c76 0 138 19 200 58v-114
c-81 -36 -131 -54 -230 -54z" />
    <glyph glyph-name="d" unicode="d" horiz-adv-x="775" 
d="M302 -16c-142 0 -258 108 -258 270c0 157 117 262 260 262c123 0 236 -60 260 -178h4v362h142v-700h-146l22 163h-12c-24 -120 -145 -179 -272 -179zM361 94c95 0 179 60 179 158c0 96 -84 155 -179 155c-103 0 -178 -59 -178 -155c0 -98 75 -158 178 -158z" />
    <glyph glyph-name="eth" unicode="&#xf0;" horiz-adv-x="822" 
d="M807 631l-100 -29c53 -65 84 -147 84 -240c0 -255 -150 -374 -395 -374c-233 0 -366 93 -366 234c0 136 98 238 319 238c145 0 245 -75 299 -138c1 13 1 26 1 40c0 60 -18 139 -67 203l-215 -62l-28 84l167 48c-43 28 -98 46 -167 51l4 69c113 0 212 -30 288 -83l147 42z
M405 100c131 0 204 50 231 150c-51 69 -159 125 -262 125c-122 0 -201 -54 -201 -138s95 -137 232 -137z" />
    <glyph glyph-name="dcaron" unicode="&#x10f;" horiz-adv-x="958" 
d="M302 -16c-142 0 -258 108 -258 270c0 157 117 262 260 262c123 0 236 -60 260 -178h4v362h142v-700h-146l22 163h-12c-24 -120 -145 -179 -272 -179zM740 429l63 270h125l-113 -270h-75zM361 94c95 0 179 60 179 158c0 96 -84 155 -179 155c-103 0 -178 -59 -178 -155
c0 -98 75 -158 178 -158z" />
    <glyph glyph-name="dcroat" unicode="&#x111;" horiz-adv-x="785" 
d="M744 639v-103h-34v-536h-146l22 163h-12c-24 -120 -145 -179 -272 -179c-142 0 -258 108 -258 270c0 157 117 262 260 262c123 0 236 -60 260 -178h4v198h-282v103h282v61h142v-61h34zM361 94c95 0 179 60 179 158c0 96 -84 155 -179 155c-103 0 -178 -59 -178 -155
c0 -98 75 -158 178 -158z" />
    <glyph glyph-name="e" unicode="e" horiz-adv-x="690" 
d="M345 -16c-181 0 -301 106 -301 266s120 266 301 266c179 0 298 -91 301 -227v-82h-466c16 -82 83 -115 215 -115c122 0 172 31 229 55v-114c-97 -37 -153 -49 -279 -49zM177 276l334 8c-4 90 -58 123 -166 123c-105 0 -159 -36 -168 -131z" />
    <glyph glyph-name="eacute" unicode="&#xe9;" horiz-adv-x="690" 
d="M321 544v80l287 186v-102zM345 -16c-181 0 -301 106 -301 266s120 266 301 266c179 0 298 -91 301 -227v-82h-466c16 -82 83 -115 215 -115c122 0 172 31 229 55v-114c-97 -37 -153 -49 -279 -49zM177 276l334 8c-4 90 -58 123 -166 123c-105 0 -159 -36 -168 -131z" />
    <glyph glyph-name="ecaron" unicode="&#x11b;" horiz-adv-x="690" 
d="M632 741l-287 -186l-287 186v80l287 -164l287 164v-80zM646 289v-82h-466c16 -82 83 -115 215 -115c122 0 172 31 229 55v-114c-97 -37 -153 -49 -279 -49c-181 0 -301 106 -301 266s120 266 301 266c179 0 298 -91 301 -227zM177 276l334 8c-4 90 -58 123 -166 123
c-105 0 -159 -36 -168 -131z" />
    <glyph glyph-name="ecircumflex" unicode="&#xea;" horiz-adv-x="690" 
d="M632 555l-287 164l-287 -164v80l287 186l287 -186v-80zM646 289v-82h-466c16 -82 83 -115 215 -115c122 0 172 31 229 55v-114c-97 -37 -153 -49 -279 -49c-181 0 -301 106 -301 266s120 266 301 266c179 0 298 -91 301 -227zM177 276l334 8c-4 90 -58 123 -166 123
c-105 0 -159 -36 -168 -131z" />
    <glyph glyph-name="edieresis" unicode="&#xeb;" horiz-adv-x="690" 
d="M204 538c-58 0 -99 34 -99 85s41 85 99 85c64 0 99 -34 99 -85s-35 -85 -99 -85zM494 538c-58 0 -99 34 -99 85s41 85 99 85c64 0 99 -34 99 -85s-35 -85 -99 -85zM345 -16c-181 0 -301 106 -301 266s120 266 301 266c179 0 298 -91 301 -227v-82h-466
c16 -82 83 -115 215 -115c122 0 172 31 229 55v-114c-97 -37 -153 -49 -279 -49zM177 276l334 8c-4 90 -58 123 -166 123c-105 0 -159 -36 -168 -131z" />
    <glyph glyph-name="edotaccent" unicode="&#x117;" horiz-adv-x="690" 
d="M345 538c-58 0 -99 34 -99 85s41 85 99 85c64 0 99 -34 99 -85s-35 -85 -99 -85zM345 -16c-181 0 -301 106 -301 266s120 266 301 266c179 0 298 -91 301 -227v-82h-466c16 -82 83 -115 215 -115c122 0 172 31 229 55v-114c-97 -37 -153 -49 -279 -49zM177 276l334 8
c-4 90 -58 123 -166 123c-105 0 -159 -36 -168 -131z" />
    <glyph glyph-name="egrave" unicode="&#xe8;" horiz-adv-x="690" 
d="M369 544l-287 164v102l287 -186v-80zM345 -16c-181 0 -301 106 -301 266s120 266 301 266c179 0 298 -91 301 -227v-82h-466c16 -82 83 -115 215 -115c122 0 172 31 229 55v-114c-97 -37 -153 -49 -279 -49zM177 276l334 8c-4 90 -58 123 -166 123
c-105 0 -159 -36 -168 -131z" />
    <glyph glyph-name="emacron" unicode="&#x113;" horiz-adv-x="690" 
d="M79 646v54h532v-54h-532zM345 -16c-181 0 -301 106 -301 266s120 266 301 266c179 0 298 -91 301 -227v-82h-466c16 -82 83 -115 215 -115c122 0 172 31 229 55v-114c-97 -37 -153 -49 -279 -49zM177 276l334 8c-4 90 -58 123 -166 123c-105 0 -159 -36 -168 -131z" />
    <glyph glyph-name="eogonek" unicode="&#x119;" horiz-adv-x="690" 
d="M646 289v-82h-466c16 -82 83 -115 215 -115c122 0 172 31 229 55v-114c-85 -33 -139 -46 -236 -48c-12 -17 -18 -34 -18 -48c0 -49 62 -82 147 -82c27 0 55 3 84 9l-3 -78c-36 -11 -74 -16 -110 -16c-114 0 -212 52 -212 134c0 24 9 52 29 82c-159 14 -261 116 -261 264
c0 160 120 266 301 266c179 0 298 -91 301 -227zM177 276l334 8c-4 90 -58 123 -166 123c-105 0 -159 -36 -168 -131z" />
    <glyph glyph-name="f" unicode="f" horiz-adv-x="436" 
d="M110 0v397h-65v103h65v20c0 129 41 189 162 189c34 0 66 -6 116 -16v-78c-12 0 -24 1 -34 1c-94 0 -102 -22 -102 -116h136v-93h-136v-407h-142z" />
    <glyph glyph-name="g" unicode="g" horiz-adv-x="779" 
d="M385 -200c-115 0 -178 17 -256 44v123c48 -34 146 -58 245 -58c146 0 200 60 204 173l3 67c-30 -111 -147 -160 -269 -160c-142 0 -258 103 -258 265c0 157 117 262 260 262c123 0 236 -60 260 -178h15l-13 162h135v-440c0 -181 -133 -260 -326 -260zM371 94
c94 0 179 60 179 158c0 96 -84 155 -179 155c-103 0 -178 -59 -178 -155c0 -98 75 -158 178 -158z" />
    <glyph glyph-name="gbreve" unicode="&#x11f;" horiz-adv-x="779" 
d="M434 551c-122 0 -212 59 -213 149h105c2 -55 46 -81 108 -81c64 0 106 26 110 81h103c-1 -90 -77 -149 -213 -149zM385 -200c-115 0 -178 17 -256 44v123c48 -34 146 -58 245 -58c146 0 200 60 204 173l3 67c-30 -111 -147 -160 -269 -160c-142 0 -258 103 -258 265
c0 157 117 262 260 262c123 0 236 -60 260 -178h15l-13 162h135v-440c0 -181 -133 -260 -326 -260zM371 94c94 0 179 60 179 158c0 96 -84 155 -179 155c-103 0 -178 -59 -178 -155c0 -98 75 -158 178 -158z" />
    <glyph glyph-name="gcommaaccent" unicode="&#x123;" horiz-adv-x="779" 
d="M385 -200c-115 0 -178 17 -256 44v123c48 -34 146 -58 245 -58c146 0 200 60 204 173l3 67c-30 -111 -147 -160 -269 -160c-142 0 -258 103 -258 265c0 157 117 262 260 262c123 0 236 -60 260 -178h15l-13 162h135v-440c0 -181 -133 -260 -326 -260zM371 94
c94 0 179 60 179 158c0 96 -84 155 -179 155c-103 0 -178 -59 -178 -155c0 -98 75 -158 178 -158zM253 -532l63 270h125l-113 -270h-75z" />
    <glyph glyph-name="gdotaccent" unicode="&#x121;" horiz-adv-x="779" 
d="M434 538c-58 0 -99 34 -99 85s41 85 99 85c64 0 99 -34 99 -85s-35 -85 -99 -85zM385 -200c-115 0 -178 17 -256 44v123c48 -34 146 -58 245 -58c146 0 200 60 204 173l3 67c-30 -111 -147 -160 -269 -160c-142 0 -258 103 -258 265c0 157 117 262 260 262
c123 0 236 -60 260 -178h15l-13 162h135v-440c0 -181 -133 -260 -326 -260zM371 94c94 0 179 60 179 158c0 96 -84 155 -179 155c-103 0 -178 -59 -178 -155c0 -98 75 -158 178 -158z" />
    <glyph glyph-name="h" unicode="h" horiz-adv-x="707" 
d="M65 0v700h156l-20 -406h8c21 133 95 222 246 222c141 -2 208 -81 208 -299v-217h-142v200c0 151 -40 209 -137 209c-108 0 -177 -107 -177 -271v-138h-142z" />
    <glyph glyph-name="hbar" unicode="&#x127;" horiz-adv-x="707" 
d="M455 516c141 -2 208 -81 208 -299v-217h-142v200c0 151 -40 209 -137 209c-108 0 -177 -107 -177 -271v-138h-142v536h-50v103h50v61h156l-3 -61h255v-103h-260l-12 -242h8c21 133 95 222 246 222z" />
    <glyph glyph-name="i" unicode="i" horiz-adv-x="290" 
d="M144 586c-53 0 -87 26 -87 81c0 54 34 80 87 80c54 0 89 -26 89 -80c0 -55 -34 -81 -89 -81zM75 0v500h142v-500h-142z" />
    <glyph glyph-name="dotlessi" unicode="&#x131;" horiz-adv-x="194" 
d="M26 0v500h142v-500h-142z" />
    <glyph glyph-name="iacute" unicode="&#xed;" horiz-adv-x="194" 
d="M73 541v80l287 186v-102zM26 0v500h142v-500h-142z" />
    <glyph glyph-name="icircumflex" unicode="&#xee;" horiz-adv-x="194" 
d="M97 818l287 -186v-80l-287 164l-287 -164v80zM26 0v500h142v-500h-142z" />
    <glyph glyph-name="idieresis" unicode="&#xef;" horiz-adv-x="194" 
d="M-44 535c-58 0 -99 34 -99 85s41 85 99 85c64 0 99 -34 99 -85s-35 -85 -99 -85zM246 535c-58 0 -99 34 -99 85s41 85 99 85c64 0 99 -34 99 -85s-35 -85 -99 -85zM26 0v500h142v-500h-142z" />
    <glyph glyph-name="i.loclTRK" horiz-adv-x="194" 
d="M97 535c-58 0 -99 34 -99 85s41 85 99 85c64 0 99 -34 99 -85s-35 -85 -99 -85zM26 0v500h142v-500h-142z" />
    <glyph glyph-name="igrave" unicode="&#xec;" horiz-adv-x="194" 
d="M103 541l-287 164v102l287 -186v-80zM26 0v500h142v-500h-142z" />
    <glyph glyph-name="imacron" unicode="&#x12b;" horiz-adv-x="194" 
d="M-169 643v54h532v-54h-532zM26 0v500h142v-500h-142z" />
    <glyph glyph-name="iogonek" unicode="&#x12f;" horiz-adv-x="290" 
d="M144 586c-53 0 -87 26 -87 81c0 54 34 80 87 80c54 0 89 -26 89 -80c0 -55 -34 -81 -89 -81zM257 -145c27 0 55 3 84 9l-3 -78c-36 -11 -74 -16 -110 -16c-114 0 -212 52 -212 134c0 34 17 75 59 119v477h142v-500h-76c-22 -23 -31 -44 -31 -63c0 -49 62 -82 147 -82z
" />
    <glyph glyph-name="j" unicode="j" horiz-adv-x="295" 
d="M145 586c-53 0 -87 26 -87 81c0 54 34 80 87 80c54 0 89 -26 89 -80c0 -55 -34 -81 -89 -81zM-24 -200v87c66 0 99 36 99 88v525h142v-510c0 -119 -107 -190 -241 -190z" />
    <glyph glyph-name="k" unicode="k" horiz-adv-x="730" 
d="M65 0v700h142v-433l269 233h203l-202 -164l210 -336h-174l-143 248l-163 -131v-117h-142z" />
    <glyph glyph-name="kcommaaccent" unicode="&#x137;" horiz-adv-x="730" 
d="M65 0v700h142v-433l269 233h203l-202 -164l210 -336h-174l-143 248l-163 -131v-117h-142zM227 -350l63 270h125l-113 -270h-75z" />
    <glyph glyph-name="l" unicode="l" horiz-adv-x="272" 
d="M65 0v700h142v-700h-142z" />
    <glyph glyph-name="lacute" unicode="&#x13a;" horiz-adv-x="272" 
d="M113 744v80l287 186v-102zM65 0v700h142v-700h-142z" />
    <glyph glyph-name="lcaron" unicode="&#x13e;" horiz-adv-x="460" 
d="M65 0v700h142v-700h-142zM239 429l63 270h125l-113 -270h-75z" />
    <glyph glyph-name="lcommaaccent" unicode="&#x13c;" horiz-adv-x="272" 
d="M65 0v700h142v-700h-142zM10 -350l63 270h125l-113 -270h-75z" />
    <glyph glyph-name="lslash" unicode="&#x142;" horiz-adv-x="557" 
d="M535 537l-174 -100v-437h-142v355l-150 -86l-46 83l196 113v235h142v-154l127 73z" />
    <glyph glyph-name="m" unicode="m" horiz-adv-x="1165" 
d="M65 0v500h156l-20 -206h8c21 133 95 222 246 222c123 -2 188 -62 204 -222h6c21 133 95 222 246 222c141 -2 208 -81 208 -299v-217h-142v200c0 152 -40 211 -137 209c-108 0 -177 -107 -177 -271v-138h-142v200c0 152 -40 211 -137 209c-108 0 -177 -107 -177 -271v-138
h-142z" />
    <glyph glyph-name="n" unicode="n" horiz-adv-x="709" 
d="M65 0v500h156l-20 -206h8c21 133 95 222 246 222c141 -2 208 -81 208 -299v-217h-142v200c0 151 -40 209 -137 209c-108 0 -177 -107 -177 -271v-138h-142z" />
    <glyph glyph-name="nacute" unicode="&#x144;" horiz-adv-x="709" 
d="M367 544v80l287 186v-102zM65 0v500h156l-20 -206h8c21 133 95 222 246 222c141 -2 208 -81 208 -299v-217h-142v200c0 151 -40 209 -137 209c-108 0 -177 -107 -177 -271v-138h-142z" />
    <glyph glyph-name="ncaron" unicode="&#x148;" horiz-adv-x="709" 
d="M391 657l287 164v-80l-287 -186l-287 186v80zM455 516c141 -2 208 -81 208 -299v-217h-142v200c0 151 -40 209 -137 209c-108 0 -177 -107 -177 -271v-138h-142v500h156l-20 -206h8c21 133 95 222 246 222z" />
    <glyph glyph-name="ncommaaccent" unicode="&#x146;" horiz-adv-x="709" 
d="M65 0v500h156l-20 -206h8c21 133 95 222 246 222c141 -2 208 -81 208 -299v-217h-142v200c0 151 -40 209 -137 209c-108 0 -177 -107 -177 -271v-138h-142zM236 -350l63 270h125l-113 -270h-75z" />
    <glyph glyph-name="eng" unicode="&#x14b;" horiz-adv-x="709" 
d="M455 516c141 -2 208 -81 208 -299v-217c-1 -171 -48 -200 -414 -200v89c195 0 272 7 272 79v32v200c0 151 -40 209 -137 209c-108 0 -177 -107 -177 -271v-138h-142v500h156l-20 -206h8c21 133 95 222 246 222z" />
    <glyph glyph-name="ntilde" unicode="&#xf1;" horiz-adv-x="709" 
d="M476 572c-72 0 -94 72 -135 72c-36 0 -61 -23 -62 -71h-61c1 78 52 130 123 130c64 0 86 -72 135 -72c37 0 62 22 63 71h60c-1 -79 -52 -130 -123 -130zM65 0v500h156l-20 -206h8c21 133 95 222 246 222c141 -2 208 -81 208 -299v-217h-142v200c0 151 -40 209 -137 209
c-108 0 -177 -107 -177 -271v-138h-142z" />
    <glyph glyph-name="o" unicode="o" horiz-adv-x="715" 
d="M357 -16c-188 0 -313 106 -313 266s125 266 313 266c189 0 314 -106 314 -266s-125 -266 -314 -266zM357 94c109 0 182 63 182 156c0 94 -73 157 -182 157c-108 0 -181 -63 -181 -157c0 -93 73 -156 181 -156z" />
    <glyph glyph-name="oacute" unicode="&#xf3;" horiz-adv-x="715" 
d="M334 544v80l287 186v-102zM357 -16c-188 0 -313 106 -313 266s125 266 313 266c189 0 314 -106 314 -266s-125 -266 -314 -266zM357 94c109 0 182 63 182 156c0 94 -73 157 -182 157c-108 0 -181 -63 -181 -157c0 -93 73 -156 181 -156z" />
    <glyph glyph-name="ocircumflex" unicode="&#xf4;" horiz-adv-x="715" 
d="M645 555l-287 164l-287 -164v80l287 186l287 -186v-80zM357 516c189 0 314 -106 314 -266s-125 -266 -314 -266c-188 0 -313 106 -313 266s125 266 313 266zM357 94c109 0 182 63 182 156c0 94 -73 157 -182 157c-108 0 -181 -63 -181 -157c0 -93 73 -156 181 -156z" />
    <glyph glyph-name="odieresis" unicode="&#xf6;" horiz-adv-x="715" 
d="M217 538c-58 0 -99 34 -99 85s41 85 99 85c64 0 99 -34 99 -85s-35 -85 -99 -85zM507 538c-58 0 -99 34 -99 85s41 85 99 85c64 0 99 -34 99 -85s-35 -85 -99 -85zM357 -16c-188 0 -313 106 -313 266s125 266 313 266c189 0 314 -106 314 -266s-125 -266 -314 -266z
M357 94c109 0 182 63 182 156c0 94 -73 157 -182 157c-108 0 -181 -63 -181 -157c0 -93 73 -156 181 -156z" />
    <glyph glyph-name="ograve" unicode="&#xf2;" horiz-adv-x="715" 
d="M364 544l-287 164v102l287 -186v-80zM357 -16c-188 0 -313 106 -313 266s125 266 313 266c189 0 314 -106 314 -266s-125 -266 -314 -266zM357 94c109 0 182 63 182 156c0 94 -73 157 -182 157c-108 0 -181 -63 -181 -157c0 -93 73 -156 181 -156z" />
    <glyph glyph-name="ohungarumlaut" unicode="&#x151;" horiz-adv-x="715" 
d="M222 544v80l287 186v-102zM472 544v80l287 186v-102zM357 -16c-188 0 -313 106 -313 266s125 266 313 266c189 0 314 -106 314 -266s-125 -266 -314 -266zM357 94c109 0 182 63 182 156c0 94 -73 157 -182 157c-108 0 -181 -63 -181 -157c0 -93 73 -156 181 -156z" />
    <glyph glyph-name="omacron" unicode="&#x14d;" horiz-adv-x="715" 
d="M101 646v54h532v-54h-532zM357 -16c-188 0 -313 106 -313 266s125 266 313 266c189 0 314 -106 314 -266s-125 -266 -314 -266zM357 94c109 0 182 63 182 156c0 94 -73 157 -182 157c-108 0 -181 -63 -181 -157c0 -93 73 -156 181 -156z" />
    <glyph glyph-name="oslash" unicode="&#xf8;" horiz-adv-x="715" 
d="M729 500l-110 -92c34 -43 52 -97 52 -158c0 -160 -125 -266 -314 -266c-73 0 -137 16 -187 45l-35 -29h-141l105 88c-35 44 -55 99 -55 162c0 160 125 266 313 266c76 0 142 -17 193 -48l38 32h141zM176 250c0 -30 7 -56 21 -79l256 216c-27 13 -59 20 -96 20
c-108 0 -181 -63 -181 -157zM539 250c0 28 -6 53 -18 75l-254 -214c26 -11 56 -17 90 -17c109 0 182 63 182 156z" />
    <glyph glyph-name="otilde" unicode="&#xf5;" horiz-adv-x="715" 
d="M443 572c-72 0 -94 72 -135 72c-36 0 -61 -23 -62 -71h-61c1 78 52 130 123 130c64 0 86 -72 135 -72c37 0 62 22 63 71h60c-1 -79 -52 -130 -123 -130zM357 -16c-188 0 -313 106 -313 266s125 266 313 266c189 0 314 -106 314 -266s-125 -266 -314 -266zM357 94
c109 0 182 63 182 156c0 94 -73 157 -182 157c-108 0 -181 -63 -181 -157c0 -93 73 -156 181 -156z" />
    <glyph glyph-name="oe" unicode="&#x153;" horiz-adv-x="1189" 
d="M1145 289v-82h-466c16 -82 83 -115 215 -115c122 0 172 31 229 55v-114c-97 -37 -153 -49 -279 -49c-103 0 -186 34 -238 93c-55 -59 -142 -93 -249 -93c-188 0 -313 106 -313 266s125 266 313 266c107 0 194 -34 249 -93c52 59 135 93 238 93c179 0 298 -91 301 -227z
M357 94c109 0 182 63 182 156c0 94 -73 157 -182 157c-108 0 -181 -63 -181 -157c0 -93 73 -156 181 -156zM676 276l334 8c-4 90 -58 123 -166 123c-105 0 -159 -36 -168 -131z" />
    <glyph glyph-name="p" unicode="p" horiz-adv-x="775" 
d="M473 516c142 0 258 -108 258 -270c0 -157 -117 -262 -260 -262c-123 0 -236 60 -260 178h-4v-362h-142v700h146l-22 -163h12c24 120 145 179 272 179zM414 406c-95 0 -179 -60 -179 -158c0 -96 84 -155 179 -155c103 0 178 59 178 155c0 98 -75 158 -178 158z" />
    <glyph glyph-name="thorn" unicode="&#xfe;" horiz-adv-x="686" 
d="M420 516c139 0 236 -106 236 -270c0 -160 -98 -262 -238 -262c-119 0 -217 56 -242 178h-4v-362h-142v900h146l-22 -363h12c25 125 133 179 254 179zM355 88c100 0 159 51 159 160c0 111 -59 164 -159 164c-85 0 -160 -46 -160 -164c0 -116 75 -160 160 -160z" />
    <glyph glyph-name="q" unicode="q" horiz-adv-x="775" 
d="M302 516c127 0 248 -59 272 -179h12l-22 163h146v-700h-142v362h-4c-24 -118 -137 -178 -260 -178c-143 0 -260 105 -260 262c0 162 116 270 258 270zM361 406c-103 0 -178 -60 -178 -158c0 -96 75 -155 178 -155c95 0 179 59 179 155c0 98 -84 158 -179 158z" />
    <glyph glyph-name="r" unicode="r" horiz-adv-x="534" 
d="M65 0v500h156l-20 -206h10c26 164 103 222 290 222v-119c-210 0 -294 -68 -294 -229v-168h-142z" />
    <glyph glyph-name="racute" unicode="&#x155;" horiz-adv-x="534" 
d="M267 544v80l287 186v-102zM65 0v500h156l-20 -206h10c26 164 103 222 290 222v-119c-210 0 -294 -68 -294 -229v-168h-142z" />
    <glyph glyph-name="rcaron" unicode="&#x159;" horiz-adv-x="534" 
d="M291 657l287 164v-80l-287 -186l-287 186v80zM211 294c26 164 103 222 290 222v-119c-210 0 -294 -68 -294 -229v-168h-142v500h156l-20 -206h10z" />
    <glyph glyph-name="rcommaaccent" unicode="&#x157;" horiz-adv-x="534" 
d="M65 0v500h156l-20 -206h10c26 164 103 222 290 222v-119c-210 0 -294 -68 -294 -229v-168h-142zM7 -350l63 270h125l-113 -270h-75z" />
    <glyph glyph-name="s" unicode="s" horiz-adv-x="672" 
d="M334 -16c-77 0 -185 15 -268 39v114c84 -32 157 -43 245 -43c124 0 177 13 177 55c0 107 -444 -16 -444 201c0 112 118 166 294 166c60 0 163 -11 250 -28v-110c-71 15 -160 26 -235 26c-118 0 -170 -17 -170 -52c0 -97 445 15 445 -203c0 -116 -118 -165 -294 -165z" />
    <glyph glyph-name="sacute" unicode="&#x15b;" horiz-adv-x="672" 
d="M312 544v80l287 186v-102zM334 -16c-77 0 -185 15 -268 39v114c84 -32 157 -43 245 -43c124 0 177 13 177 55c0 107 -444 -16 -444 201c0 112 118 166 294 166c60 0 163 -11 250 -28v-110c-71 15 -160 26 -235 26c-118 0 -170 -17 -170 -52c0 -97 445 15 445 -203
c0 -116 -118 -165 -294 -165z" />
    <glyph glyph-name="scaron" unicode="&#x161;" horiz-adv-x="672" 
d="M623 741l-287 -186l-287 186v80l287 -164l287 164v-80zM183 352c0 -97 445 15 445 -203c0 -116 -118 -165 -294 -165c-77 0 -185 15 -268 39v114c84 -32 157 -43 245 -43c124 0 177 13 177 55c0 107 -444 -16 -444 201c0 112 118 166 294 166c60 0 163 -11 250 -28v-110
c-71 15 -160 26 -235 26c-118 0 -170 -17 -170 -52z" />
    <glyph glyph-name="scedilla" unicode="&#x15f;" horiz-adv-x="672" 
d="M362 -69c192 -11 314 -48 314 -108c0 -62 -170 -109 -426 -110v55c205 1 277 23 277 55c0 34 -72 55 -277 58v53l30 52c-69 5 -149 18 -214 37v114c84 -32 157 -43 245 -43c124 0 177 13 177 55c0 107 -444 -16 -444 201c0 112 118 166 294 166c60 0 163 -11 250 -28
v-110c-71 15 -160 26 -235 26c-118 0 -170 -17 -170 -52c0 -97 445 15 445 -203c0 -103 -94 -153 -238 -163z" />
    <glyph glyph-name="scommaaccent" unicode="&#x219;" horiz-adv-x="672" 
d="M334 -16c-77 0 -185 15 -268 39v114c84 -32 157 -43 245 -43c124 0 177 13 177 55c0 107 -444 -16 -444 201c0 112 118 166 294 166c60 0 163 -11 250 -28v-110c-71 15 -160 26 -235 26c-118 0 -170 -17 -170 -52c0 -97 445 15 445 -203c0 -116 -118 -165 -294 -165z
M230 -341l63 270h125l-113 -270h-75z" />
    <glyph glyph-name="germandbls" unicode="&#xdf;" horiz-adv-x="847" 
d="M453 348c245 -8 350 -57 350 -161c0 -170 -170 -205 -412 -203c-34 1 -67 2 -101 4v119c32 -2 64 -3 91 -3c198 0 289 14 289 93c0 73 -62 95 -380 113v85c298 18 360 40 360 106c0 68 -75 84 -270 84h-193v-585h-142v700h345c213 0 393 -7 393 -175
c0 -118 -99 -168 -330 -168v-9z" />
    <glyph glyph-name="t" unicode="t" horiz-adv-x="433" 
d="M260 -10c-130 0 -150 47 -150 190v217h-72v103h92v120l122 20v-140h144v-103h-144v-187c0 -102 0 -127 91 -127c15 0 32 1 53 2v-75c-42 -14 -82 -20 -136 -20z" />
    <glyph glyph-name="tbar" unicode="&#x167;" horiz-adv-x="433" 
d="M397 212h-145v-2c0 -102 0 -127 91 -127c15 0 32 1 53 2v-75c-42 -14 -82 -20 -136 -20c-130 0 -150 47 -150 190v32h-72v105h72v80h-72v103h92v120l122 20v-140h144v-103h-144v-80h145v-105z" />
    <glyph glyph-name="tcaron" unicode="&#x165;" horiz-adv-x="607" 
d="M411 429l63 270h125l-113 -270h-75zM260 -10c-130 0 -150 47 -150 190v217h-72v103h92v120l122 20v-140h144v-103h-144v-187c0 -102 0 -127 91 -127c15 0 32 1 53 2v-75c-42 -14 -82 -20 -136 -20z" />
    <glyph glyph-name="uni0163" unicode="&#x163;" horiz-adv-x="433" 
d="M234 -69c192 -11 314 -48 314 -108c0 -62 -170 -109 -426 -110v55c205 1 277 23 277 55c0 34 -72 55 -277 58v53l42 73c-45 24 -54 77 -54 173v217h-72v103h92v120l122 20v-140h144v-103h-144v-187c0 -102 0 -127 91 -127c15 0 32 1 53 2v-75c-41 -14 -80 -20 -132 -20z
" />
    <glyph glyph-name="uni021B" unicode="&#x21b;" horiz-adv-x="433" 
d="M260 -10c-130 0 -150 47 -150 190v217h-72v103h92v120l122 20v-140h144v-103h-144v-187c0 -102 0 -127 91 -127c15 0 32 1 53 2v-75c-42 -14 -82 -20 -136 -20zM111 -341l63 270h125l-113 -270h-75z" />
    <glyph glyph-name="u" unicode="u" horiz-adv-x="709" 
d="M644 500v-500h-156l20 206h-8c-21 -133 -95 -222 -246 -222c-141 2 -208 81 -208 299v217h142v-200c0 -151 40 -209 137 -209c108 0 177 107 177 271v138h142z" />
    <glyph glyph-name="uacute" unicode="&#xfa;" horiz-adv-x="709" 
d="M309 544v80l287 186v-102zM644 500v-500h-156l20 206h-8c-21 -133 -95 -222 -246 -222c-141 2 -208 81 -208 299v217h142v-200c0 -151 40 -209 137 -209c108 0 177 107 177 271v138h142z" />
    <glyph glyph-name="ucircumflex" unicode="&#xfb;" horiz-adv-x="709" 
d="M620 555l-287 164l-287 -164v80l287 186l287 -186v-80zM502 500h142v-500h-156l20 206h-8c-21 -133 -95 -222 -246 -222c-141 2 -208 81 -208 299v217h142v-200c0 -151 40 -209 137 -209c108 0 177 107 177 271v138z" />
    <glyph glyph-name="udieresis" unicode="&#xfc;" horiz-adv-x="709" 
d="M192 538c-58 0 -99 34 -99 85s41 85 99 85c64 0 99 -34 99 -85s-35 -85 -99 -85zM482 538c-58 0 -99 34 -99 85s41 85 99 85c64 0 99 -34 99 -85s-35 -85 -99 -85zM644 500v-500h-156l20 206h-8c-21 -133 -95 -222 -246 -222c-141 2 -208 81 -208 299v217h142v-200
c0 -151 40 -209 137 -209c108 0 177 107 177 271v138h142z" />
    <glyph glyph-name="ugrave" unicode="&#xf9;" horiz-adv-x="709" 
d="M339 544l-287 164v102l287 -186v-80zM644 500v-500h-156l20 206h-8c-21 -133 -95 -222 -246 -222c-141 2 -208 81 -208 299v217h142v-200c0 -151 40 -209 137 -209c108 0 177 107 177 271v138h142z" />
    <glyph glyph-name="uhungarumlaut" unicode="&#x171;" horiz-adv-x="709" 
d="M197 544v80l287 186v-102zM447 544v80l287 186v-102zM644 500v-500h-156l20 206h-8c-21 -133 -95 -222 -246 -222c-141 2 -208 81 -208 299v217h142v-200c0 -151 40 -209 137 -209c108 0 177 107 177 271v138h142z" />
    <glyph glyph-name="umacron" unicode="&#x16b;" horiz-adv-x="709" 
d="M89 646v54h532v-54h-532zM644 500v-500h-156l20 206h-8c-21 -133 -95 -222 -246 -222c-141 2 -208 81 -208 299v217h142v-200c0 -151 40 -209 137 -209c108 0 177 107 177 271v138h142z" />
    <glyph glyph-name="uogonek" unicode="&#x173;" horiz-adv-x="709" 
d="M679 -145c27 0 55 3 84 9l-3 -78c-36 -11 -74 -16 -110 -16c-114 0 -212 52 -212 134c0 32 15 70 51 111l19 191h-8c-21 -133 -95 -222 -246 -222c-141 2 -208 81 -208 299v217h142v-200c0 -151 40 -209 137 -209c108 0 177 107 177 271v138h142v-500h-81
c-22 -23 -31 -44 -31 -63c0 -49 62 -82 147 -82z" />
    <glyph glyph-name="uring" unicode="&#x16f;" horiz-adv-x="709" 
d="M333 538c-136 0 -253 41 -253 103s117 103 253 103c150 0 253 -41 253 -103s-103 -103 -253 -103zM333 589c51 0 91 18 91 51c0 36 -37 53 -91 53c-51 0 -89 -17 -89 -52s38 -52 89 -52zM644 500v-500h-156l20 206h-8c-21 -133 -95 -222 -246 -222
c-141 2 -208 81 -208 299v217h142v-200c0 -151 40 -209 137 -209c108 0 177 107 177 271v138h142z" />
    <glyph glyph-name="v" unicode="v" horiz-adv-x="790" 
d="M297 0l-264 500h151l211 -400l211 400h152l-264 -500h-197z" />
    <glyph glyph-name="w" unicode="w" horiz-adv-x="1076" 
d="M239 0l-214 500h142l160 -379l152 379h109l161 -381l161 381h141l-214 -500h-184l-118 288l-111 -288h-185z" />
    <glyph glyph-name="wacute" unicode="&#x1e83;" horiz-adv-x="1076" 
d="M509 544v80l287 186v-102zM239 0l-214 500h142l160 -379l152 379h109l161 -381l161 381h141l-214 -500h-184l-118 288l-111 -288h-185z" />
    <glyph glyph-name="wcircumflex" unicode="&#x175;" horiz-adv-x="1076" 
d="M820 555l-287 164l-287 -164v80l287 186l287 -186v-80zM910 500h141l-214 -500h-184l-118 288l-111 -288h-185l-214 500h142l160 -379l152 379h109l161 -381z" />
    <glyph glyph-name="wdieresis" unicode="&#x1e85;" horiz-adv-x="1076" 
d="M384 538c-58 0 -99 34 -99 85s41 85 99 85c64 0 99 -34 99 -85s-35 -85 -99 -85zM674 538c-58 0 -99 34 -99 85s41 85 99 85c64 0 99 -34 99 -85s-35 -85 -99 -85zM239 0l-214 500h142l160 -379l152 379h109l161 -381l161 381h141l-214 -500h-184l-118 288l-111 -288
h-185z" />
    <glyph glyph-name="wgrave" unicode="&#x1e81;" horiz-adv-x="1076" 
d="M539 544l-287 164v102l287 -186v-80zM239 0l-214 500h142l160 -379l152 379h109l161 -381l161 381h141l-214 -500h-184l-118 288l-111 -288h-185z" />
    <glyph glyph-name="x" unicode="x" horiz-adv-x="791" 
d="M26 0l271 251l-271 249h184l185 -170l187 170h183l-278 -255l266 -245h-183l-180 166l-182 -166h-182z" />
    <glyph glyph-name="y" unicode="y" horiz-adv-x="772" 
d="M214 -200l112 201l-301 499h157l210 -368l205 368h150l-384 -700h-149z" />
    <glyph glyph-name="yacute" unicode="&#xfd;" horiz-adv-x="772" 
d="M374 544v80l287 186v-102zM214 -200l112 201l-301 499h157l210 -368l205 368h150l-384 -700h-149z" />
    <glyph glyph-name="ycircumflex" unicode="&#x177;" horiz-adv-x="772" 
d="M685 555l-287 164l-287 -164v80l287 186l287 -186v-80zM597 500h150l-384 -700h-149l112 201l-301 499h157l210 -368z" />
    <glyph glyph-name="ydieresis" unicode="&#xff;" horiz-adv-x="772" 
d="M257 538c-58 0 -99 34 -99 85s41 85 99 85c64 0 99 -34 99 -85s-35 -85 -99 -85zM547 538c-58 0 -99 34 -99 85s41 85 99 85c64 0 99 -34 99 -85s-35 -85 -99 -85zM214 -200l112 201l-301 499h157l210 -368l205 368h150l-384 -700h-149z" />
    <glyph glyph-name="ygrave" unicode="&#x1ef3;" horiz-adv-x="772" 
d="M404 544l-287 164v102l287 -186v-80zM214 -200l112 201l-301 499h157l210 -368l205 368h150l-384 -700h-149z" />
    <glyph glyph-name="z" unicode="z" horiz-adv-x="716" 
d="M30 0v60l406 333h-398v107h648v-57l-404 -336h394v-107h-646z" />
    <glyph glyph-name="zacute" unicode="&#x17a;" horiz-adv-x="716" 
d="M349 544v80l287 186v-102zM30 0v60l406 333h-398v107h648v-57l-404 -336h394v-107h-646z" />
    <glyph glyph-name="zcaron" unicode="&#x17e;" horiz-adv-x="716" 
d="M660 741l-287 -186l-287 186v80l287 -164l287 164v-80zM686 500v-57l-404 -336h394v-107h-646v60l406 333h-398v107h648z" />
    <glyph glyph-name="zdotaccent" unicode="&#x17c;" horiz-adv-x="716" 
d="M373 538c-58 0 -99 34 -99 85s41 85 99 85c64 0 99 -34 99 -85s-35 -85 -99 -85zM30 0v60l406 333h-398v107h648v-57l-404 -336h394v-107h-646z" />
    <glyph glyph-name="c.001" horiz-adv-x="690" 
d="M345 -16c-181 0 -301 106 -301 266s120 266 301 266c180 0 300 -95 300 -237h-144c-7 79 -69 127 -156 127c-95 0 -159 -59 -159 -156s64 -156 159 -156c89 0 152 51 158 135h143c0 -147 -120 -245 -301 -245z" />
    <glyph glyph-name="e.001" horiz-adv-x="693" 
d="M501 175h148c-15 -118 -124 -191 -304 -191c-181 0 -301 106 -301 266s120 266 301 266c179 0 298 -91 301 -234v-75h-455c17 -71 78 -115 164 -115c78 0 135 34 146 83zM345 408c-88 0 -150 -54 -158 -138l314 6c-5 81 -65 132 -156 132z" />
    <glyph glyph-name="g.001" horiz-adv-x="775" 
d="M370 -200c-206 0 -311 76 -311 190h142c0 -55 50 -86 171 -86c165 0 204 47 204 228c-33 -89 -125 -143 -240 -143c-165 0 -281 103 -281 265c0 157 117 262 260 262c123 0 235 -60 260 -178h12l-15 162h135l1 -410c0 -200 -103 -290 -338 -290zM372 94
c94 0 179 60 179 158c0 96 -85 155 -179 155c-103 0 -178 -59 -178 -155c0 -98 75 -158 178 -158z" />
    <glyph glyph-name="uni0410" unicode="&#x410;" horiz-adv-x="1090" 
d="M33 0l426 700h172l427 -700h-164l-87 148h-524l-86 -148h-164zM352 268h386l-192 333z" />
    <glyph glyph-name="uni0411" unicode="&#x411;" horiz-adv-x="878" 
d="M588 427c135 0 235 -71 235 -213c0 -117 -90 -214 -235 -214h-500v700h645v-119h-503v-154h358zM563 117c82 0 118 29 118 97s-36 96 -118 96h-334v-193h334z" />
    <glyph glyph-name="uni0412" unicode="&#x412;" horiz-adv-x="926" 
d="M88 0v700h520c145 0 225 -78 225 -185c0 -103 -76 -152 -194 -159c131 -3 217 -61 217 -170c0 -112 -90 -186 -226 -186h-542zM230 405h343c75 0 118 25 118 86c0 63 -43 90 -118 90h-344zM231 121h364c75 0 118 28 118 94c0 63 -43 91 -118 91h-365z" />
    <glyph glyph-name="uni0413" unicode="&#x413;" horiz-adv-x="741" 
d="M88 0v700h643v-119h-501v-581h-142z" />
    <glyph glyph-name="uni0414" unicode="&#x414;" horiz-adv-x="927" 
d="M12 -103v205c66 0 107 27 111 81l45 518l622 -1v-598h117v-205h-142v103h-611v-103h-142zM242 120h406v461h-348l-33 -389c-2 -28 -11 -52 -25 -72z" />
    <glyph glyph-name="uni0415" unicode="&#x415;" horiz-adv-x="825" 
d="M88 0v700h660v-119h-518v-170h509v-111h-509v-180h518v-120h-660z" />
    <glyph glyph-name="uni0401" unicode="&#x401;" horiz-adv-x="825" 
d="M280 738c-58 0 -99 34 -99 85s41 85 99 85c64 0 99 -34 99 -85s-35 -85 -99 -85zM570 738c-58 0 -99 34 -99 85s41 85 99 85c64 0 99 -34 99 -85s-35 -85 -99 -85zM88 0v700h660v-119h-518v-170h509v-111h-509v-180h518v-120h-660z" />
    <glyph glyph-name="uni0416" unicode="&#x416;" horiz-adv-x="1313" 
d="M10 0l430 351l-427 349h201l372 -324v324h142v-324l371 324h202l-428 -349l430 -351h-204l-371 325v-325h-142v325l-372 -325h-204z" />
    <glyph glyph-name="uni0417" unicode="&#x417;" horiz-adv-x="813" 
d="M378 -16c-124 0 -255 12 -340 44v120c68 -29 216 -44 316 -44c196 0 289 26 289 82c0 77 -111 103 -567 123v82c457 18 547 52 547 114c0 64 -97 93 -270 93c-99 0 -246 -17 -315 -45v119c84 31 229 45 325 45c213 0 393 -24 393 -192c0 -172 -299 -168 -330 -168v-9
c59 -2 350 11 350 -168c0 -160 -164 -197 -398 -196z" />
    <glyph glyph-name="uni0418" unicode="&#x418;" horiz-adv-x="971" 
d="M883 0h-142v504l-523 -504h-130v700h142v-504l524 504h129v-700z" />
    <glyph glyph-name="uni0419" unicode="&#x419;" horiz-adv-x="971" 
d="M482 751c-122 0 -212 59 -213 149h105c2 -55 46 -81 108 -81c64 0 106 26 110 81h103c-1 -90 -77 -149 -213 -149zM883 0h-142v504l-523 -504h-130v700h142v-504l524 504h129v-700z" />
    <glyph glyph-name="uni041A" unicode="&#x41a;" horiz-adv-x="823" 
d="M88 0v700h142v-324l371 324h202l-428 -349l430 -351h-204l-371 324v-324h-142z" />
    <glyph glyph-name="uni041B" unicode="&#x41b;" horiz-adv-x="880" 
d="M40 -16c-10 0 -19 0 -30 1l7 80c5 0 10 -1 15 -1c56 0 87 32 91 82l47 554h620v-700h-142v581h-346l-35 -426c-10 -110 -107 -171 -227 -171z" />
    <glyph glyph-name="uni041C" unicode="&#x41c;" horiz-adv-x="1057" 
d="M88 0v700h146l295 -492l295 492h146v-700h-142v474l-286 -474h-27l-285 471v-471h-142z" />
    <glyph glyph-name="uni041D" unicode="&#x41d;" horiz-adv-x="930" 
d="M88 0v700h142v-278h471v278h142v-700h-142v302h-471v-302h-142z" />
    <glyph glyph-name="uni041E" unicode="&#x41e;" horiz-adv-x="973" 
d="M486 -16c-273 0 -442 146 -442 366s169 366 442 366c274 0 443 -146 443 -366s-169 -366 -443 -366zM486 104c183 0 301 91 301 246s-118 247 -301 247c-182 0 -300 -92 -300 -247s118 -246 300 -246z" />
    <glyph glyph-name="uni041F" unicode="&#x41f;" horiz-adv-x="825" 
d="M88 0v700h650v-700h-142v581h-366v-581h-142z" />
    <glyph glyph-name="uni0420" unicode="&#x420;" horiz-adv-x="878" 
d="M88 0v700h500c145 0 235 -97 235 -214c0 -142 -100 -213 -235 -213h-358v-273h-142zM229 390h334c82 0 118 28 118 96s-36 97 -118 97h-334v-193z" />
    <glyph glyph-name="uni0421" unicode="&#x421;" horiz-adv-x="932" 
d="M466 -16c-253 0 -422 146 -422 366s169 366 422 366s422 -128 422 -321h-144c-7 128 -118 202 -278 202c-168 0 -280 -92 -280 -247s112 -246 280 -246c161 0 272 73 278 201h144c0 -193 -169 -321 -422 -321z" />
    <glyph glyph-name="uni0422" unicode="&#x422;" horiz-adv-x="888" 
d="M373 0v581h-340v119h823v-119h-341v-581h-142z" />
    <glyph glyph-name="uni0423" unicode="&#x423;" horiz-adv-x="772" 
d="M214 -1l112 201l-301 499h157l210 -368l205 368h150l-384 -700h-149z" />
    <glyph glyph-name="uni0424" unicode="&#x424;" horiz-adv-x="715" 
d="M671 355c0 -142 -99 -242 -253 -262v-93h-122v93c-154 21 -252 120 -252 262s98 241 252 262v83h122v-83c154 -20 253 -120 253 -262zM418 206c74 20 121 75 121 149c0 75 -47 130 -121 150v-299zM176 355c0 -74 46 -129 120 -149v299c-74 -20 -120 -75 -120 -150z" />
    <glyph glyph-name="uni0425" unicode="&#x425;" horiz-adv-x="934" 
d="M48 0l323 352l-322 348h185l234 -252l233 252h185l-327 -354l319 -346h-183l-232 251l-233 -251h-182z" />
    <glyph glyph-name="uni0427" unicode="&#x427;" horiz-adv-x="707" 
d="M642 700v-700h-156l20 406h-8c-21 -133 -95 -222 -246 -222c-141 2 -208 81 -208 299v217h142v-200c0 -151 40 -209 137 -209c108 0 177 107 177 271v138h142z" />
    <glyph glyph-name="uni0426" unicode="&#x426;" horiz-adv-x="820" 
d="M665 -103v103h-575v700h142v-580h311v580h142v-580h122v-223h-142z" />
    <glyph glyph-name="uni0428" unicode="&#x428;" horiz-adv-x="1138" 
d="M90 0v700h142v-580h266v580h142v-580h266v580h142v-700h-958z" />
    <glyph glyph-name="uni0429" unicode="&#x429;" horiz-adv-x="1183" 
d="M1028 -103v103h-938v700h142v-580h266v580h142v-580h266v580h142v-580h122v-223h-142z" />
    <glyph glyph-name="uni042C" unicode="&#x42c;" horiz-adv-x="878" 
d="M88 700h142v-273h358c135 0 235 -71 235 -213c0 -117 -90 -214 -235 -214h-500v700zM229 310v-193h334c82 0 118 29 118 97s-36 96 -118 96h-334z" />
    <glyph glyph-name="uni042A" unicode="&#x42a;" horiz-adv-x="878" 
d="M588 427c135 0 235 -71 235 -213c0 -117 -90 -214 -235 -214h-500v598h-117v102h259v-273h358zM563 117c82 0 118 29 118 97s-36 96 -118 96h-334v-193h334z" />
    <glyph glyph-name="uni042B" unicode="&#x42b;" horiz-adv-x="1195" 
d="M88 700h142v-273h358c135 0 235 -71 235 -213c0 -117 -90 -214 -235 -214h-500v700zM963 0v700h142v-700h-142zM229 310v-193h334c82 0 118 29 118 97s-36 96 -118 96h-334z" />
    <glyph glyph-name="uni042D" unicode="&#x42d;" horiz-adv-x="932" 
d="M466 716c253 0 422 -146 422 -366s-169 -366 -422 -366s-422 128 -422 321h144c6 -128 117 -201 278 -201c145 0 248 67 274 185h-359v120h359c-25 119 -129 188 -274 188c-160 0 -271 -74 -278 -202h-144c0 193 169 321 422 321z" />
    <glyph glyph-name="uni042E" unicode="&#x42e;" horiz-adv-x="1343" 
d="M856 716c274 0 443 -146 443 -366s-169 -366 -443 -366c-247 0 -409 119 -437 305h-187v-289h-142v700h142v-291h186c28 187 190 307 438 307zM856 104c183 0 301 91 301 246s-118 247 -301 247c-182 0 -300 -92 -300 -247s118 -246 300 -246z" />
    <glyph glyph-name="uni042F" unicode="&#x42f;" horiz-adv-x="941" 
d="M853 0h-142l1 297h-228c-125 0 -157 -64 -287 -297h-170c120 228 185 328 350 339h-74c-135 0 -225 64 -225 176c0 107 80 185 225 185h550v-700zM712 413l1 170h-375c-82 0 -118 -27 -118 -89c0 -51 35 -81 118 -81h374z" />
    <glyph glyph-name="uni0430" unicode="&#x430;" horiz-adv-x="679" 
d="M230 -16c-74 0 -186 16 -186 132c0 148 285 166 447 180c-1 79 -45 107 -145 107c-78 0 -172 -26 -239 -55v114c84 31 191 54 279 54c179 0 247 -94 247 -234v-282h-140l27 179h-9c-30 -137 -128 -195 -281 -195zM287 84c100 0 201 47 202 140
c-116 -10 -297 -14 -297 -86c0 -34 37 -54 95 -54z" />
    <glyph glyph-name="uni0431" unicode="&#x431;" horiz-adv-x="864" 
d="M454 -12c-245 0 -410 119 -410 374c0 232 179 353 439 353c117 0 193 -5 283 20v-133c-80 -26 -188 -7 -294 -7c-180 0 -286 -91 -286 -253c63 56 176 118 315 118c221 0 319 -102 319 -238c0 -141 -133 -234 -366 -234zM445 108c149 0 232 33 232 122
c0 80 -67 123 -201 123c-93 0 -219 -40 -275 -103c30 -98 108 -142 244 -142z" />
    <glyph glyph-name="uni0432" unicode="&#x432;" horiz-adv-x="801" 
d="M90 0v500h425c158 0 225 -40 225 -135c0 -70 -55 -104 -184 -109c144 -3 207 -39 207 -120c0 -95 -68 -136 -226 -136h-447zM232 295h228c97 0 138 15 138 49c0 38 -41 54 -138 54h-229zM233 103h249c97 0 138 18 138 59c0 35 -41 54 -138 54h-250z" />
    <glyph glyph-name="uni0433" unicode="&#x433;" horiz-adv-x="580" 
d="M90 0v500h473v-119h-331v-381h-142z" />
    <glyph glyph-name="uni0434" unicode="&#x434;" horiz-adv-x="837" 
d="M12 -103v205c66 0 107 27 111 81l30 343h547v-424h117v-205h-142v103h-521v-103h-142zM242 120h316v287h-273l-18 -215c-2 -28 -11 -52 -25 -72z" />
    <glyph glyph-name="uni0435" unicode="&#x435;" horiz-adv-x="690" 
d="M345 -16c-181 0 -301 106 -301 266s120 266 301 266c179 0 298 -91 301 -227v-82h-466c16 -82 83 -115 215 -115c122 0 172 31 229 55v-114c-97 -37 -153 -49 -279 -49zM177 276l334 8c-4 90 -58 123 -166 123c-105 0 -159 -36 -168 -131z" />
    <glyph glyph-name="uni0451" unicode="&#x451;" horiz-adv-x="690" 
d="M204 538c-58 0 -99 34 -99 85s41 85 99 85c64 0 99 -34 99 -85s-35 -85 -99 -85zM494 538c-58 0 -99 34 -99 85s41 85 99 85c64 0 99 -34 99 -85s-35 -85 -99 -85zM345 -16c-181 0 -301 106 -301 266s120 266 301 266c179 0 298 -91 301 -227v-82h-466
c16 -82 83 -115 215 -115c122 0 172 31 229 55v-114c-97 -37 -153 -49 -279 -49zM177 276l334 8c-4 90 -58 123 -166 123c-105 0 -159 -36 -168 -131z" />
    <glyph glyph-name="uni0436" unicode="&#x436;" horiz-adv-x="1193" 
d="M10 0l397 251l-387 249h204l301 -203l1 203h142v-203l301 203h204l-387 -249l397 -251h-214l-301 203v-203h-142v203l-302 -203h-214z" />
    <glyph glyph-name="uni0437" unicode="&#x437;" horiz-adv-x="818" 
d="M385 -15c-125 0 -259 12 -345 44v120c68 -29 216 -44 316 -44c220 0 282 11 282 39c0 43 -112 55 -560 75v65c432 16 540 27 540 67c0 32 -57 45 -263 45c-99 0 -246 -17 -315 -45v119c84 31 229 45 325 45c213 0 393 -24 393 -129c0 -132 -299 -128 -330 -128v-9
c59 -2 350 11 350 -121c0 -107 -161 -143 -393 -143z" />
    <glyph glyph-name="uni0438" unicode="&#x438;" horiz-adv-x="868" 
d="M90 0v500h142v-347l417 347h129v-500h-142v348l-416 -348h-130z" />
    <glyph glyph-name="uni0439" unicode="&#x439;" horiz-adv-x="868" 
d="M439 551c-122 0 -212 59 -213 149h105c2 -55 46 -81 108 -81c64 0 106 26 110 81h103c-1 -90 -77 -149 -213 -149zM90 0v500h142v-347l417 347h129v-500h-142v348l-416 -348h-130z" />
    <glyph glyph-name="uni043A" unicode="&#x43a;" horiz-adv-x="750" 
d="M88 0v500h142v-203l301 203h204l-387 -249l397 -251h-214l-301 203v-203h-142z" />
    <glyph glyph-name="uni043B" unicode="&#x43b;" horiz-adv-x="715" 
d="M47 -13c-10 0 -19 0 -30 1l-3 80c66 0 102 27 106 81l30 351h527v-500h-142v381h-253l-18 -223c-10 -110 -99 -171 -217 -171z" />
    <glyph glyph-name="uni043C" unicode="&#x43c;" horiz-adv-x="982" 
d="M90 0v500h151l250 -322l250 322h151v-500h-142v306l-248 -306h-22l-248 310v-310h-142z" />
    <glyph glyph-name="uni043D" unicode="&#x43d;" horiz-adv-x="855" 
d="M90 0v500h142v-179h391v179h142v-500h-142v201h-391v-201h-142z" />
    <glyph glyph-name="uni043E" unicode="&#x43e;" horiz-adv-x="715" 
d="M357 -16c-188 0 -313 106 -313 266s125 266 313 266c189 0 314 -106 314 -266s-125 -266 -314 -266zM357 94c109 0 182 63 182 156c0 94 -73 157 -182 157c-108 0 -181 -63 -181 -157c0 -93 73 -156 181 -156z" />
    <glyph glyph-name="uni043F" unicode="&#x43f;" horiz-adv-x="790" 
d="M88 0v500h615v-500h-142v378h-331v-378h-142z" />
    <glyph glyph-name="uni0440" unicode="&#x440;" horiz-adv-x="775" 
d="M473 516c142 0 258 -108 258 -270c0 -157 -117 -262 -260 -262c-123 0 -236 60 -260 178h-4v-362h-142v700h146l-22 -163h12c24 120 145 179 272 179zM414 406c-95 0 -179 -60 -179 -158c0 -96 84 -155 179 -155c103 0 178 59 178 155c0 98 -75 158 -178 158z" />
    <glyph glyph-name="uni0441" unicode="&#x441;" horiz-adv-x="624" 
d="M350 -16c-181 0 -306 106 -306 266c0 161 118 266 307 266c90 0 149 -18 229 -54v-117c-71 40 -134 62 -203 62c-128 0 -194 -45 -194 -157s68 -156 197 -156c76 0 138 19 200 58v-114c-81 -36 -131 -54 -230 -54z" />
    <glyph glyph-name="uni0442" unicode="&#x442;" horiz-adv-x="728" 
d="M294 0v381h-261v119h663v-119h-260v-381h-142z" />
    <glyph glyph-name="uni0443" unicode="&#x443;" horiz-adv-x="772" 
d="M214 -200l112 201l-301 499h157l210 -368l205 368h150l-384 -700h-149z" />
    <glyph glyph-name="uni0444" unicode="&#x444;" horiz-adv-x="715" 
d="M671 250c0 -142 -99 -242 -253 -262v-84h-122v84c-154 21 -252 120 -252 262s98 241 252 262v92h122v-92c154 -20 253 -120 253 -262zM418 101c74 20 121 75 121 149c0 75 -47 130 -121 150v-299zM176 250c0 -74 46 -129 120 -149v299c-74 -20 -120 -75 -120 -150z" />
    <glyph glyph-name="uni0445" unicode="&#x445;" horiz-adv-x="791" 
d="M26 0l271 251l-271 249h184l185 -170l187 170h183l-278 -255l266 -245h-183l-180 166l-182 -166h-182z" />
    <glyph glyph-name="uni0447" unicode="&#x447;" horiz-adv-x="707" 
d="M486 0l15 314h-3c-21 -133 -95 -222 -246 -222c-141 2 -208 81 -208 299v109h142v-92c0 -151 40 -209 137 -209c108 0 177 106 177 271v30h142v-500h-156z" />
    <glyph glyph-name="uni0446" unicode="&#x446;" horiz-adv-x="785" 
d="M630 -103v103h-540v500h142v-380h276v380h142v-380h122v-223h-142z" />
    <glyph glyph-name="uni0448" unicode="&#x448;" horiz-adv-x="1113" 
d="M90 0v500h142v-380h254v380h142v-380h253v380h142v-500h-933z" />
    <glyph glyph-name="uni0449" unicode="&#x449;" horiz-adv-x="1158" 
d="M1003 -103v103h-913v500h142v-380h254v380h142v-380h253v380h142v-380h122v-223h-142z" />
    <glyph glyph-name="uni044C" unicode="&#x44c;" horiz-adv-x="840" 
d="M88 0v700h142v-273h318c135 0 235 -71 235 -213c0 -117 -90 -214 -235 -214h-460zM230 117h293c82 0 118 29 118 97s-36 96 -118 96h-293v-193z" />
    <glyph glyph-name="uni044A" unicode="&#x44a;" horiz-adv-x="840" 
d="M88 0v581h-118v119h260v-273h318c135 0 235 -71 235 -213c0 -117 -90 -214 -235 -214h-460zM230 117h293c82 0 118 29 118 97s-36 96 -118 96h-293v-193z" />
    <glyph glyph-name="uni044B" unicode="&#x44b;" horiz-adv-x="1158" 
d="M90 0v700h142v-273h318c135 0 235 -71 235 -213c0 -117 -90 -214 -235 -214h-460zM926 0v700h142v-700h-142zM232 117h293c82 0 118 29 118 97s-36 96 -118 96h-293v-193z" />
    <glyph glyph-name="uni044D" unicode="&#x44d;" horiz-adv-x="624" 
d="M273 516c189 0 307 -105 307 -266c0 -160 -125 -266 -306 -266c-99 0 -149 18 -230 54v114c62 -39 124 -58 200 -58c107 0 172 30 191 105h-263v102h263c-18 75 -82 106 -188 106c-69 0 -132 -22 -203 -62v117c80 36 139 54 229 54z" />
    <glyph glyph-name="uni044E" unicode="&#x44e;" horiz-adv-x="1008" 
d="M617 516c189 0 314 -106 314 -266s-125 -266 -314 -266c-163 0 -279 80 -307 206h-88v-190h-142v500h142v-190h88c28 126 144 206 307 206zM617 94c109 0 182 63 182 156c0 94 -73 157 -182 157c-108 0 -181 -63 -181 -157c0 -93 73 -156 181 -156z" />
    <glyph glyph-name="uni044F" unicode="&#x44f;" horiz-adv-x="811" 
d="M30 0c117 147 183 192 333 199h-57c-158 0 -225 44 -225 149c0 97 67 137 225 137h415v-485h-142l1 162h-113c-110 0 -144 -9 -274 -162h-163zM361 270h219l1 108h-220c-97 0 -138 -12 -138 -49c0 -45 41 -59 138 -59z" />
    <glyph glyph-name="zero" unicode="0" horiz-adv-x="973" 
d="M486 -16c-273 0 -442 146 -442 366s169 366 442 366c274 0 443 -146 443 -366s-169 -366 -443 -366zM486 104c183 0 301 91 301 246s-118 247 -301 247c-182 0 -300 -92 -300 -247s118 -246 300 -246z" />
    <glyph glyph-name="one" unicode="1" horiz-adv-x="606" 
d="M376 0v567l-336 -216v141l396 208h82v-700h-142z" />
    <glyph glyph-name="two" unicode="2" horiz-adv-x="850" 
d="M47 0v87c252 126 622 282 622 400c0 78 -69 108 -252 108c-101 0 -288 -23 -329 -39v124c59 19 235 35 356 35c241 0 368 -42 368 -201c0 -176 -320 -321 -543 -394h513v-120h-735z" />
    <glyph glyph-name="three" unicode="3" horiz-adv-x="813" 
d="M378 -16c-124 0 -255 12 -340 44v120c68 -29 216 -44 316 -44c196 0 289 26 289 82c0 77 -111 103 -567 123v82c457 18 547 52 547 114c0 64 -97 93 -270 93c-99 0 -246 -17 -315 -45v119c84 31 229 45 325 45c213 0 393 -24 393 -192c0 -172 -299 -168 -330 -168v-9
c59 -2 350 11 350 -168c0 -160 -164 -197 -398 -196z" />
    <glyph glyph-name="four" unicode="4" horiz-adv-x="873" 
d="M605 0v124h-587v89l502 487h227l-1 -457l105 1v-120h-104v-124h-142zM189 243l416 1v410z" />
    <glyph glyph-name="five" unicode="5" horiz-adv-x="817" 
d="M355 -16c-89 0 -252 15 -317 41v129c54 -25 219 -50 314 -50c187 0 276 37 276 130c0 79 -73 107 -217 107c-145 0 -261 -38 -334 -63v422h655v-119h-545l-1 -169c85 29 176 42 269 42c152 0 315 -35 315 -228c0 -155 -169 -242 -415 -242z" />
    <glyph glyph-name="six" unicode="6" horiz-adv-x="864" 
d="M454 -12c-245 0 -410 119 -410 374c0 232 179 353 439 353c123 0 208 -21 283 -58v-132c-83 46 -172 70 -294 70c-167 0 -286 -90 -286 -233v-20c63 56 176 118 315 118c221 0 319 -102 319 -238c0 -141 -133 -234 -366 -234zM445 108c149 0 232 33 232 122
c0 80 -67 123 -201 123c-93 0 -219 -40 -275 -103c30 -98 108 -142 244 -142z" />
    <glyph glyph-name="seven" unicode="7" horiz-adv-x="819" 
d="M140 0l464 581h-590v119h787v-59l-477 -641h-184z" />
    <glyph glyph-name="eight" unicode="8" horiz-adv-x="851" 
d="M435 -20c-231 -1 -397 59 -397 203c0 118 132 151 226 161c-85 15 -206 59 -206 177c0 126 142 192 368 192c202 0 368 -62 368 -192c0 -118 -122 -162 -207 -177c94 -10 227 -43 227 -161c0 -128 -158 -204 -379 -203zM426 404c169 0 225 33 225 95c0 61 -96 97 -225 97
s-225 -36 -225 -97c0 -62 52 -95 225 -95zM426 97c150 0 245 34 245 96c0 61 -63 93 -245 93c-183 0 -245 -32 -245 -93c0 -62 94 -96 245 -96z" />
    <glyph glyph-name="nine" unicode="9" horiz-adv-x="864" 
d="M410 714c245 0 410 -119 410 -374c0 -232 -179 -353 -439 -353c-123 0 -208 21 -283 58v132c83 -46 172 -70 294 -70c167 0 286 90 286 233v20c-63 -56 -176 -118 -315 -118c-221 0 -319 102 -319 238c0 141 133 234 366 234zM419 594c-149 0 -232 -33 -232 -122
c0 -80 67 -123 201 -123c93 0 219 40 275 103c-30 98 -108 142 -244 142z" />
    <glyph glyph-name="zero.tf" horiz-adv-x="953" 
d="M476 -16c-273 0 -432 146 -432 366s164 366 432 366c274 0 433 -143 433 -366c0 -220 -159 -366 -433 -366zM477 11c273 0 405 144 405 341c0 196 -135 337 -405 337c-262 0 -406 -144 -406 -341c0 -196 147 -337 406 -337zM477 123c-170 0 -275 91 -275 227
c0 137 105 228 275 228s275 -91 275 -228c0 -136 -105 -227 -275 -227zM477 198c113 0 187 56 187 152c0 97 -74 154 -187 154s-187 -57 -187 -154c0 -96 74 -152 187 -152z" />
    <glyph glyph-name="one.tf" horiz-adv-x="953" 
d="M476 -16c-273 0 -432 146 -432 366s164 366 432 366c274 0 433 -143 433 -366c0 -220 -159 -366 -433 -366zM476 11c273 0 405 144 405 341c0 196 -135 337 -405 337c-262 0 -406 -144 -406 -341c0 -196 147 -337 406 -337zM462 133v352l-208 -134v87l246 130h51v-435
h-89z" />
    <glyph glyph-name="two.tf" horiz-adv-x="953" 
d="M476 -16c-273 0 -432 146 -432 366c0 218 164 366 432 366c274 0 433 -143 433 -366c0 -220 -159 -366 -433 -366zM477 11c273 0 405 144 405 341c0 196 -135 337 -405 337c-262 0 -406 -144 -406 -341c0 -196 147 -337 406 -337zM250 136v54c157 78 386 175 386 248
c0 49 -42 67 -156 67c-63 0 -179 -14 -204 -24v77c36 12 146 22 221 22c149 0 228 -26 228 -125c0 -109 -199 -199 -337 -244h319v-75h-457z" />
    <glyph glyph-name="three.tf" horiz-adv-x="953" 
d="M476 -16c-273 0 -432 146 -432 366c0 218 164 366 432 366c274 0 433 -143 433 -366c0 -220 -159 -366 -433 -366zM476 11c273 0 405 144 405 341c0 196 -135 337 -405 337c-262 0 -406 -144 -406 -341c0 -196 147 -337 406 -337zM487 123c-77 0 -159 8 -211 27v75
c42 -18 134 -27 196 -27c121 0 179 16 179 50c0 48 -69 64 -352 77v51c284 11 340 32 340 71s-60 57 -168 57c-61 0 -153 -10 -195 -28v74c52 19 142 28 201 28c133 0 244 -15 244 -119c0 -107 -185 -104 -204 -104v-6c36 -1 217 7 217 -104c0 -100 -102 -123 -247 -122z
" />
    <glyph glyph-name="four.tf" horiz-adv-x="953" 
d="M476 -16c-273 0 -432 146 -432 366c0 218 164 366 432 366c274 0 433 -143 433 -366c0 -220 -159 -366 -433 -366zM476 11c273 0 405 144 405 341c0 196 -135 337 -405 337c-262 0 -406 -144 -406 -341c0 -196 147 -337 406 -337zM558 133v77h-365v55l312 303h141
l-1 -284h65v-74h-64v-77h-88zM299 284h259v255z" />
    <glyph glyph-name="five.tf" horiz-adv-x="953" 
d="M476 -16c-273 0 -432 146 -432 366c0 218 164 366 432 366c274 0 433 -143 433 -366c0 -220 -159 -366 -433 -366zM477 11c273 0 405 144 405 341c0 196 -135 337 -405 337c-262 0 -406 -144 -406 -341c0 -196 147 -337 406 -337zM463 119c-55 0 -156 9 -196 26v80
c33 -16 136 -31 195 -31c116 0 171 23 171 80c0 49 -45 67 -135 67s-162 -24 -207 -39v262h406v-74h-338l-1 -105c53 18 110 26 168 26c94 0 195 -22 195 -142c0 -96 -105 -150 -258 -150z" />
    <glyph glyph-name="six.tf" horiz-adv-x="953" 
d="M476 -16c-273 0 -432 146 -432 366c0 218 164 366 432 366c274 0 433 -143 433 -366c0 -220 -159 -366 -433 -366zM477 11c273 0 405 144 405 341c0 196 -135 337 -405 337c-262 0 -406 -144 -406 -341c0 -196 147 -337 406 -337zM482 126c-152 0 -255 73 -255 232
c0 144 111 219 273 219c76 0 129 -13 176 -36v-82c-52 29 -107 43 -183 43c-104 0 -178 -55 -178 -144v-13c40 35 110 74 196 74c137 0 198 -64 198 -148c0 -88 -82 -145 -227 -145zM476 200c93 0 144 21 144 76c0 49 -41 76 -124 76c-58 0 -136 -25 -171 -64
c18 -61 67 -88 151 -88z" />
    <glyph glyph-name="seven.tf" horiz-adv-x="953" 
d="M476 -16c-273 0 -432 146 -432 366c0 218 164 366 432 366c274 0 433 -143 433 -366c0 -220 -159 -366 -433 -366zM476 11c273 0 405 144 405 341c0 196 -135 337 -405 337c-262 0 -406 -144 -406 -341c0 -196 147 -337 406 -337zM337 133l288 361h-366v74h488v-37
l-296 -398h-114z" />
    <glyph glyph-name="eight.tf" horiz-adv-x="953" 
d="M476 -16c-273 0 -432 146 -432 366c0 218 164 366 432 366c274 0 433 -143 433 -366c0 -220 -159 -366 -433 -366zM477 11c273 0 405 144 405 341c0 196 -135 337 -405 337c-262 0 -406 -144 -406 -341c0 -196 147 -337 406 -337zM473 120c-143 -1 -246 36 -246 126
c0 73 82 93 140 100c-53 9 -128 36 -128 109c0 79 88 120 229 120c125 0 228 -39 228 -120c0 -73 -76 -100 -129 -109c59 -7 141 -27 141 -100c0 -80 -98 -127 -235 -126zM468 383c104 0 139 20 139 59c0 38 -59 60 -139 60c-81 0 -140 -22 -140 -60c0 -39 32 -59 140 -59z
M468 192c93 0 152 21 152 60c0 38 -39 58 -152 58c-114 0 -153 -20 -153 -58c0 -39 59 -60 153 -60z" />
    <glyph glyph-name="nine.tf" horiz-adv-x="953" 
d="M476 -16c-273 0 -432 146 -432 366c0 218 164 366 432 366c274 0 433 -143 433 -366c0 -220 -159 -366 -433 -366zM477 11c273 0 405 144 405 341c0 196 -135 337 -405 337c-262 0 -406 -144 -406 -341c0 -196 147 -337 406 -337zM485 576c152 0 254 -74 254 -232
c0 -144 -111 -219 -272 -219c-77 0 -130 13 -176 36v82c51 -29 107 -44 182 -44c104 0 178 56 178 145v13c-39 -35 -109 -74 -196 -74c-137 0 -198 64 -198 148c0 88 83 145 228 145zM490 502c-92 0 -144 -21 -144 -76c0 -50 42 -76 125 -76c58 0 136 25 171 64
c-19 60 -67 88 -152 88z" />
    <glyph glyph-name="fraction" unicode="&#x2044;" horiz-adv-x="1053" 
d="M40 -100l832 900h141l-832 -900h-141z" />
    <glyph glyph-name="onehalf" unicode="&#xbd;" horiz-adv-x="1734" 
d="M419 -22l688 744h116l-687 -744h-117zM290 161v387l-230 -147v96l271 142h56v-478h-97zM1171 61v59c172 86 425 193 425 274c0 53 -47 73 -172 73c-69 0 -197 -15 -225 -26v84c40 13 161 24 243 24c165 0 252 -28 252 -137c0 -120 -219 -219 -371 -269h350v-82h-502z" />
    <glyph glyph-name="onequarter" unicode="&#xbc;" horiz-adv-x="1603" 
d="M420 -22l688 744h116l-687 -744h-117zM290 161v387l-230 -147v96l271 142h56v-478h-97zM1366 61v85h-401v60l343 333h155v-312l71 1v-82h-71v-85h-97zM1082 227l284 1v280z" />
    <glyph glyph-name="threequarters" unicode="&#xbe;" horiz-adv-x="1610" 
d="M427 -22l688 744h116l-687 -744h-117zM278 150c-85 0 -174 8 -232 30v82c46 -20 147 -30 216 -30c134 0 197 18 197 56c0 53 -76 70 -387 84v56c312 12 374 36 374 78c0 44 -67 63 -185 63c-68 0 -168 -11 -215 -30v81c57 21 156 31 222 31c145 0 268 -17 268 -131
c0 -118 -204 -115 -225 -115v-6c40 -2 239 7 239 -115c0 -109 -112 -135 -272 -134zM1373 58v85h-401v60l343 333h155v-312l71 1v-82h-71v-85h-97zM1089 224l284 1v280z" />
    <glyph glyph-name="oneeighth" unicode="&#x215b;" horiz-adv-x="1704" 
d="M420 -22l688 744h116l-687 -744h-117zM290 161v387l-230 -147v96l271 142h56v-478h-97zM1390 47c-158 0 -271 41 -271 139c0 81 90 103 154 110c-58 10 -140 40 -140 121c0 86 97 131 251 131c138 0 251 -42 251 -131c0 -81 -83 -111 -141 -121c64 -7 155 -29 155 -110
c0 -87 -108 -139 -259 -139zM1384 337c115 0 154 22 154 65c0 41 -66 66 -154 66s-154 -25 -154 -66c0 -43 36 -65 154 -65zM1384 127c102 0 167 23 167 66c0 41 -43 63 -167 63c-125 0 -167 -22 -167 -63c0 -43 64 -66 167 -66z" />
    <glyph glyph-name="threeeighths" unicode="&#x215c;" horiz-adv-x="1711" 
d="M416 -22l688 744h116l-687 -744h-117zM278 150c-85 0 -174 8 -232 30v82c46 -20 147 -30 216 -30c134 0 197 18 197 56c0 53 -76 70 -387 84v56c312 12 374 36 374 78c0 44 -67 63 -185 63c-68 0 -168 -11 -215 -30v81c57 21 156 31 222 31c145 0 268 -17 268 -131
c0 -118 -204 -115 -225 -115v-6c40 -2 239 7 239 -115c0 -109 -112 -135 -272 -134zM1397 44c-158 0 -271 41 -271 139c0 81 90 103 154 110c-58 10 -140 40 -140 121c0 86 97 131 251 131c138 0 251 -42 251 -131c0 -81 -83 -111 -141 -121c64 -7 155 -29 155 -110
c0 -87 -108 -139 -259 -139zM1391 334c115 0 154 22 154 65c0 41 -66 66 -154 66s-154 -25 -154 -66c0 -43 36 -65 154 -65zM1391 124c102 0 167 23 167 66c0 41 -43 63 -167 63c-125 0 -167 -22 -167 -63c0 -43 64 -66 167 -66z" />
    <glyph glyph-name="fiveeighths" unicode="&#x215d;" horiz-adv-x="1751" 
d="M460 -22l688 744h116l-687 -744h-117zM262 147c-60 0 -172 10 -216 28v88c37 -17 150 -34 214 -34c128 0 189 25 189 89c0 54 -50 73 -148 73c-99 0 -179 -26 -228 -43v288h447v-81h-372l-1 -116c58 20 120 29 184 29c104 0 215 -24 215 -156c0 -106 -116 -165 -284 -165
zM1437 44c-158 0 -271 41 -271 139c0 81 90 103 154 110c-58 10 -140 40 -140 121c0 86 97 131 251 131c138 0 251 -42 251 -131c0 -81 -83 -111 -141 -121c64 -7 155 -29 155 -110c0 -87 -108 -139 -259 -139zM1431 334c115 0 154 22 154 65c0 41 -66 66 -154 66
s-154 -25 -154 -66c0 -43 36 -65 154 -65zM1431 124c102 0 167 23 167 66c0 41 -43 63 -167 63c-125 0 -167 -22 -167 -63c0 -43 64 -66 167 -66z" />
    <glyph glyph-name="seveneighths" unicode="&#x215e;" horiz-adv-x="1618" 
d="M314 -22l688 744h116l-687 -744h-117zM116 158l317 397h-403v81h537v-40l-326 -438h-125zM1304 44c-158 0 -271 41 -271 139c0 81 90 103 154 110c-58 10 -140 40 -140 121c0 86 97 131 251 131c138 0 251 -42 251 -131c0 -81 -83 -111 -141 -121c64 -7 155 -29 155 -110
c0 -87 -108 -139 -259 -139zM1298 334c115 0 154 22 154 65c0 41 -66 66 -154 66s-154 -25 -154 -66c0 -43 36 -65 154 -65zM1298 124c102 0 167 23 167 66c0 41 -43 63 -167 63c-125 0 -167 -22 -167 -63c0 -43 64 -66 167 -66z" />
    <glyph glyph-name="asterisk" unicode="*" horiz-adv-x="615" 
d="M248 194l33 195l-128 -158l-83 75l174 117l-214 -30v108l214 -30l-174 117l83 76l128 -159l-33 195h118l-32 -195l128 159l83 -76l-175 -117l215 30v-108l-215 30l175 -117l-83 -75l-128 158l32 -195h-118z" />
    <glyph glyph-name="backslash" unicode="\" horiz-adv-x="1033" 
d="M862 0l-832 700h141l832 -700h-141z" />
    <glyph glyph-name="periodcentered" unicode="&#xb7;" horiz-adv-x="255" 
d="M127 231c-46 0 -82 32 -82 78c0 45 36 77 82 77c47 0 83 -32 83 -77c0 -46 -34 -78 -83 -78z" />
    <glyph glyph-name="bullet" unicode="&#x2022;" horiz-adv-x="568" 
d="M283 62c-120 0 -214 83 -214 204c0 117 94 201 214 201c122 0 216 -84 216 -201c0 -121 -88 -204 -216 -204z" />
    <glyph glyph-name="colon" unicode=":" horiz-adv-x="305" 
d="M127 291c-46 0 -82 32 -82 78c0 45 36 77 82 77c47 0 83 -32 83 -77c0 -46 -34 -78 -83 -78zM127 -15c-46 0 -82 32 -82 78c0 45 36 77 82 77c47 0 83 -32 83 -77c0 -46 -34 -78 -83 -78z" />
    <glyph glyph-name="comma" unicode="," horiz-adv-x="248" 
d="M30 -169l63 270h125l-113 -270h-75z" />
    <glyph glyph-name="ellipsis" unicode="&#x2026;" horiz-adv-x="905" 
d="M127 -15c-46 0 -82 32 -82 78c0 45 36 77 82 77c47 0 83 -32 83 -77c0 -46 -34 -78 -83 -78zM427 -15c-46 0 -82 32 -82 78c0 45 36 77 82 77c47 0 83 -32 83 -77c0 -46 -34 -78 -83 -78zM727 -15c-46 0 -82 32 -82 78c0 45 36 77 82 77c47 0 83 -32 83 -77
c0 -46 -34 -78 -83 -78z" />
    <glyph glyph-name="exclam" unicode="!" horiz-adv-x="280" 
d="M72 294l-10 406h157l-10 -406h-137zM137 -15c-46 0 -82 32 -82 78c0 45 36 77 82 77c47 0 83 -32 83 -77c0 -46 -34 -78 -83 -78z" />
    <glyph glyph-name="exclamdown" unicode="&#xa1;" horiz-adv-x="275" 
d="M137 522c49 0 83 -32 83 -78c0 -45 -36 -77 -83 -77c-46 0 -82 32 -82 77c0 46 36 78 82 78zM72 213h137l10 -406h-157z" />
    <glyph glyph-name="numbersign" unicode="#" horiz-adv-x="1009" 
d="M964 403h-152l-27 -123h159l-15 -97h-165l-39 -183h-141l39 183h-287l-39 -183h-141l39 183h-165l15 97h171l27 123h-178l15 97h184l43 200h141l-43 -200h287l43 200h141l-43 -200h146zM644 280l27 123h-287l-27 -123h287z" />
    <glyph glyph-name="period" unicode="." horiz-adv-x="255" 
d="M127 -15c-46 0 -82 32 -82 78c0 45 36 77 82 77c47 0 83 -32 83 -77c0 -46 -34 -78 -83 -78z" />
    <glyph glyph-name="question" unicode="?" horiz-adv-x="728" 
d="M219 232c-1 8 -1 14 -1 21c0 196 297 125 297 241c0 83 -57 101 -260 101c-67 0 -170 -10 -245 -21v123c82 11 196 18 280 18c244 0 368 -44 368 -209c0 -239 -336 -145 -336 -274h-103zM269 -15c-46 0 -82 32 -82 78c0 45 36 77 82 77c47 0 83 -32 83 -77
c0 -46 -34 -78 -83 -78z" />
    <glyph glyph-name="questiondown" unicode="&#xbf;" horiz-adv-x="742" 
d="M443 522c46 0 82 -32 82 -78c0 -45 -36 -77 -82 -77c-47 0 -83 32 -83 77c0 46 34 78 83 78zM493 275c1 -8 1 -14 1 -21c0 -196 -297 -125 -297 -241c0 -83 57 -101 260 -101c67 0 170 10 245 21v-123c-82 -11 -196 -18 -280 -18c-244 0 -368 44 -368 209
c0 239 336 145 336 274h103z" />
    <glyph glyph-name="quotedbl" unicode="&#x22;" horiz-adv-x="380" 
d="M47 430l-17 270h133l-33 -270h-83zM235 430l-17 270h132l-33 -270h-82z" />
    <glyph glyph-name="quotesingle" unicode="'" horiz-adv-x="193" 
d="M47 430l-17 270h133l-33 -270h-83z" />
    <glyph glyph-name="semicolon" unicode=";" horiz-adv-x="293" 
d="M149 291c-46 0 -82 32 -82 78c0 45 36 77 82 77c47 0 83 -32 83 -77c0 -46 -34 -78 -83 -78zM30 -169l63 270h125l-113 -270h-75z" />
    <glyph glyph-name="slash" unicode="/" horiz-adv-x="1033" 
d="M30 0l832 700h141l-832 -700h-141z" />
    <glyph glyph-name="underscore" unicode="_" horiz-adv-x="1060" 
d="M30 0v113h1000v-113h-1000z" />
    <glyph glyph-name="braceleft" unicode="{" horiz-adv-x="690" 
d="M660 -80c-300 0 -350 65 -350 203c0 127 -94 192 -280 192v68c187 3 242 74 242 185c0 142 46 209 351 209v-61c-161 0 -237 -32 -237 -148c0 -99 4 -189 -168 -218c162 -9 205 -99 205 -227c0 -111 82 -142 237 -142v-61z" />
    <glyph glyph-name="braceright" unicode="}" horiz-adv-x="705" 
d="M45 -80v61c155 0 237 31 237 142c0 128 43 218 205 227c-172 29 -168 119 -168 218c0 116 -76 148 -237 148v61c305 0 351 -67 351 -209c0 -111 55 -182 242 -185v-68c-186 0 -280 -65 -280 -192c0 -138 -50 -203 -350 -203z" />
    <glyph glyph-name="bracketleft" unicode="[" horiz-adv-x="513" 
d="M483 618h-311v-726h311v-82h-453v890h453v-82z" />
    <glyph glyph-name="bracketright" unicode="]" horiz-adv-x="513" 
d="M483 700v-890h-453v82h311v726h-311v82h453z" />
    <glyph glyph-name="parenleft" unicode="(" horiz-adv-x="470" 
d="M420 -137c-234 1 -370 196 -370 487s136 486 370 487v-116c-153 -1 -255 -149 -255 -371s102 -370 255 -371v-116z" />
    <glyph glyph-name="parenright" unicode=")" horiz-adv-x="470" 
d="M50 -137v116c157 1 256 140 256 371s-99 370 -256 371v116c234 -1 370 -196 370 -487s-136 -486 -370 -487z" />
    <glyph glyph-name="emdash" unicode="&#x2014;" horiz-adv-x="1060" 
d="M30 274v113h1000v-113h-1000z" />
    <glyph glyph-name="endash" unicode="&#x2013;" horiz-adv-x="560" 
d="M30 274v113h500v-113h-500z" />
    <glyph glyph-name="hyphen" unicode="-" horiz-adv-x="460" 
d="M30 274v113h400v-113h-400z" />
    <glyph glyph-name="guillemotleft" unicode="&#xab;" horiz-adv-x="855" 
d="M431 500l-214 -250l214 -250h-180l-206 250l206 250h180zM810 500l-214 -250l214 -250h-180l-206 250l206 250h180z" />
    <glyph glyph-name="guillemotright" unicode="&#xbb;" horiz-adv-x="885" 
d="M225 500l206 -250l-206 -250h-180l214 250l-214 250h180zM604 500l206 -250l-206 -250h-180l214 250l-214 250h180z" />
    <glyph glyph-name="guilsinglleft" unicode="&#x2039;" horiz-adv-x="446" 
d="M416 500l-214 -250l214 -250h-180l-206 250l206 250h180z" />
    <glyph glyph-name="guilsinglright" unicode="&#x203a;" horiz-adv-x="446" 
d="M210 500l206 -250l-206 -250h-180l214 250l-214 250h180z" />
    <glyph glyph-name="quotedblbase" unicode="&#x201e;" horiz-adv-x="293" 
d="M93 101h125l-113 -270h-75z" />
    <glyph glyph-name="quotedblleft" unicode="&#x201c;" horiz-adv-x="515" 
d="M263 700l-63 -270h-125l113 270h75zM485 700l-63 -270h-125l113 270h75z" />
    <glyph glyph-name="quotedblright" unicode="&#x201d;" horiz-adv-x="515" 
d="M30 430l63 270h125l-113 -270h-75zM252 430l63 270h125l-113 -270h-75z" />
    <glyph glyph-name="quoteleft" unicode="&#x2018;" horiz-adv-x="293" 
d="M263 700l-63 -270h-125l113 270h75z" />
    <glyph glyph-name="quoteright" unicode="&#x2019;" horiz-adv-x="293" 
d="M30 430l63 270h125l-113 -270h-75z" />
    <glyph glyph-name="quotesinglbase" unicode="&#x201a;" horiz-adv-x="293" 
d="M30 -169l63 270h125l-113 -270h-75z" />
    <glyph glyph-name="space" unicode=" " horiz-adv-x="300" 
 />
    <glyph glyph-name="cent" unicode="&#xa2;" horiz-adv-x="589" 
d="M367 497c-128 0 -194 -45 -194 -157s68 -156 197 -156c76 0 138 19 200 58v-114c-61 -27 -104 -44 -163 -51v-107h-172v117c-123 33 -201 126 -201 253c0 128 75 221 201 253v107h172v-98c57 -7 104 -24 163 -50v-117c-71 40 -134 62 -203 62z" />
    <glyph glyph-name="currency" unicode="&#xa4;" horiz-adv-x="720" 
d="M151 26l-100 100l81 81c-25 34 -38 75 -38 123c0 50 14 94 42 129l-85 85l100 100l107 -107c30 8 64 13 101 13c39 0 74 -4 103 -12l107 106l100 -100l-84 -84c27 -35 39 -79 39 -130c0 -48 -11 -90 -35 -124l80 -80l-100 -100l-99 98c-31 -9 -68 -14 -111 -14
c-40 0 -77 5 -108 16zM359 196c96 0 157 54 157 134c0 81 -61 134 -157 134s-156 -53 -156 -134c0 -80 60 -134 156 -134z" />
    <glyph glyph-name="dollar" unicode="$" horiz-adv-x="863" 
d="M827 208c0 -126 -124 -204 -313 -221v-97h-172v99c-185 22 -301 112 -298 235h148c-1 -68 83 -120 232 -120c159 -1 260 27 260 99c0 170 -626 -8 -626 290c0 124 113 201 284 219v123h172v-124c178 -22 291 -109 293 -235h-148c1 69 -80 120 -226 121
c-143 0 -231 -28 -231 -93c0 -155 625 11 625 -296z" />
    <glyph glyph-name="Euro" unicode="&#x20ac;" horiz-adv-x="1017" 
d="M551 104c161 0 272 73 278 201h144c0 -193 -169 -321 -422 -321c-203 0 -352 94 -403 245h-133v102h114v19c0 7 0 15 1 22h-115v102h134c52 149 200 242 402 242c253 0 422 -128 422 -321h-144c-7 128 -118 202 -278 202c-116 0 -206 -44 -250 -123h344v-102h-373
c-1 -7 -1 -15 -1 -22c0 -6 0 -13 1 -19h373v-102h-346c44 -80 134 -125 252 -125z" />
    <glyph glyph-name="sterling" unicode="&#xa3;" horiz-adv-x="902" 
d="M85 0v119c70 31 94 68 98 110h-133v102h120l-12 41h-108v102h86c0 10 -1 21 -1 32c0 151 114 209 365 209c121 0 294 -16 352 -35v-124c-41 16 -228 39 -329 39c-174 0 -238 -28 -244 -121h491v-102h-481l7 -41h474v-102h-476c-7 -43 -27 -82 -72 -112h623v-117h-760z
" />
    <glyph glyph-name="yen" unicode="&#xa5;" horiz-adv-x="895" 
d="M910 700l-264 -336h177v-102h-257l-27 -35v-6h284v-102h-284v-119h-142v119h-284v102h284v5l-28 36h-256v102h176l-264 336h174l259 -336h20l258 336h174z" />
    <glyph glyph-name="dollar.001" horiz-adv-x="863" 
d="M325 -110v101c-119 13 -220 47 -265 68v133c66 -35 229 -87 351 -87c197 0 280 28 280 92c0 176 -657 17 -657 305c0 128 131 191 291 208v125h172v-122c100 -4 202 -19 276 -52v-129c-78 39 -236 64 -336 64c-182 0 -261 -30 -261 -91c0 -153 657 -12 657 -296
c0 -154 -169 -210 -336 -222v-97h-172z" />
    <glyph glyph-name="Euro.001" horiz-adv-x="927" 
d="M602 -16c-243 0 -399 94 -452 244h-120v103h100v19c0 7 0 14 1 21h-101v103h121c53 149 209 242 451 242c118 -1 203 -14 295 -54v-129c-85 41 -193 64 -295 64c-140 0 -244 -45 -295 -123h433v-103h-467l-1 -21c0 -6 0 -13 1 -19h467v-103h-434
c50 -80 155 -124 296 -124c106 0 214 23 295 64v-130c-92 -40 -177 -53 -295 -54z" />
    <glyph glyph-name="plus" unicode="+" horiz-adv-x="580" 
d="M234 71v203h-204v113h203v204h113v-204h204v-113h-203v-203h-113z" />
    <glyph glyph-name="minus" unicode="&#x2212;" horiz-adv-x="580" 
d="M30 274v113h520v-113h-520z" />
    <glyph glyph-name="multiply" unicode="&#xd7;" horiz-adv-x="600" 
d="M146 107l-79 80l143 144l-144 144l80 79l144 -143l144 144l79 -80l-144 -144l144 -144l-79 -80l-144 144z" />
    <glyph glyph-name="divide" unicode="&#xf7;" horiz-adv-x="600" 
d="M298 444c-46 0 -82 32 -82 78c0 45 36 77 82 77c47 0 83 -32 83 -77c0 -46 -34 -78 -83 -78zM38 243v113h520v-113h-520zM298 -15c-46 0 -82 32 -82 78c0 45 36 77 82 77c47 0 83 -32 83 -77c0 -46 -34 -78 -83 -78z" />
    <glyph glyph-name="equal" unicode="=" horiz-adv-x="580" 
d="M30 397v113h520v-113h-520zM30 144v113h520v-113h-520z" />
    <glyph glyph-name="notequal" unicode="&#x2260;" horiz-adv-x="580" 
d="M64 20l69 124h-103v113h166l78 140h-244v113h307l61 110h111l-61 -110h102v-113h-165l-78 -140h243v-113h-306l-69 -124h-111z" />
    <glyph glyph-name="greater" unicode="&#x3e;" horiz-adv-x="446" 
d="M30 0l214 250l-214 250h180l206 -250l-206 -250h-180z" />
    <glyph glyph-name="less" unicode="&#x3c;" horiz-adv-x="476" 
d="M236 0l-206 250l206 250h180l-214 -250l214 -250h-180z" />
    <glyph glyph-name="greaterequal" unicode="&#x2265;" horiz-adv-x="600" 
d="M93 204l259 141l-259 141h231l249 -141l-249 -141h-231zM60 0v73h490v-73h-490z" />
    <glyph glyph-name="lessequal" unicode="&#x2264;" horiz-adv-x="600" 
d="M309 204l-249 141l249 141h231l-259 -141l259 -141h-231zM83 0v73h490v-73h-490z" />
    <glyph glyph-name="plusminus" unicode="&#xb1;" horiz-adv-x="600" 
d="M240 196v145h-145v100h145v145h100v-145h145v-100h-145v-145h-100zM30 0v73h520v-73h-520z" />
    <glyph glyph-name="approxequal" unicode="&#x2248;" horiz-adv-x="441" 
d="M288 310c-72 0 -94 72 -135 72c-36 0 -61 -23 -62 -71h-61c1 78 52 130 123 130c64 0 86 -72 135 -72c37 0 62 22 63 71h60c-1 -79 -52 -130 -123 -130zM288 140c-72 0 -94 72 -135 72c-36 0 -61 -23 -62 -71h-61c1 78 52 130 123 130c64 0 86 -72 135 -72
c37 0 62 22 63 71h60c-1 -79 -52 -130 -123 -130z" />
    <glyph glyph-name="asciitilde" unicode="~" horiz-adv-x="441" 
d="M288 310c-72 0 -94 72 -135 72c-36 0 -61 -23 -62 -71h-61c1 78 52 130 123 130c64 0 86 -72 135 -72c37 0 62 22 63 71h60c-1 -79 -52 -130 -123 -130z" />
    <glyph glyph-name="logicalnot" unicode="&#xac;" horiz-adv-x="670" 
d="M527 76l-1 228h-496v113h610v-341h-113z" />
    <glyph glyph-name="emptyset" unicode="&#x2205;" horiz-adv-x="702" 
d="M737 496l-113 -95c30 -42 47 -93 47 -151c0 -160 -125 -266 -314 -266c-69 0 -130 14 -179 41l-130 -110l-76 80l121 102c-32 42 -49 94 -49 153c0 160 125 266 313 266c71 0 133 -15 183 -42l116 98zM176 250c0 -26 6 -49 16 -69l250 211c-24 10 -53 15 -85 15
c-108 0 -181 -63 -181 -157zM539 250c0 25 -5 47 -14 67l-249 -209c24 -9 51 -14 81 -14c109 0 182 63 182 156z" />
    <glyph glyph-name="infinity" unicode="&#x221e;" horiz-adv-x="988" 
d="M278 77c-151 0 -248 110 -248 228c0 122 103 236 250 236c129 0 202 -66 214 -167c12 105 90 167 214 167c147 0 250 -114 250 -236c0 -118 -97 -228 -248 -228c-131 0 -204 58 -216 157c-12 -99 -85 -157 -216 -157zM290 193c74 8 112 53 112 113c0 63 -44 109 -123 109
c-70 0 -117 -48 -117 -109c0 -65 52 -119 128 -113zM698 193c76 -6 129 48 129 113c0 61 -47 109 -118 109c-79 0 -122 -46 -122 -109c0 -60 37 -105 111 -113z" />
    <glyph glyph-name="integral" unicode="&#x222b;" horiz-adv-x="682" 
d="M10 -140l13 58c76 0 136 38 147 84l138 587c19 79 89 142 364 142l-13 -58c-76 0 -136 -37 -147 -84l-138 -587c-19 -78 -89 -142 -364 -142z" />
    <glyph glyph-name="product" unicode="&#x220f;" horiz-adv-x="790" 
d="M109 -170v757h-79v113h730v-113h-79v-757h-142v757h-288v-757h-142z" />
    <glyph glyph-name="summation" unicode="&#x2211;" horiz-adv-x="790" 
d="M30 0v113l299 227l-299 247v113h730v-113h-518l299 -247l-299 -227h518v-113h-730z" />
    <glyph glyph-name="radical" unicode="&#x221a;" horiz-adv-x="1109" 
d="M269 0l-264 501h159l226 -429l331 628h358v-113h-259l-309 -587h-242z" />
    <glyph glyph-name="partialdiff" unicode="&#x2202;" horiz-adv-x="836" 
d="M396 -12c-233 0 -366 93 -366 234c0 136 98 238 319 238c144 0 245 -75 299 -137c12 204 -107 334 -308 347l3 85c260 0 448 -161 448 -393c0 -255 -150 -374 -395 -374zM405 100c129 0 200 47 229 143c-49 72 -157 132 -260 132c-122 0 -201 -54 -201 -138
s95 -137 232 -137z" />
    <glyph glyph-name="percent" unicode="%" horiz-adv-x="1039" 
d="M259 460c-112 0 -209 50 -209 125s97 125 209 125c124 0 209 -50 209 -125s-85 -125 -209 -125zM110 0l703 700h126l-703 -700h-126zM259 507c62 0 105 29 105 76c0 49 -42 80 -105 80c-61 0 -104 -30 -104 -78s43 -78 104 -78zM781 -11c-112 0 -209 50 -209 125
s97 125 209 125c124 0 209 -50 209 -125s-85 -125 -209 -125zM781 36c62 0 105 30 105 76c0 49 -42 80 -105 80c-62 0 -104 -30 -104 -78s42 -78 104 -78z" />
    <glyph glyph-name="perthousand" unicode="&#x2030;" horiz-adv-x="1519" 
d="M259 460c-112 0 -209 50 -209 125s97 125 209 125c124 0 209 -50 209 -125s-85 -125 -209 -125zM110 0l703 700h126l-703 -700h-126zM259 507c62 0 105 29 105 76c0 49 -42 80 -105 80c-61 0 -104 -30 -104 -78s43 -78 104 -78zM781 -11c-112 0 -209 50 -209 125
s97 125 209 125c124 0 209 -50 209 -125s-85 -125 -209 -125zM1260 -11c-112 0 -209 50 -209 125s97 125 209 125c124 0 209 -50 209 -125s-85 -125 -209 -125zM781 36c62 0 105 30 105 76c0 49 -42 80 -105 80c-62 0 -104 -30 -104 -78s42 -78 104 -78zM1260 36
c62 0 105 30 105 76c0 49 -42 80 -105 80c-61 0 -104 -30 -104 -78s43 -78 104 -78z" />
    <glyph glyph-name="arrowup" unicode="&#x2191;" horiz-adv-x="561" 
d="M217 -58v568l-187 -159l1 155l250 206l250 -206v-155l-186 160v-569h-128z" />
    <glyph glyph-name="arrowright" unicode="&#x2192;" horiz-adv-x="830" 
d="M30 394h568l-159 187l155 -1l206 -250l-206 -250h-155l160 186h-569v128z" />
    <glyph glyph-name="arrowdown" unicode="&#x2193;" horiz-adv-x="561" 
d="M344 699v-568l187 159l-1 -155l-250 -206l-250 206v155l186 -160v569h128z" />
    <glyph glyph-name="arrowleft" unicode="&#x2190;" horiz-adv-x="830" 
d="M800 267h-568l159 -187l-155 1l-206 250l206 250h155l-160 -186h569v-128z" />
    <glyph glyph-name="lozenge" unicode="&#x25ca;" horiz-adv-x="726" 
d="M236 0l-206 250l206 250h254l206 -250l-206 -250h-254zM363 62l161 188l-161 188l-161 -188z" />
    <glyph glyph-name="at" unicode="@" horiz-adv-x="1073" 
d="M536 725c301 0 487 -168 487 -373c0 -97 -48 -187 -164 -230h-192l22 147h-8c-24 -112 -105 -160 -231 -160c-61 0 -153 13 -153 108c0 122 235 137 368 149c-1 65 -37 88 -119 88c-65 0 -142 -22 -197 -46v94c69 26 157 45 230 45c147 0 203 -78 203 -193v-212
c96 57 122 116 122 210c0 161 -144 269 -368 269c-223 0 -367 -116 -367 -299s144 -299 367 -299c65 0 122 8 171 25v-109c-52 -13 -109 -20 -171 -20c-300 0 -486 161 -486 403s186 403 486 403zM497 191c82 0 165 39 166 115c-95 -8 -244 -11 -244 -70
c0 -28 30 -45 78 -45z" />
    <glyph glyph-name="ampersand" unicode="&#x26;" horiz-adv-x="913" 
d="M365 -12c-119 0 -325 32 -325 213c0 116 110 202 256 201l-193 193v105h625v-126h-422l345 -344c57 50 101 111 131 169l88 -99c-35 -65 -78 -118 -125 -161l141 -139h-186l-62 62c-89 -51 -185 -74 -273 -74zM372 113c61 0 119 16 171 43l-190 189
c-96 17 -189 -23 -189 -98c0 -95 77 -134 208 -134z" />
    <glyph glyph-name="paragraph" unicode="&#xb6;" horiz-adv-x="939" 
d="M394 -180v453h-129c-135 0 -235 71 -235 213c0 117 90 214 235 214h275v-880h-146zM767 -180v880h142v-880h-142z" />
    <glyph glyph-name="section" unicode="&#xa7;" horiz-adv-x="644" 
d="M320 0c-77 0 -185 15 -268 39v109c84 -32 150 -43 268 -43c115 0 152 8 152 34c0 100 -442 10 -442 214c0 39 17 64 53 80c-29 22 -53 52 -53 93c0 110 118 164 294 164c60 0 163 -11 250 -28v-109c-71 15 -175 26 -250 26c-115 0 -152 -8 -152 -43
c0 -70 442 12 442 -211c0 -39 -20 -65 -46 -83c25 -23 46 -52 46 -90c0 -103 -118 -152 -294 -152zM360 279c70 0 105 17 108 57c4 46 -42 69 -145 79c-16 1 -31 2 -44 2c-71 0 -100 -20 -104 -59c-3 -46 40 -69 141 -78c16 -1 31 -1 44 -1z" />
    <glyph glyph-name="copyright" unicode="&#xa9;" horiz-adv-x="965" 
d="M482 -16c-273 0 -432 146 -432 366s164 366 432 366c274 0 433 -143 433 -366c0 -220 -159 -366 -433 -366zM482 11c273 0 405 144 405 341c0 196 -135 337 -405 337c-262 0 -406 -144 -406 -341c0 -196 147 -337 406 -337zM487 85c-181 0 -301 106 -301 266
s120 266 301 266c180 0 300 -95 300 -237h-144c-7 79 -69 132 -156 132c-95 0 -159 -64 -159 -161s64 -161 159 -161c90 0 153 56 158 140h143c0 -147 -120 -245 -301 -245z" />
    <glyph glyph-name="registered" unicode="&#xae;" horiz-adv-x="965" 
d="M482 -16c-273 0 -432 146 -432 366s164 366 432 366c274 0 433 -143 433 -366c0 -220 -159 -366 -433 -366zM482 11c273 0 405 144 405 341c0 196 -135 337 -405 337c-262 0 -406 -144 -406 -341c0 -196 147 -337 406 -337zM258 133v435h341c90 0 140 -49 140 -115
c0 -70 -56 -110 -140 -110h-46c103 -6 143 -68 218 -210h-106c-81 145 -101 184 -178 184h-142l1 -184h-88zM345 389h232c52 0 74 19 74 51c0 38 -23 55 -74 55h-232v-106z" />
    <glyph glyph-name="trademark" unicode="&#x2122;" horiz-adv-x="1308" 
d="M302 222v397h-232v81h562v-81h-233v-397h-97zM675 222v478h100l201 -336l202 336h100v-478h-97v324l-196 -324h-18l-195 322v-322h-97z" />
    <glyph glyph-name="degree" unicode="&#xb0;" horiz-adv-x="518" 
d="M259 460c-112 0 -209 50 -209 125s97 125 209 125c124 0 209 -50 209 -125s-85 -125 -209 -125zM259 507c62 0 105 29 105 76c0 49 -42 80 -105 80c-61 0 -104 -30 -104 -78s43 -78 104 -78z" />
    <glyph glyph-name="bar" unicode="|" horiz-adv-x="262" 
d="M60 -170v890h142v-890h-142z" />
    <glyph glyph-name="brokenbar" unicode="&#xa6;" horiz-adv-x="262" 
d="M60 313v407h142v-407h-142zM60 -170v418h142v-418h-142z" />
    <glyph glyph-name="dagger" unicode="&#x2020;" horiz-adv-x="580" 
d="M219 -170v556h-189v113h189v221h142v-221h189v-113h-189v-556h-142z" />
    <glyph glyph-name="daggerdbl" unicode="&#x2021;" horiz-adv-x="600" 
d="M219 -170v170h-189v113h189v273h-189v113h189v221h142v-221h189v-113h-189v-273h189v-113h-189v-170h-142z" />
    <glyph glyph-name="asciicircum" unicode="^" horiz-adv-x="560" 
d="M30 317v118l250 274l250 -274v-118l-250 242z" />
    <glyph glyph-name="uni0308" unicode="&#x308;" 
d="M-439 538c-58 0 -99 34 -99 85s41 85 99 85c64 0 99 -34 99 -85s-35 -85 -99 -85zM-149 538c-58 0 -99 34 -99 85s41 85 99 85c64 0 99 -34 99 -85s-35 -85 -99 -85z" />
    <glyph glyph-name="uni0307" unicode="&#x307;" 
d="M-91 538c-58 0 -99 34 -99 85s41 85 99 85c64 0 99 -34 99 -85s-35 -85 -99 -85z" />
    <glyph glyph-name="gravecomb" unicode="&#x300;" 
d="M-50 544l-287 164v102l287 -186v-80z" />
    <glyph glyph-name="acutecomb" unicode="&#x301;" 
d="M-337 544v80l287 186v-102z" />
    <glyph glyph-name="uni030B" unicode="&#x30b;" 
d="M-587 544v80l287 186v-102zM-337 544v80l287 186v-102z" />
    <glyph glyph-name="uni0302" unicode="&#x302;" 
d="M-337 821l287 -186v-80l-287 164l-287 -164v80z" />
    <glyph glyph-name="uni030C" unicode="&#x30c;" 
d="M-337 657l287 164v-80l-287 -186l-287 186v80z" />
    <glyph glyph-name="uni0306" unicode="&#x306;" 
d="M-263 551c-122 0 -212 59 -213 149h105c2 -55 46 -81 108 -81c64 0 106 26 110 81h103c-1 -90 -77 -149 -213 -149z" />
    <glyph glyph-name="uni030A" unicode="&#x30a;" 
d="M-303 538c-136 0 -253 41 -253 103s117 103 253 103c150 0 253 -41 253 -103s-103 -103 -253 -103zM-303 589c51 0 91 18 91 51c0 36 -37 53 -91 53c-51 0 -89 -17 -89 -52s38 -52 89 -52z" />
    <glyph glyph-name="tildecomb" unicode="&#x303;" 
d="M-173 572c-72 0 -94 72 -135 72c-36 0 -61 -23 -62 -71h-61c1 78 52 130 123 130c64 0 86 -72 135 -72c37 0 62 22 63 71h60c-1 -79 -52 -130 -123 -130z" />
    <glyph glyph-name="uni0304" unicode="&#x304;" 
d="M-582 646v54h532v-54h-532z" />
    <glyph glyph-name="uni0312" unicode="&#x312;" 
d="M-50 798l-63 -270h-125l113 270h75z" />
    <glyph glyph-name="uni0326" unicode="&#x326;" 
d="M-253 -341l63 270h125l-113 -270h-75z" />
    <glyph glyph-name="uni0327" unicode="&#x327;" 
d="M-364 -69c192 -11 314 -48 314 -108c0 -62 -170 -109 -426 -110v55c205 1 277 23 277 55c0 34 -72 55 -277 58v53l58 101h107z" />
    <glyph glyph-name="uni0328" unicode="&#x328;" 
d="M-178 -230c-114 0 -212 52 -212 134c0 36 19 80 67 127c22 22 39 30 52 30c17 0 27 -13 27 -27c0 -7 -3 -16 -9 -22c-30 -27 -43 -53 -43 -75c0 -49 62 -82 147 -82c27 0 55 3 84 9l-3 -78c-36 -11 -74 -16 -110 -16z" />
    <glyph glyph-name="uni0335" unicode="&#x335;" 
d="M-550 274v113h500v-113h-500z" />
    <glyph glyph-name="uni0336" unicode="&#x336;" 
d="M-1050 274v113h1000v-113h-1000z" />
    <glyph glyph-name="uni0337" unicode="&#x337;" 
d="M-785 0l594 500h141l-594 -500h-141z" />
    <glyph glyph-name="uni0338" unicode="&#x338;" 
d="M-1023 0l832 700h141l-832 -700h-141z" />
    <glyph glyph-name="acute" unicode="&#xb4;" horiz-adv-x="387" 
d="M50 544v80l287 186v-102z" />
    <glyph glyph-name="breve" unicode="&#x2d8;" horiz-adv-x="526" 
d="M263 551c-122 0 -212 59 -213 149h105c2 -55 46 -81 108 -81c64 0 106 26 110 81h103c-1 -90 -77 -149 -213 -149z" />
    <glyph glyph-name="caron" unicode="&#x2c7;" horiz-adv-x="674" 
d="M337 657l287 164v-80l-287 -186l-287 186v80z" />
    <glyph glyph-name="cedilla" unicode="&#xb8;" horiz-adv-x="526" 
d="M162 -69c192 -11 314 -48 314 -108c0 -62 -170 -109 -426 -110v55c205 1 277 23 277 55c0 34 -72 55 -277 58v53l58 101h107z" />
    <glyph glyph-name="circumflex" unicode="&#x2c6;" horiz-adv-x="674" 
d="M337 821l287 -186v-80l-287 164l-287 -164v80z" />
    <glyph glyph-name="dieresis" unicode="&#xa8;" horiz-adv-x="588" 
d="M149 538c-58 0 -99 34 -99 85s41 85 99 85c64 0 99 -34 99 -85s-35 -85 -99 -85zM439 538c-58 0 -99 34 -99 85s41 85 99 85c64 0 99 -34 99 -85s-35 -85 -99 -85z" />
    <glyph glyph-name="dotaccent" unicode="&#x2d9;" horiz-adv-x="298" 
d="M149 538c-58 0 -99 34 -99 85s41 85 99 85c64 0 99 -34 99 -85s-35 -85 -99 -85z" />
    <glyph glyph-name="grave" unicode="`" horiz-adv-x="387" 
d="M337 544l-287 164v102l287 -186v-80z" />
    <glyph glyph-name="hungarumlaut" unicode="&#x2dd;" horiz-adv-x="637" 
d="M50 544v80l287 186v-102zM300 544v80l287 186v-102z" />
    <glyph glyph-name="macron" unicode="&#xaf;" horiz-adv-x="632" 
d="M50 646v54h532v-54h-532z" />
    <glyph glyph-name="ogonek" unicode="&#x2db;" horiz-adv-x="445" 
d="M267 -230c-114 0 -212 52 -212 134c0 36 19 80 67 127c22 22 39 30 52 30c17 0 27 -13 27 -27c0 -7 -3 -16 -9 -22c-30 -27 -43 -53 -43 -75c0 -49 62 -82 147 -82c27 0 55 3 84 9l-3 -78c-36 -11 -74 -16 -110 -16z" />
    <glyph glyph-name="ring" unicode="&#x2da;" horiz-adv-x="606" 
d="M303 538c-136 0 -253 41 -253 103s117 103 253 103c150 0 253 -41 253 -103s-103 -103 -253 -103zM303 589c51 0 91 18 91 51c0 36 -37 53 -91 53c-51 0 -89 -17 -89 -52s38 -52 89 -52z" />
    <glyph glyph-name="tilde" unicode="&#x2dc;" horiz-adv-x="481" 
d="M308 572c-72 0 -94 72 -135 72c-36 0 -61 -23 -62 -71h-61c1 78 52 130 123 130c64 0 86 -72 135 -72c37 0 62 22 63 71h60c-1 -79 -52 -130 -123 -130z" />
    <glyph glyph-name="brevecombcy" 
d="M-257 551c-122 0 -212 59 -213 149h105c2 -55 46 -81 108 -81c64 0 106 26 110 81h103c-1 -90 -77 -149 -213 -149z" />
    </font>
</defs>
</svg>
