<?xml version="1.0" standalone="no"?>
<!DOCTYPE svg PUBLIC "-//W3C//DTD SVG 1.1//EN" "http://www.w3.org/Graphics/SVG/1.1/DTD/svg11.dtd" >
<svg xmlns="http://www.w3.org/2000/svg" xmlns:xlink="http://www.w3.org/1999/xlink" version="1.1">
<metadata>
Created by FontForge 20170924 at Tue Sep 12 15:49:39 2017
 By www-data
Copyright \(c\) 2017 by Good Type Foundry Kenneth Knutsen. All rights reserved.
</metadata>
<defs>
<font id="Adieu-Light" horiz-adv-x="0" >
  <font-face 
    font-family="Adieu Light"
    font-weight="300"
    font-stretch="normal"
    units-per-em="1000"
    panose-1="0 0 4 0 0 0 0 0 0 0"
    ascent="800"
    descent="-200"
    x-height="500"
    cap-height="700"
    bbox="-1050 -532 1694 1021"
    underline-thickness="50"
    underline-position="-100"
    stemh="82"
    stemv="112"
    unicode-range="U+0020-25CA"
  />
<missing-glyph horiz-adv-x="843" 
d="M422 -11c-203 0 -362 167 -362 362s163 361 362 361c195 0 361 -162 361 -361c0 -202 -167 -362 -361 -362zM422 63c159 0 287 128 287 288s-128 287 -287 287c-160 0 -288 -127 -288 -287s128 -288 288 -288zM329 394c-37 0 -66 28 -66 64c0 35 29 63 66 63
c35 0 64 -28 64 -63c0 -36 -29 -64 -64 -64zM521 394c-36 0 -63 28 -63 64c0 35 27 63 63 63s65 -28 65 -63c0 -36 -29 -64 -65 -64zM422 151c-122 0 -218 73 -218 188l64 9c4 -51 39 -114 154 -114c113 0 152 63 154 114l63 -9c0 -116 -99 -188 -217 -188z" />
    <glyph glyph-name=".notdef" horiz-adv-x="843" 
d="M422 -11c-203 0 -362 167 -362 362s163 361 362 361c195 0 361 -162 361 -361c0 -202 -167 -362 -361 -362zM422 63c159 0 287 128 287 288s-128 287 -287 287c-160 0 -288 -127 -288 -287s128 -288 288 -288zM329 394c-37 0 -66 28 -66 64c0 35 29 63 66 63
c35 0 64 -28 64 -63c0 -36 -29 -64 -64 -64zM521 394c-36 0 -63 28 -63 64c0 35 27 63 63 63s65 -28 65 -63c0 -36 -29 -64 -65 -64zM422 151c-122 0 -218 73 -218 188l64 9c4 -51 39 -114 154 -114c113 0 152 63 154 114l63 -9c0 -116 -99 -188 -217 -188z" />
    <glyph glyph-name="A" unicode="A" horiz-adv-x="1083" 
d="M36 0l431 700h149l430 -700h-126l-97 163h-564l-96 -163h-127zM315 256h453l-226 386z" />
    <glyph glyph-name="Aacute" unicode="&#xc1;" horiz-adv-x="1083" 
d="M518 744v80l287 186v-102zM36 0l431 700h149l430 -700h-126l-97 163h-564l-96 -163h-127zM315 256h453l-226 386z" />
    <glyph glyph-name="Abreve" unicode="&#x102;" horiz-adv-x="1083" 
d="M542 751c-122 0 -212 59 -213 149h105c2 -55 46 -81 108 -81c64 0 106 26 110 81h103c-1 -90 -77 -149 -213 -149zM36 0l431 700h149l430 -700h-126l-97 163h-564l-96 -163h-127zM315 256h453l-226 386z" />
    <glyph glyph-name="Acircumflex" unicode="&#xc2;" horiz-adv-x="1083" 
d="M829 755l-287 164l-287 -164v80l287 186l287 -186v-80zM616 700l430 -700h-126l-97 163h-564l-96 -163h-127l431 700h149zM315 256h453l-226 386z" />
    <glyph glyph-name="Adieresis" unicode="&#xc4;" horiz-adv-x="1083" 
d="M401 738c-58 0 -99 34 -99 85s41 85 99 85c64 0 99 -34 99 -85s-35 -85 -99 -85zM691 738c-58 0 -99 34 -99 85s41 85 99 85c64 0 99 -34 99 -85s-35 -85 -99 -85zM36 0l431 700h149l430 -700h-126l-97 163h-564l-96 -163h-127zM315 256h453l-226 386z" />
    <glyph glyph-name="Agrave" unicode="&#xc0;" horiz-adv-x="1083" 
d="M548 744l-287 164v102l287 -186v-80zM36 0l431 700h149l430 -700h-126l-97 163h-564l-96 -163h-127zM315 256h453l-226 386z" />
    <glyph glyph-name="Amacron" unicode="&#x100;" horiz-adv-x="1083" 
d="M276 846v54h532v-54h-532zM36 0l431 700h149l430 -700h-126l-97 163h-564l-96 -163h-127zM315 256h453l-226 386z" />
    <glyph glyph-name="Aogonek" unicode="&#x104;" horiz-adv-x="1083" 
d="M1042 -164c25 0 53 3 84 10l-3 -60c-36 -11 -74 -16 -110 -16c-110 0 -203 51 -203 131c0 37 20 82 68 130l15 14l-70 118h-564l-96 -163h-127l431 700h149l430 -700h-126l-1 1c-24 -24 -35 -48 -35 -70c0 -54 64 -95 158 -95zM315 256h453l-226 386z" />
    <glyph glyph-name="Aring" unicode="&#xc5;" horiz-adv-x="1083" 
d="M542 738c-136 0 -253 41 -253 103s117 103 253 103c150 0 253 -41 253 -103s-103 -103 -253 -103zM542 789c51 0 91 18 91 51c0 36 -37 53 -91 53c-51 0 -89 -17 -89 -52s38 -52 89 -52zM36 0l431 700h149l430 -700h-126l-97 163h-564l-96 -163h-127zM315 256h453
l-226 386z" />
    <glyph glyph-name="Atilde" unicode="&#xc3;" horiz-adv-x="1083" 
d="M627 772c-72 0 -94 72 -135 72c-36 0 -61 -23 -62 -71h-61c1 78 52 130 123 130c64 0 86 -72 135 -72c37 0 62 22 63 71h60c-1 -79 -52 -130 -123 -130zM36 0l431 700h149l430 -700h-126l-97 163h-564l-96 -163h-127zM315 256h453l-226 386z" />
    <glyph glyph-name="AE" unicode="&#xc6;" horiz-adv-x="1421" 
d="M1340 618h-533v-226h524v-73h-524v-237h533v-82h-645v163h-396l-131 -163h-132l587 700h717v-82zM368 245h327v409l-332 -412z" />
    <glyph glyph-name="B" unicode="B" horiz-adv-x="926" 
d="M91 0v700h513c145 0 225 -78 225 -185c0 -103 -76 -152 -194 -159c131 -3 217 -61 217 -170c0 -112 -90 -186 -226 -186h-535zM203 390h366c96 0 148 33 148 106c0 76 -52 111 -148 111h-367zM204 94h387c96 0 148 37 148 117c0 76 -52 110 -148 110h-388z" />
    <glyph glyph-name="C" unicode="C" horiz-adv-x="935" 
d="M468 -16c-253 0 -422 146 -422 366s169 366 422 366s422 -128 422 -321h-114c-6 142 -129 228 -308 228c-186 0 -310 -104 -310 -273c0 -168 124 -273 310 -273c180 0 303 87 308 228h114c0 -193 -169 -321 -422 -321z" />
    <glyph glyph-name="Cacute" unicode="&#x106;" horiz-adv-x="935" 
d="M444 744v80l287 186v-102zM468 -16c-253 0 -422 146 -422 366s169 366 422 366s422 -128 422 -321h-114c-6 142 -129 228 -308 228c-186 0 -310 -104 -310 -273c0 -168 124 -273 310 -273c180 0 303 87 308 228h114c0 -193 -169 -321 -422 -321z" />
    <glyph glyph-name="Ccaron" unicode="&#x10c;" horiz-adv-x="935" 
d="M755 941l-287 -186l-287 186v80l287 -164l287 164v-80zM468 77c180 0 303 87 308 228h114c0 -193 -169 -321 -422 -321s-422 146 -422 366s169 366 422 366s422 -128 422 -321h-114c-6 142 -129 228 -308 228c-186 0 -310 -104 -310 -273c0 -168 124 -273 310 -273z" />
    <glyph glyph-name="Ccedilla" unicode="&#xc7;" horiz-adv-x="935" 
d="M468 77c180 0 303 87 308 228h114c0 -190 -165 -318 -412 -321l-27 -53c199 -9 326 -47 326 -108c0 -62 -170 -109 -426 -110v55c228 1 300 23 300 55c0 34 -72 55 -300 58v53l32 56c-205 29 -337 166 -337 360c0 220 169 366 422 366s422 -128 422 -321h-114
c-6 142 -129 228 -308 228c-186 0 -310 -104 -310 -273c0 -168 124 -273 310 -273z" />
    <glyph glyph-name="Cdotaccent" unicode="&#x10a;" horiz-adv-x="935" 
d="M468 738c-58 0 -99 34 -99 85s41 85 99 85c64 0 99 -34 99 -85s-35 -85 -99 -85zM468 -16c-253 0 -422 146 -422 366s169 366 422 366s422 -128 422 -321h-114c-6 142 -129 228 -308 228c-186 0 -310 -104 -310 -273c0 -168 124 -273 310 -273c180 0 303 87 308 228h114
c0 -193 -169 -321 -422 -321z" />
    <glyph glyph-name="D" unicode="D" horiz-adv-x="871" 
d="M91 0v700h326c253 0 408 -121 408 -350c0 -232 -156 -350 -408 -350h-326zM203 93h214c183 0 307 98 307 257s-124 257 -307 257h-214v-514z" />
    <glyph glyph-name="Eth" unicode="&#xd0;" horiz-adv-x="871" 
d="M417 700c253 0 408 -121 408 -350c0 -232 -156 -350 -408 -350h-326v309h-71v83h71v308h326zM417 93c183 0 307 98 307 257s-124 257 -307 257h-214v-215h317v-83h-317v-216h214z" />
    <glyph glyph-name="Dcaron" unicode="&#x10e;" horiz-adv-x="871" 
d="M746 941l-287 -186l-287 186v80l287 -164l287 164v-80zM417 700c253 0 408 -121 408 -350c0 -232 -156 -350 -408 -350h-326v700h326zM417 93c183 0 307 98 307 257s-124 257 -307 257h-214v-514h214z" />
    <glyph glyph-name="Dcroat" unicode="&#x110;" horiz-adv-x="871" 
d="M417 700c253 0 408 -121 408 -350c0 -232 -156 -350 -408 -350h-326v309h-71v83h71v308h326zM417 93c183 0 307 98 307 257s-124 257 -307 257h-214v-215h317v-83h-317v-216h214z" />
    <glyph glyph-name="E" unicode="E" horiz-adv-x="810" 
d="M91 0v700h638v-93h-526v-209h517v-85h-517v-220h526v-93h-638z" />
    <glyph glyph-name="Eacute" unicode="&#xc9;" horiz-adv-x="810" 
d="M393 744v80l287 186v-102zM91 0v700h638v-93h-526v-209h517v-85h-517v-220h526v-93h-638z" />
    <glyph glyph-name="Ecaron" unicode="&#x11a;" horiz-adv-x="810" 
d="M704 941l-287 -186l-287 186v80l287 -164l287 164v-80zM729 607h-526v-209h517v-85h-517v-220h526v-93h-638v700h638v-93z" />
    <glyph glyph-name="Ecircumflex" unicode="&#xca;" horiz-adv-x="810" 
d="M704 755l-287 164l-287 -164v80l287 186l287 -186v-80zM729 607h-526v-209h517v-85h-517v-220h526v-93h-638v700h638v-93z" />
    <glyph glyph-name="Edieresis" unicode="&#xcb;" horiz-adv-x="810" 
d="M276 738c-58 0 -99 34 -99 85s41 85 99 85c64 0 99 -34 99 -85s-35 -85 -99 -85zM566 738c-58 0 -99 34 -99 85s41 85 99 85c64 0 99 -34 99 -85s-35 -85 -99 -85zM91 0v700h638v-93h-526v-209h517v-85h-517v-220h526v-93h-638z" />
    <glyph glyph-name="Edotaccent" unicode="&#x116;" horiz-adv-x="810" 
d="M417 738c-58 0 -99 34 -99 85s41 85 99 85c64 0 99 -34 99 -85s-35 -85 -99 -85zM91 0v700h638v-93h-526v-209h517v-85h-517v-220h526v-93h-638z" />
    <glyph glyph-name="Egrave" unicode="&#xc8;" horiz-adv-x="810" 
d="M423 744l-287 164v102l287 -186v-80zM91 0v700h638v-93h-526v-209h517v-85h-517v-220h526v-93h-638z" />
    <glyph glyph-name="Emacron" unicode="&#x112;" horiz-adv-x="810" 
d="M151 846v54h532v-54h-532zM91 0v700h638v-93h-526v-209h517v-85h-517v-220h526v-93h-638z" />
    <glyph glyph-name="Eogonek" unicode="&#x118;" horiz-adv-x="810" 
d="M729 607h-526v-209h517v-85h-517v-220h526v-93h-309c-23 -24 -34 -48 -34 -69c0 -54 64 -95 158 -95c25 0 53 3 84 10l-3 -60c-36 -11 -74 -16 -110 -16c-110 0 -203 51 -203 131c0 29 12 63 40 99h-261v700h638v-93z" />
    <glyph glyph-name="F" unicode="F" horiz-adv-x="776" 
d="M91 0v700h634v-93h-522v-209h513v-85h-513v-313h-112z" />
    <glyph glyph-name="G" unicode="G" horiz-adv-x="971" 
d="M478 -16c-253 0 -422 146 -422 366s169 366 422 366c240 0 398 -109 409 -272h-109c-12 113 -120 179 -300 179c-186 0 -310 -104 -310 -273c0 -168 124 -273 310 -273c176 0 295 76 308 201h-413v87h525v-365h-104l6 123c-69 -96 -195 -139 -322 -139z" />
    <glyph glyph-name="Gbreve" unicode="&#x11e;" horiz-adv-x="971" 
d="M478 751c-122 0 -212 59 -213 149h105c2 -55 46 -81 108 -81c64 0 106 26 110 81h103c-1 -90 -77 -149 -213 -149zM478 -16c-253 0 -422 146 -422 366s169 366 422 366c240 0 398 -109 409 -272h-109c-12 113 -120 179 -300 179c-186 0 -310 -104 -310 -273
c0 -168 124 -273 310 -273c176 0 295 76 308 201h-413v87h525v-365h-104l6 123c-69 -96 -195 -139 -322 -139z" />
    <glyph glyph-name="Gcommaaccent" unicode="&#x122;" horiz-adv-x="971" 
d="M478 -16c-253 0 -422 146 -422 366s169 366 422 366c240 0 398 -109 409 -272h-109c-12 113 -120 179 -300 179c-186 0 -310 -104 -310 -273c0 -168 124 -273 310 -273c176 0 295 76 308 201h-413v87h525v-365h-104l6 123c-69 -96 -195 -139 -322 -139zM394 -350l63 270
h103l-113 -270h-53z" />
    <glyph glyph-name="Gdotaccent" unicode="&#x120;" horiz-adv-x="971" 
d="M478 738c-58 0 -99 34 -99 85s41 85 99 85c64 0 99 -34 99 -85s-35 -85 -99 -85zM478 -16c-253 0 -422 146 -422 366s169 366 422 366c240 0 398 -109 409 -272h-109c-12 113 -120 179 -300 179c-186 0 -310 -104 -310 -273c0 -168 124 -273 310 -273
c176 0 295 76 308 201h-413v87h525v-365h-104l6 123c-69 -96 -195 -139 -322 -139z" />
    <glyph glyph-name="H" unicode="H" horiz-adv-x="908" 
d="M91 0v700h112v-293h501v293h112v-700h-112v314h-501v-314h-112z" />
    <glyph glyph-name="Hbar" unicode="&#x126;" horiz-adv-x="908" 
d="M865 642v-88h-49v-554h-112v314h-501v-314h-112v554h-49v88h49v58h112v-58h501v58h112v-58h49zM704 407v147h-501v-147h501z" />
    <glyph glyph-name="I" unicode="I" horiz-adv-x="295" 
d="M91 0v700h112v-700h-112z" />
    <glyph glyph-name="Iacute" unicode="&#xcd;" horiz-adv-x="295" 
d="M123 744v80l287 186v-102zM91 0v700h112v-700h-112z" />
    <glyph glyph-name="Icircumflex" unicode="&#xce;" horiz-adv-x="295" 
d="M147 1021l287 -186v-80l-287 164l-287 -164v80zM91 0v700h112v-700h-112z" />
    <glyph glyph-name="Idieresis" unicode="&#xcf;" horiz-adv-x="295" 
d="M6 738c-58 0 -99 34 -99 85s41 85 99 85c64 0 99 -34 99 -85s-35 -85 -99 -85zM296 738c-58 0 -99 34 -99 85s41 85 99 85c64 0 99 -34 99 -85s-35 -85 -99 -85zM91 0v700h112v-700h-112z" />
    <glyph glyph-name="Idotaccent" unicode="&#x130;" horiz-adv-x="295" 
d="M150 738c-58 0 -99 34 -99 85s41 85 99 85c64 0 99 -34 99 -85s-35 -85 -99 -85zM91 0v700h112v-700h-112z" />
    <glyph glyph-name="Igrave" unicode="&#xcc;" horiz-adv-x="295" 
d="M153 744l-287 164v102l287 -186v-80zM91 0v700h112v-700h-112z" />
    <glyph glyph-name="Imacron" unicode="&#x12a;" horiz-adv-x="295" 
d="M-119 846v54h532v-54h-532zM91 0v700h112v-700h-112z" />
    <glyph glyph-name="Iogonek" unicode="&#x12e;" horiz-adv-x="295" 
d="M278 -164c25 0 53 3 84 10l-3 -60c-36 -11 -74 -16 -110 -16c-110 0 -203 51 -203 131c0 30 14 66 45 105v694h112v-700h-49c-23 -24 -34 -48 -34 -69c0 -54 64 -95 158 -95z" />
    <glyph glyph-name="J" unicode="J" horiz-adv-x="838" 
d="M404 -16c-206 0 -343 95 -343 355h113c0 -190 68 -262 230 -262c163 0 230 72 230 262v268h-480v93h592v-361c0 -260 -137 -355 -342 -355z" />
    <glyph glyph-name="K" unicode="K" horiz-adv-x="950" 
d="M91 0v700h112v-433l508 433h154l-291 -243l312 -457h-135l-261 389l-287 -239v-150h-112z" />
    <glyph glyph-name="Kcommaaccent" unicode="&#x136;" horiz-adv-x="950" 
d="M91 0v700h112v-433l508 433h154l-291 -243l312 -457h-135l-261 389l-287 -239v-150h-112zM329 -350l63 270h103l-113 -270h-53z" />
    <glyph glyph-name="L" unicode="L" horiz-adv-x="755" 
d="M91 0v700h112v-607h511v-93h-623z" />
    <glyph glyph-name="Lacute" unicode="&#x139;" horiz-adv-x="755" 
d="M148 744v80l287 186v-102zM91 0v700h112v-607h511v-93h-623z" />
    <glyph glyph-name="Lcaron" unicode="&#x13d;" horiz-adv-x="755" 
d="M91 0v700h112v-607h511v-93h-623zM338 429l63 270h103l-113 -270h-53z" />
    <glyph glyph-name="Lcommaaccent" unicode="&#x13b;" horiz-adv-x="755" 
d="M91 0v700h112v-607h511v-93h-623zM279 -350l63 270h103l-113 -270h-53z" />
    <glyph glyph-name="Lslash" unicode="&#x141;" horiz-adv-x="755" 
d="M203 93h511v-93h-623v318l-84 -48l-47 82l131 75v273h112v-208l222 127l48 -81l-270 -155v-290z" />
    <glyph glyph-name="M" unicode="M" horiz-adv-x="1065" 
d="M91 0v700h139l302 -529l303 529h138v-700h-112v544l-319 -544h-19l-320 540v-540h-112z" />
    <glyph glyph-name="N" unicode="N" horiz-adv-x="967" 
d="M91 0v700h114l559 -564v564h112v-700h-115l-558 563v-563h-112z" />
    <glyph glyph-name="Nacute" unicode="&#x143;" horiz-adv-x="967" 
d="M465 744v80l287 186v-102zM91 0v700h114l559 -564v564h112v-700h-115l-558 563v-563h-112z" />
    <glyph glyph-name="Ncaron" unicode="&#x147;" horiz-adv-x="967" 
d="M776 941l-287 -186l-287 186v80l287 -164l287 164v-80zM764 700h112v-700h-115l-558 563v-563h-112v700h114l559 -564v564z" />
    <glyph glyph-name="Ncommaaccent" unicode="&#x145;" horiz-adv-x="967" 
d="M91 0v700h114l559 -564v564h112v-700h-115l-558 563v-563h-112zM379 -350l63 270h103l-113 -270h-53z" />
    <glyph glyph-name="Eng" unicode="&#x14a;" horiz-adv-x="967" 
d="M764 700h112v-700c0 -160 -86 -200 -428 -200v89c207 0 330 29 330 78c0 9 -6 21 -17 33l-558 563v-563h-112v700h114l559 -564v564z" />
    <glyph glyph-name="Ntilde" unicode="&#xd1;" horiz-adv-x="967" 
d="M574 772c-72 0 -94 72 -135 72c-36 0 -61 -23 -62 -71h-61c1 78 52 130 123 130c64 0 86 -72 135 -72c37 0 62 22 63 71h60c-1 -79 -52 -130 -123 -130zM91 0v700h114l559 -564v564h112v-700h-115l-558 563v-563h-112z" />
    <glyph glyph-name="O" unicode="O" horiz-adv-x="976" 
d="M488 -16c-273 0 -442 146 -442 366s169 366 442 366c274 0 443 -146 443 -366s-169 -366 -443 -366zM488 77c198 0 331 105 331 273c0 169 -133 273 -331 273c-197 0 -330 -104 -330 -273c0 -168 133 -273 330 -273z" />
    <glyph glyph-name="Oacute" unicode="&#xd3;" horiz-adv-x="976" 
d="M465 744v80l287 186v-102zM488 -16c-273 0 -442 146 -442 366s169 366 442 366c274 0 443 -146 443 -366s-169 -366 -443 -366zM488 77c198 0 331 105 331 273c0 169 -133 273 -331 273c-197 0 -330 -104 -330 -273c0 -168 133 -273 330 -273z" />
    <glyph glyph-name="Ocircumflex" unicode="&#xd4;" horiz-adv-x="976" 
d="M776 755l-287 164l-287 -164v80l287 186l287 -186v-80zM488 716c274 0 443 -146 443 -366s-169 -366 -443 -366c-273 0 -442 146 -442 366s169 366 442 366zM488 77c198 0 331 105 331 273c0 169 -133 273 -331 273c-197 0 -330 -104 -330 -273c0 -168 133 -273 330 -273
z" />
    <glyph glyph-name="Odieresis" unicode="&#xd6;" horiz-adv-x="976" 
d="M348 738c-58 0 -99 34 -99 85s41 85 99 85c64 0 99 -34 99 -85s-35 -85 -99 -85zM638 738c-58 0 -99 34 -99 85s41 85 99 85c64 0 99 -34 99 -85s-35 -85 -99 -85zM488 -16c-273 0 -442 146 -442 366s169 366 442 366c274 0 443 -146 443 -366s-169 -366 -443 -366z
M488 77c198 0 331 105 331 273c0 169 -133 273 -331 273c-197 0 -330 -104 -330 -273c0 -168 133 -273 330 -273z" />
    <glyph glyph-name="Ograve" unicode="&#xd2;" horiz-adv-x="976" 
d="M495 744l-287 164v102l287 -186v-80zM488 -16c-273 0 -442 146 -442 366s169 366 442 366c274 0 443 -146 443 -366s-169 -366 -443 -366zM488 77c198 0 331 105 331 273c0 169 -133 273 -331 273c-197 0 -330 -104 -330 -273c0 -168 133 -273 330 -273z" />
    <glyph glyph-name="Ohungarumlaut" unicode="&#x150;" horiz-adv-x="976" 
d="M353 744v80l287 186v-102zM603 744v80l287 186v-102zM488 -16c-273 0 -442 146 -442 366s169 366 442 366c274 0 443 -146 443 -366s-169 -366 -443 -366zM488 77c198 0 331 105 331 273c0 169 -133 273 -331 273c-197 0 -330 -104 -330 -273c0 -168 133 -273 330 -273z
" />
    <glyph glyph-name="Omacron" unicode="&#x14c;" horiz-adv-x="976" 
d="M223 846v54h532v-54h-532zM488 -16c-273 0 -442 146 -442 366s169 366 442 366c274 0 443 -146 443 -366s-169 -366 -443 -366zM488 77c198 0 331 105 331 273c0 169 -133 273 -331 273c-197 0 -330 -104 -330 -273c0 -168 133 -273 330 -273z" />
    <glyph glyph-name="Oslash" unicode="&#xd8;" horiz-adv-x="988" 
d="M970 700l-131 -110c60 -62 92 -144 92 -240c0 -220 -169 -366 -443 -366c-114 0 -211 26 -284 72l-66 -56h-126l128 108c-61 62 -94 145 -94 242c0 220 169 366 442 366c116 0 214 -26 288 -74l68 58h126zM158 350c0 -70 23 -129 64 -174l472 397c-55 33 -125 50 -206 50
c-197 0 -330 -104 -330 -273zM819 350c0 69 -22 127 -61 171l-472 -396c54 -31 123 -48 202 -48c198 0 331 105 331 273z" />
    <glyph glyph-name="Otilde" unicode="&#xd5;" horiz-adv-x="976" 
d="M574 772c-72 0 -94 72 -135 72c-36 0 -61 -23 -62 -71h-61c1 78 52 130 123 130c64 0 86 -72 135 -72c37 0 62 22 63 71h60c-1 -79 -52 -130 -123 -130zM488 -16c-273 0 -442 146 -442 366s169 366 442 366c274 0 443 -146 443 -366s-169 -366 -443 -366zM488 77
c198 0 331 105 331 273c0 169 -133 273 -331 273c-197 0 -330 -104 -330 -273c0 -168 133 -273 330 -273z" />
    <glyph glyph-name="OE" unicode="&#x152;" horiz-adv-x="1553" 
d="M1472 607h-526v-209h517v-85h-517v-220h526v-93h-638v104c-77 -76 -195 -120 -346 -120c-273 0 -442 146 -442 366s169 366 442 366c151 0 269 -44 346 -120v104h638v-93zM488 77c198 0 331 105 331 273c0 169 -133 273 -331 273c-197 0 -330 -104 -330 -273
c0 -168 133 -273 330 -273z" />
    <glyph glyph-name="P" unicode="P" horiz-adv-x="881" 
d="M91 0v700h493c145 0 235 -97 235 -214c0 -142 -100 -213 -235 -213h-381v-273h-112zM202 368h357c104 0 148 35 148 118s-44 120 -148 120h-357v-238z" />
    <glyph glyph-name="Thorn" unicode="&#xde;" horiz-adv-x="808" 
d="M553 500c145 0 235 -97 235 -214c0 -142 -100 -213 -235 -213h-354v-73h-116v700h115v-200h355zM528 156c88 0 148 57 148 130s-60 131 -148 131h-330l1 -261h329z" />
    <glyph glyph-name="Q" unicode="Q" horiz-adv-x="996" 
d="M952 72l-45 -69l-115 65c-76 -54 -179 -84 -304 -84c-273 0 -442 146 -442 366s169 366 442 366c274 0 443 -146 443 -366c0 -87 -27 -163 -76 -222zM488 77c80 0 149 17 203 48l-211 120l42 76l239 -138c37 44 58 101 58 167c0 169 -133 273 -331 273
c-197 0 -330 -104 -330 -273c0 -168 133 -273 330 -273z" />
    <glyph glyph-name="R" unicode="R" horiz-adv-x="941" 
d="M91 0v700h543c145 0 225 -78 225 -185c0 -112 -90 -176 -225 -176h-74c161 -11 226 -111 350 -339h-122c-130 233 -165 305 -298 305h-288l1 -305h-112zM202 401h397c106 0 148 39 148 96c0 76 -44 109 -148 109h-398z" />
    <glyph glyph-name="Racute" unicode="&#x154;" horiz-adv-x="941" 
d="M428 744v80l287 186v-102zM91 0v700h543c145 0 225 -78 225 -185c0 -112 -90 -176 -225 -176h-74c161 -11 226 -111 350 -339h-122c-130 233 -165 305 -298 305h-288l1 -305h-112zM202 401h397c106 0 148 39 148 96c0 76 -44 109 -148 109h-398z" />
    <glyph glyph-name="Rcaron" unicode="&#x158;" horiz-adv-x="941" 
d="M739 941l-287 -186l-287 186v80l287 -164l287 164v-80zM560 339c161 -11 226 -111 350 -339h-122c-130 233 -165 305 -298 305h-288l1 -305h-112v700h543c145 0 225 -78 225 -185c0 -112 -90 -176 -225 -176h-74zM202 401h397c106 0 148 39 148 96c0 76 -44 109 -148 109
h-398z" />
    <glyph glyph-name="Rcommaaccent" unicode="&#x156;" horiz-adv-x="941" 
d="M91 0v700h543c145 0 225 -78 225 -185c0 -112 -90 -176 -225 -176h-74c161 -11 226 -111 350 -339h-122c-130 233 -165 305 -298 305h-288l1 -305h-112zM202 401h397c106 0 148 39 148 96c0 76 -44 109 -148 109h-398zM344 -350l63 270h103l-113 -270h-53z" />
    <glyph glyph-name="S" unicode="S" horiz-adv-x="864" 
d="M429 -16c-236 0 -386 96 -383 237h114c-1 -89 108 -144 261 -144c184 1 284 39 284 119c0 206 -646 7 -646 305c0 141 148 215 361 215c228 0 379 -92 381 -237h-115c1 90 -108 144 -260 144c-164 0 -252 -39 -252 -109c0 -178 644 8 644 -313
c0 -143 -159 -217 -389 -217z" />
    <glyph glyph-name="Sacute" unicode="&#x15a;" horiz-adv-x="864" 
d="M414 744v80l287 186v-102zM429 -16c-236 0 -386 96 -383 237h114c-1 -89 108 -144 261 -144c184 1 284 39 284 119c0 206 -646 7 -646 305c0 141 148 215 361 215c228 0 379 -92 381 -237h-115c1 90 -108 144 -260 144c-164 0 -252 -39 -252 -109c0 -178 644 8 644 -313
c0 -143 -159 -217 -389 -217z" />
    <glyph glyph-name="Scaron" unicode="&#x160;" horiz-adv-x="864" 
d="M725 941l-287 -186l-287 186v80l287 -164l287 164v-80zM174 514c0 -178 644 8 644 -313c0 -143 -159 -217 -389 -217c-236 0 -386 96 -383 237h114c-1 -89 108 -144 261 -144c184 1 284 39 284 119c0 206 -646 7 -646 305c0 141 148 215 361 215c228 0 379 -92 381 -237
h-115c1 90 -108 144 -260 144c-164 0 -252 -39 -252 -109z" />
    <glyph glyph-name="Scedilla" unicode="&#x15e;" horiz-adv-x="864" 
d="M461 -69c199 -9 326 -47 326 -108c0 -62 -170 -109 -426 -110v55c228 1 300 23 300 55c0 34 -72 55 -300 58v53l29 51c-213 10 -347 103 -344 236h114c-1 -89 108 -144 261 -144c184 1 284 39 284 119c0 206 -646 7 -646 305c0 141 148 215 361 215
c228 0 379 -92 381 -237h-115c1 90 -108 144 -260 144c-164 0 -252 -39 -252 -109c0 -178 644 8 644 -313c0 -130 -132 -203 -329 -215z" />
    <glyph glyph-name="Scommaaccent" unicode="&#x218;" horiz-adv-x="864" 
d="M429 -16c-236 0 -386 96 -383 237h114c-1 -89 108 -144 261 -144c184 1 284 39 284 119c0 206 -646 7 -646 305c0 141 148 215 361 215c228 0 379 -92 381 -237h-115c1 90 -108 144 -260 144c-164 0 -252 -39 -252 -109c0 -178 644 8 644 -313
c0 -143 -159 -217 -389 -217zM330 -350l63 270h103l-113 -270h-53z" />
    <glyph glyph-name="T" unicode="T" horiz-adv-x="896" 
d="M391 0v607h-355v93h823v-93h-356v-607h-112z" />
    <glyph glyph-name="Tbar" unicode="&#x166;" horiz-adv-x="896" 
d="M859 607h-356v-235h195v-83h-195v-289h-112v289h-193v83h193v235h-355v93h823v-93z" />
    <glyph glyph-name="Tcaron" unicode="&#x164;" horiz-adv-x="896" 
d="M735 941l-287 -186l-287 186v80l287 -164l287 164v-80zM36 700h823v-93h-356v-607h-112v607h-355v93z" />
    <glyph glyph-name="uni0162" unicode="&#x162;" horiz-adv-x="896" 
d="M859 607h-356v-572h1l-1 -2v-33h-17l-35 -69c199 -9 326 -47 326 -108c0 -62 -170 -109 -426 -110v55c228 1 300 23 300 55c0 34 -72 55 -300 58v53l40 70v603h-355v93h823v-93z" />
    <glyph glyph-name="uni021A" unicode="&#x21a;" horiz-adv-x="896" 
d="M391 0v607h-355v93h823v-93h-356v-607h-112zM335 -350l63 270h103l-113 -270h-53z" />
    <glyph glyph-name="U" unicode="U" horiz-adv-x="902" 
d="M451 -16c-229 0 -360 93 -360 391v325h112v-355c0 -183 73 -269 248 -269s247 86 247 269v355h112v-325c0 -298 -130 -391 -359 -391z" />
    <glyph glyph-name="Uacute" unicode="&#xda;" horiz-adv-x="902" 
d="M427 744v80l287 186v-102zM451 -16c-229 0 -360 93 -360 391v325h112v-355c0 -183 73 -269 248 -269s247 86 247 269v355h112v-325c0 -298 -130 -391 -359 -391z" />
    <glyph glyph-name="Ucircumflex" unicode="&#xdb;" horiz-adv-x="902" 
d="M738 755l-287 164l-287 -164v80l287 186l287 -186v-80zM698 700h112v-325c0 -298 -130 -391 -359 -391s-360 93 -360 391v325h112v-355c0 -183 73 -269 248 -269s247 86 247 269v355z" />
    <glyph glyph-name="Udieresis" unicode="&#xdc;" horiz-adv-x="902" 
d="M310 738c-58 0 -99 34 -99 85s41 85 99 85c64 0 99 -34 99 -85s-35 -85 -99 -85zM600 738c-58 0 -99 34 -99 85s41 85 99 85c64 0 99 -34 99 -85s-35 -85 -99 -85zM451 -16c-229 0 -360 93 -360 391v325h112v-355c0 -183 73 -269 248 -269s247 86 247 269v355h112v-325
c0 -298 -130 -391 -359 -391z" />
    <glyph glyph-name="Ugrave" unicode="&#xd9;" horiz-adv-x="902" 
d="M457 744l-287 164v102l287 -186v-80zM451 -16c-229 0 -360 93 -360 391v325h112v-355c0 -183 73 -269 248 -269s247 86 247 269v355h112v-325c0 -298 -130 -391 -359 -391z" />
    <glyph glyph-name="Uhungarumlaut" unicode="&#x170;" horiz-adv-x="902" 
d="M315 744v80l287 186v-102zM565 744v80l287 186v-102zM451 -16c-229 0 -360 93 -360 391v325h112v-355c0 -183 73 -269 248 -269s247 86 247 269v355h112v-325c0 -298 -130 -391 -359 -391z" />
    <glyph glyph-name="Umacron" unicode="&#x16a;" horiz-adv-x="902" 
d="M185 846v54h532v-54h-532zM451 -16c-229 0 -360 93 -360 391v325h112v-355c0 -183 73 -269 248 -269s247 86 247 269v355h112v-325c0 -298 -130 -391 -359 -391z" />
    <glyph glyph-name="Uogonek" unicode="&#x172;" horiz-adv-x="902" 
d="M698 700h112v-325c0 -284 -118 -382 -327 -390c-14 -19 -21 -37 -21 -54c0 -54 64 -95 158 -95c25 0 53 3 84 10l-3 -60c-36 -11 -74 -16 -110 -16c-110 0 -203 51 -203 131c0 25 9 53 29 84c-208 9 -326 107 -326 390v325h112v-355c0 -183 73 -269 248 -269
s247 86 247 269v355z" />
    <glyph glyph-name="Uring" unicode="&#x16e;" horiz-adv-x="902" 
d="M451 738c-136 0 -253 41 -253 103s117 103 253 103c150 0 253 -41 253 -103s-103 -103 -253 -103zM451 789c51 0 91 18 91 51c0 36 -37 53 -91 53c-51 0 -89 -17 -89 -52s38 -52 89 -52zM451 -16c-229 0 -360 93 -360 391v325h112v-355c0 -183 73 -269 248 -269
s247 86 247 269v355h112v-325c0 -298 -130 -391 -359 -391z" />
    <glyph glyph-name="V" unicode="V" horiz-adv-x="1035" 
d="M405 0l-369 700h138l344 -668l343 668h138l-369 -700h-225z" />
    <glyph glyph-name="W" unicode="W" horiz-adv-x="1259" 
d="M318 0l-259 700h116l207 -567l200 567h94l200 -567l207 567h117l-259 -700h-118l-193 564l-194 -564h-118z" />
    <glyph glyph-name="Wacute" unicode="&#x1e82;" horiz-adv-x="1259" 
d="M606 744v80l287 186v-102zM318 0l-259 700h116l207 -567l200 567h94l200 -567l207 567h117l-259 -700h-118l-193 564l-194 -564h-118z" />
    <glyph glyph-name="Wcircumflex" unicode="&#x174;" horiz-adv-x="1259" 
d="M917 755l-287 164l-287 -164v80l287 186l287 -186v-80zM1083 700h117l-259 -700h-118l-193 564l-194 -564h-118l-259 700h116l207 -567l200 567h94l200 -567z" />
    <glyph glyph-name="Wdieresis" unicode="&#x1e84;" horiz-adv-x="1259" 
d="M489 738c-58 0 -99 34 -99 85s41 85 99 85c64 0 99 -34 99 -85s-35 -85 -99 -85zM779 738c-58 0 -99 34 -99 85s41 85 99 85c64 0 99 -34 99 -85s-35 -85 -99 -85zM318 0l-259 700h116l207 -567l200 567h94l200 -567l207 567h117l-259 -700h-118l-193 564l-194 -564h-118
z" />
    <glyph glyph-name="Wgrave" unicode="&#x1e80;" horiz-adv-x="1259" 
d="M636 744l-287 164v102l287 -186v-80zM318 0l-259 700h116l207 -567l200 567h94l200 -567l207 567h117l-259 -700h-118l-193 564l-194 -564h-118z" />
    <glyph glyph-name="X" unicode="X" horiz-adv-x="928" 
d="M59 0l332 351l-333 349h139l267 -283l267 283h138l-337 -355l327 -345h-136l-264 280l-265 -280h-135z" />
    <glyph glyph-name="Y" unicode="Y" horiz-adv-x="868" 
d="M378 0v226l-353 474h137l272 -368l272 368h137l-353 -473v-227h-112z" />
    <glyph glyph-name="Yacute" unicode="&#xdd;" horiz-adv-x="868" 
d="M410 744v80l287 186v-102zM378 0v226l-353 474h137l272 -368l272 368h137l-353 -473v-227h-112z" />
    <glyph glyph-name="Ycircumflex" unicode="&#x176;" horiz-adv-x="868" 
d="M721 755l-287 164l-287 -164v80l287 186l287 -186v-80zM706 700h137l-353 -473v-227h-112v226l-353 474h137l272 -368z" />
    <glyph glyph-name="Ydieresis" unicode="&#x178;" horiz-adv-x="868" 
d="M293 738c-58 0 -99 34 -99 85s41 85 99 85c64 0 99 -34 99 -85s-35 -85 -99 -85zM583 738c-58 0 -99 34 -99 85s41 85 99 85c64 0 99 -34 99 -85s-35 -85 -99 -85zM378 0v226l-353 474h137l272 -368l272 368h137l-353 -473v-227h-112z" />
    <glyph glyph-name="Ygrave" unicode="&#x1ef2;" horiz-adv-x="868" 
d="M440 744l-287 164v102l287 -186v-80zM378 0v226l-353 474h137l272 -368l272 368h137l-353 -473v-227h-112z" />
    <glyph glyph-name="Z" unicode="Z" horiz-adv-x="879" 
d="M46 0v65l616 542h-608v93h769v-62l-611 -545h621v-93h-787z" />
    <glyph glyph-name="Zacute" unicode="&#x179;" horiz-adv-x="879" 
d="M396 744v80l287 186v-102zM46 0v65l616 542h-608v93h769v-62l-611 -545h621v-93h-787z" />
    <glyph glyph-name="Zcaron" unicode="&#x17d;" horiz-adv-x="879" 
d="M707 941l-287 -186l-287 186v80l287 -164l287 164v-80zM212 93h621v-93h-787v65l616 542h-608v93h769v-62z" />
    <glyph glyph-name="Zdotaccent" unicode="&#x17b;" horiz-adv-x="879" 
d="M420 738c-58 0 -99 34 -99 85s41 85 99 85c64 0 99 -34 99 -85s-35 -85 -99 -85zM46 0v65l616 542h-608v93h769v-62l-611 -545h621v-93h-787z" />
    <glyph glyph-name="A.001" horiz-adv-x="1083" 
d="M36 0l402 700h207l401 -700h-139l-87 163h-558l-87 -163h-139zM307 245h469l-235 438z" />
    <glyph glyph-name="B.001" horiz-adv-x="926" 
d="M91 0v700h513c145 0 225 -78 225 -174c0 -123 -90 -165 -225 -165h-41v-11h63c136 0 226 -52 226 -175c0 -101 -90 -175 -226 -175h-535zM204 390h354c112 0 159 32 159 97c0 82 -47 120 -159 120h-354v-217zM205 94h375c112 0 159 39 159 122c0 72 -47 105 -159 105
h-376z" />
    <glyph glyph-name="C.001" horiz-adv-x="858" 
d="M518 -16c-303 0 -472 146 -472 366s169 366 472 366c118 -1 203 -14 295 -54v-103c-81 41 -189 64 -295 64c-214 0 -360 -104 -360 -273c0 -168 146 -273 360 -273c106 0 214 23 295 64v-103c-92 -40 -177 -53 -295 -54z" />
    <glyph glyph-name="G.001" horiz-adv-x="871" 
d="M516 -16c-303 0 -472 146 -472 366s169 366 472 366c118 -1 198 -14 290 -54v-103c-81 41 -185 64 -290 64c-213 0 -360 -104 -360 -273c0 -168 147 -273 360 -273c72 0 139 10 201 29v192h-389v84h498v-324c-96 -40 -200 -73 -310 -74z" />
    <glyph glyph-name="J.001" horiz-adv-x="688" 
d="M278 -16c-118 1 -181 14 -273 54v113c105 -52 184 -74 273 -74c147 0 207 72 207 262v361h112v-361c0 -248 -92 -355 -319 -355z" />
    <glyph glyph-name="K.001" horiz-adv-x="938" 
d="M91 0v700h112v-464l432 464h188l-262 -239l314 -461h-146l-248 389c-138 -126 -207 -184 -278 -229v-160h-112z" />
    <glyph glyph-name="R.001" horiz-adv-x="909" 
d="M91 0v700h509c145 0 225 -78 225 -185c0 -112 -90 -151 -225 -151h-71v-11c129 0 240 -111 358 -353h-131c-130 233 -221 324 -331 324h-223l1 -324h-112zM202 424h352c118 0 159 24 159 87c0 71 -41 95 -159 95h-353z" />
    <glyph glyph-name="S.001" horiz-adv-x="890" 
d="M439 -15c-161 0 -309 47 -367 74v106c66 -35 229 -87 351 -87c216 0 310 29 310 100c0 203 -687 62 -687 327c0 150 188 210 388 210c121 0 258 -13 351 -54v-103c-78 39 -236 64 -336 64c-205 0 -291 -29 -291 -102c0 -175 687 -54 687 -315c0 -172 -220 -220 -406 -220
z" />
    <glyph glyph-name="a" unicode="a" horiz-adv-x="672" 
d="M232 -16c-74 0 -186 16 -186 132c0 167 361 169 469 180c-1 106 -49 138 -171 138c-78 0 -168 -28 -235 -57v85c84 31 187 54 275 54c175 0 243 -94 243 -234v-282h-113l30 179h-7c-30 -137 -152 -195 -305 -195zM271 66c122 0 238 56 241 161c-116 -10 -348 -9 -348 -98
c0 -40 39 -63 107 -63z" />
    <glyph glyph-name="aacute" unicode="&#xe1;" horiz-adv-x="672" 
d="M334 544v80l287 186v-102zM232 -16c-74 0 -186 16 -186 132c0 167 361 169 469 180c-1 106 -49 138 -171 138c-78 0 -168 -28 -235 -57v85c84 31 187 54 275 54c175 0 243 -94 243 -234v-282h-113l30 179h-7c-30 -137 -152 -195 -305 -195zM271 66c122 0 238 56 241 161
c-116 -10 -348 -9 -348 -98c0 -40 39 -63 107 -63z" />
    <glyph glyph-name="abreve" unicode="&#x103;" horiz-adv-x="672" 
d="M358 551c-122 0 -212 59 -213 149h105c2 -55 46 -81 108 -81c64 0 106 26 110 81h103c-1 -90 -77 -149 -213 -149zM232 -16c-74 0 -186 16 -186 132c0 167 361 169 469 180c-1 106 -49 138 -171 138c-78 0 -168 -28 -235 -57v85c84 31 187 54 275 54
c175 0 243 -94 243 -234v-282h-113l30 179h-7c-30 -137 -152 -195 -305 -195zM271 66c122 0 238 56 241 161c-116 -10 -348 -9 -348 -98c0 -40 39 -63 107 -63z" />
    <glyph glyph-name="acircumflex" unicode="&#xe2;" horiz-adv-x="672" 
d="M358 821l287 -186v-80l-287 164l-287 -164v80zM384 516c175 0 243 -94 243 -234v-282h-113l30 179h-7c-30 -137 -152 -195 -305 -195c-74 0 -186 16 -186 132c0 167 361 169 469 180c-1 106 -49 138 -171 138c-78 0 -168 -28 -235 -57v85c84 31 187 54 275 54zM271 66
c122 0 238 56 241 161c-116 -10 -348 -9 -348 -98c0 -40 39 -63 107 -63z" />
    <glyph glyph-name="adieresis" unicode="&#xe4;" horiz-adv-x="672" 
d="M217 538c-58 0 -99 34 -99 85s41 85 99 85c64 0 99 -34 99 -85s-35 -85 -99 -85zM507 538c-58 0 -99 34 -99 85s41 85 99 85c64 0 99 -34 99 -85s-35 -85 -99 -85zM232 -16c-74 0 -186 16 -186 132c0 167 361 169 469 180c-1 106 -49 138 -171 138
c-78 0 -168 -28 -235 -57v85c84 31 187 54 275 54c175 0 243 -94 243 -234v-282h-113l30 179h-7c-30 -137 -152 -195 -305 -195zM271 66c122 0 238 56 241 161c-116 -10 -348 -9 -348 -98c0 -40 39 -63 107 -63z" />
    <glyph glyph-name="agrave" unicode="&#xe0;" horiz-adv-x="672" 
d="M364 544l-287 164v102l287 -186v-80zM232 -16c-74 0 -186 16 -186 132c0 167 361 169 469 180c-1 106 -49 138 -171 138c-78 0 -168 -28 -235 -57v85c84 31 187 54 275 54c175 0 243 -94 243 -234v-282h-113l30 179h-7c-30 -137 -152 -195 -305 -195zM271 66
c122 0 238 56 241 161c-116 -10 -348 -9 -348 -98c0 -40 39 -63 107 -63z" />
    <glyph glyph-name="amacron" unicode="&#x101;" horiz-adv-x="672" 
d="M92 646v54h532v-54h-532zM232 -16c-74 0 -186 16 -186 132c0 167 361 169 469 180c-1 106 -49 138 -171 138c-78 0 -168 -28 -235 -57v85c84 31 187 54 275 54c175 0 243 -94 243 -234v-282h-113l30 179h-7c-30 -137 -152 -195 -305 -195zM271 66c122 0 238 56 241 161
c-116 -10 -348 -9 -348 -98c0 -40 39 -63 107 -63z" />
    <glyph glyph-name="aogonek" unicode="&#x105;" horiz-adv-x="672" 
d="M683 -164c25 0 53 3 84 10l-3 -60c-36 -11 -74 -16 -110 -16c-110 0 -203 51 -203 131c0 37 20 82 68 130l25 148h-7c-30 -137 -152 -195 -305 -195c-74 0 -186 16 -186 132c0 167 361 169 469 180c-1 106 -49 138 -171 138c-78 0 -168 -28 -235 -57v85
c84 31 187 54 275 54c175 0 243 -94 243 -234v-282h-68c-23 -24 -34 -48 -34 -69c0 -54 64 -95 158 -95zM271 66c122 0 238 56 241 161c-116 -10 -348 -9 -348 -98c0 -40 39 -63 107 -63z" />
    <glyph glyph-name="aring" unicode="&#xe5;" horiz-adv-x="672" 
d="M358 538c-136 0 -253 41 -253 103s117 103 253 103c150 0 253 -41 253 -103s-103 -103 -253 -103zM358 589c51 0 91 18 91 51c0 36 -37 53 -91 53c-51 0 -89 -17 -89 -52s38 -52 89 -52zM232 -16c-74 0 -186 16 -186 132c0 167 361 169 469 180c-1 106 -49 138 -171 138
c-78 0 -168 -28 -235 -57v85c84 31 187 54 275 54c175 0 243 -94 243 -234v-282h-113l30 179h-7c-30 -137 -152 -195 -305 -195zM271 66c122 0 238 56 241 161c-116 -10 -348 -9 -348 -98c0 -40 39 -63 107 -63z" />
    <glyph glyph-name="atilde" unicode="&#xe3;" horiz-adv-x="672" 
d="M443 572c-72 0 -94 72 -135 72c-36 0 -61 -23 -62 -71h-61c1 78 52 130 123 130c64 0 86 -72 135 -72c37 0 62 22 63 71h60c-1 -79 -52 -130 -123 -130zM232 -16c-74 0 -186 16 -186 132c0 167 361 169 469 180c-1 106 -49 138 -171 138c-78 0 -168 -28 -235 -57v85
c84 31 187 54 275 54c175 0 243 -94 243 -234v-282h-113l30 179h-7c-30 -137 -152 -195 -305 -195zM271 66c122 0 238 56 241 161c-116 -10 -348 -9 -348 -98c0 -40 39 -63 107 -63z" />
    <glyph glyph-name="ae" unicode="&#xe6;" horiz-adv-x="1160" 
d="M232 -16c-74 0 -186 16 -186 132c0 162 330 169 457 182c-1 113 -37 136 -159 136c-78 0 -168 -25 -235 -54v82c84 31 187 54 275 54c96 0 160 -31 196 -86c53 55 134 86 233 86c179 0 298 -91 301 -227v-82h-498c16 -102 92 -139 247 -139c122 0 172 31 229 55v-90
c-106 -40 -160 -49 -279 -49c-150 0 -258 73 -290 188c-34 -133 -140 -188 -291 -188zM615 276l394 8c-3 112 -61 149 -196 149c-132 0 -192 -39 -198 -157zM269 66c124 0 233 55 235 162c-121 -11 -340 -12 -340 -99c0 -40 39 -63 105 -63z" />
    <glyph glyph-name="b" unicode="b" horiz-adv-x="769" 
d="M461 -16c-125 0 -257 52 -282 179h-12l22 -163h-116v700h112v-362h4c25 124 146 178 270 178c139 0 265 -105 265 -262c0 -162 -125 -270 -263 -270zM414 67c120 0 196 75 196 185c0 107 -76 181 -196 181c-107 0 -198 -74 -198 -181c0 -110 91 -185 198 -185z" />
    <glyph glyph-name="c" unicode="c" horiz-adv-x="632" 
d="M359 -16c-181 0 -313 106 -313 266c0 161 125 266 314 266c90 0 146 -18 226 -54v-91c-78 44 -138 62 -200 62c-152 0 -227 -45 -227 -183c0 -137 76 -183 230 -183c73 0 131 16 197 58v-87c-81 -36 -128 -54 -227 -54z" />
    <glyph glyph-name="cacute" unicode="&#x107;" horiz-adv-x="632" 
d="M336 544v80l287 186v-102zM359 -16c-181 0 -313 106 -313 266c0 161 125 266 314 266c90 0 146 -18 226 -54v-91c-78 44 -138 62 -200 62c-152 0 -227 -45 -227 -183c0 -137 76 -183 230 -183c73 0 131 16 197 58v-87c-81 -36 -128 -54 -227 -54z" />
    <glyph glyph-name="ccaron" unicode="&#x10d;" horiz-adv-x="632" 
d="M360 657l287 164v-80l-287 -186l-287 186v80zM46 250c0 161 125 266 314 266c90 0 146 -18 226 -54v-91c-78 44 -138 62 -200 62c-152 0 -227 -45 -227 -183c0 -137 76 -183 230 -183c73 0 131 16 197 58v-87c-81 -36 -128 -54 -227 -54c-181 0 -313 106 -313 266z" />
    <glyph glyph-name="ccedilla" unicode="&#xe7;" horiz-adv-x="632" 
d="M346 -69c199 -9 326 -47 326 -108c0 -62 -170 -109 -426 -110v55c228 1 300 23 300 55c0 34 -72 55 -300 58v53l33 57c-139 27 -233 124 -233 259c0 161 125 266 314 266c90 0 146 -18 226 -54v-91c-78 44 -138 62 -200 62c-152 0 -227 -45 -227 -183
c0 -137 76 -183 230 -183c73 0 131 16 197 58v-87c-77 -34 -123 -52 -213 -54z" />
    <glyph glyph-name="cdotaccent" unicode="&#x10b;" horiz-adv-x="632" 
d="M360 538c-58 0 -99 34 -99 85s41 85 99 85c64 0 99 -34 99 -85s-35 -85 -99 -85zM359 -16c-181 0 -313 106 -313 266c0 161 125 266 314 266c90 0 146 -18 226 -54v-91c-78 44 -138 62 -200 62c-152 0 -227 -45 -227 -183c0 -137 76 -183 230 -183c73 0 131 16 197 58
v-87c-81 -36 -128 -54 -227 -54z" />
    <glyph glyph-name="d" unicode="d" horiz-adv-x="769" 
d="M308 -16c-138 0 -263 108 -263 270c0 157 126 262 265 262c124 0 245 -54 270 -178h4v362h112v-700h-116l22 163h-12c-25 -127 -157 -179 -282 -179zM355 67c107 0 198 75 198 185c0 107 -91 181 -198 181c-120 0 -196 -74 -196 -181c0 -110 76 -185 196 -185z" />
    <glyph glyph-name="eth" unicode="&#xf0;" horiz-adv-x="815" 
d="M807 639l-109 -32c55 -65 86 -149 86 -245c0 -255 -143 -374 -388 -374c-233 0 -366 93 -366 234c0 136 98 238 319 238c152 0 265 -83 321 -148c1 16 2 33 2 50c0 64 -14 149 -72 217l-233 -68l-28 76l186 54c-47 27 -107 46 -186 53l4 61c113 0 211 -30 286 -84l149 43
zM405 70c143 0 220 46 251 154c-44 98 -163 181 -282 181c-138 0 -231 -67 -231 -168c0 -99 104 -167 262 -167z" />
    <glyph glyph-name="dcaron" unicode="&#x10f;" horiz-adv-x="916" 
d="M308 -16c-138 0 -263 108 -263 270c0 157 126 262 265 262c124 0 245 -54 270 -178h4v362h112v-700h-116l22 163h-12c-25 -127 -157 -179 -282 -179zM721 429l63 270h103l-113 -270h-53zM355 67c107 0 198 75 198 185c0 107 -91 181 -198 181c-120 0 -196 -74 -196 -181
c0 -110 76 -185 196 -185z" />
    <glyph glyph-name="dcroat" unicode="&#x111;" horiz-adv-x="779" 
d="M717 639v-103h-21v-536h-116l22 163h-12c-25 -127 -157 -179 -282 -179c-138 0 -263 108 -263 270c0 157 126 262 265 262c124 0 245 -54 270 -178h4v198h-325v103h325v61h112v-61h21zM355 67c107 0 198 75 198 185c0 107 -91 181 -198 181c-120 0 -196 -74 -196 -181
c0 -110 76 -185 196 -185z" />
    <glyph glyph-name="e" unicode="e" horiz-adv-x="693" 
d="M347 -16c-181 0 -301 106 -301 266s120 266 301 266c179 0 298 -91 301 -227v-82h-498c16 -101 92 -139 247 -139c122 0 172 31 229 55v-90c-106 -40 -161 -49 -279 -49zM148 276l395 8c-3 111 -61 149 -196 149c-132 0 -191 -41 -199 -157z" />
    <glyph glyph-name="eacute" unicode="&#xe9;" horiz-adv-x="693" 
d="M323 544v80l287 186v-102zM347 -16c-181 0 -301 106 -301 266s120 266 301 266c179 0 298 -91 301 -227v-82h-498c16 -101 92 -139 247 -139c122 0 172 31 229 55v-90c-106 -40 -161 -49 -279 -49zM148 276l395 8c-3 111 -61 149 -196 149c-132 0 -191 -41 -199 -157z
" />
    <glyph glyph-name="ecaron" unicode="&#x11b;" horiz-adv-x="693" 
d="M634 741l-287 -186l-287 186v80l287 -164l287 164v-80zM648 289v-82h-498c16 -101 92 -139 247 -139c122 0 172 31 229 55v-90c-106 -40 -161 -49 -279 -49c-181 0 -301 106 -301 266s120 266 301 266c179 0 298 -91 301 -227zM148 276l395 8c-3 111 -61 149 -196 149
c-132 0 -191 -41 -199 -157z" />
    <glyph glyph-name="ecircumflex" unicode="&#xea;" horiz-adv-x="693" 
d="M634 555l-287 164l-287 -164v80l287 186l287 -186v-80zM648 289v-82h-498c16 -101 92 -139 247 -139c122 0 172 31 229 55v-90c-106 -40 -161 -49 -279 -49c-181 0 -301 106 -301 266s120 266 301 266c179 0 298 -91 301 -227zM148 276l395 8c-3 111 -61 149 -196 149
c-132 0 -191 -41 -199 -157z" />
    <glyph glyph-name="edieresis" unicode="&#xeb;" horiz-adv-x="693" 
d="M206 538c-58 0 -99 34 -99 85s41 85 99 85c64 0 99 -34 99 -85s-35 -85 -99 -85zM496 538c-58 0 -99 34 -99 85s41 85 99 85c64 0 99 -34 99 -85s-35 -85 -99 -85zM347 -16c-181 0 -301 106 -301 266s120 266 301 266c179 0 298 -91 301 -227v-82h-498
c16 -101 92 -139 247 -139c122 0 172 31 229 55v-90c-106 -40 -161 -49 -279 -49zM148 276l395 8c-3 111 -61 149 -196 149c-132 0 -191 -41 -199 -157z" />
    <glyph glyph-name="edotaccent" unicode="&#x117;" horiz-adv-x="693" 
d="M347 538c-58 0 -99 34 -99 85s41 85 99 85c64 0 99 -34 99 -85s-35 -85 -99 -85zM347 -16c-181 0 -301 106 -301 266s120 266 301 266c179 0 298 -91 301 -227v-82h-498c16 -101 92 -139 247 -139c122 0 172 31 229 55v-90c-106 -40 -161 -49 -279 -49zM148 276l395 8
c-3 111 -61 149 -196 149c-132 0 -191 -41 -199 -157z" />
    <glyph glyph-name="egrave" unicode="&#xe8;" horiz-adv-x="693" 
d="M372 544l-287 164v102l287 -186v-80zM347 -16c-181 0 -301 106 -301 266s120 266 301 266c179 0 298 -91 301 -227v-82h-498c16 -101 92 -139 247 -139c122 0 172 31 229 55v-90c-106 -40 -161 -49 -279 -49zM148 276l395 8c-3 111 -61 149 -196 149
c-132 0 -191 -41 -199 -157z" />
    <glyph glyph-name="emacron" unicode="&#x113;" horiz-adv-x="693" 
d="M81 646v54h532v-54h-532zM347 -16c-181 0 -301 106 -301 266s120 266 301 266c179 0 298 -91 301 -227v-82h-498c16 -101 92 -139 247 -139c122 0 172 31 229 55v-90c-106 -40 -161 -49 -279 -49zM148 276l395 8c-3 111 -61 149 -196 149c-132 0 -191 -41 -199 -157z" />
    <glyph glyph-name="eogonek" unicode="&#x119;" horiz-adv-x="693" 
d="M648 289v-82h-498c16 -101 92 -139 247 -139c122 0 172 31 229 55v-90c-93 -35 -147 -46 -239 -49c-14 -18 -21 -36 -21 -53c0 -54 64 -95 158 -95c25 0 53 3 84 10l-3 -60c-36 -11 -74 -16 -110 -16c-110 0 -203 51 -203 131c0 25 9 53 29 84c-166 9 -275 113 -275 265
c0 160 120 266 301 266c179 0 298 -91 301 -227zM148 276l395 8c-3 111 -61 149 -196 149c-132 0 -191 -41 -199 -157z" />
    <glyph glyph-name="f" unicode="f" horiz-adv-x="447" 
d="M121 0v420h-68v80h68v20c0 122 51 188 168 188c31 0 61 -7 99 -15v-55c-12 -1 -24 1 -34 1c-110 0 -121 -27 -121 -139h155v-70h-155v-430h-112z" />
    <glyph glyph-name="g" unicode="g" horiz-adv-x="766" 
d="M376 -200c-123 0 -167 21 -245 51v101c55 -42 156 -69 252 -69c148 0 209 72 210 169l5 98c-32 -118 -158 -169 -280 -169c-138 0 -262 111 -262 273c0 157 125 262 264 262c124 0 245 -54 271 -178h13l-11 162h102v-440c0 -180 -132 -260 -319 -260zM365 67
c106 0 198 75 198 185c0 107 -91 181 -198 181c-119 0 -196 -74 -196 -181c0 -110 77 -185 196 -185z" />
    <glyph glyph-name="gbreve" unicode="&#x11f;" horiz-adv-x="766" 
d="M428 551c-122 0 -212 59 -213 149h105c2 -55 46 -81 108 -81c64 0 106 26 110 81h103c-1 -90 -77 -149 -213 -149zM376 -200c-123 0 -167 21 -245 51v101c55 -42 156 -69 252 -69c148 0 209 72 210 169l5 98c-32 -118 -158 -169 -280 -169c-138 0 -262 111 -262 273
c0 157 125 262 264 262c124 0 245 -54 271 -178h13l-11 162h102v-440c0 -180 -132 -260 -319 -260zM365 67c106 0 198 75 198 185c0 107 -91 181 -198 181c-119 0 -196 -74 -196 -181c0 -110 77 -185 196 -185z" />
    <glyph glyph-name="gcommaaccent" unicode="&#x123;" horiz-adv-x="766" 
d="M376 -200c-123 0 -167 21 -245 51v101c55 -42 156 -69 252 -69c148 0 209 72 210 169l5 98c-32 -118 -158 -169 -280 -169c-138 0 -262 111 -262 273c0 157 125 262 264 262c124 0 245 -54 271 -178h13l-11 162h102v-440c0 -180 -132 -260 -319 -260zM365 67
c106 0 198 75 198 185c0 107 -91 181 -198 181c-119 0 -196 -74 -196 -181c0 -110 77 -185 196 -185zM261 -532l63 270h103l-113 -270h-53z" />
    <glyph glyph-name="gdotaccent" unicode="&#x121;" horiz-adv-x="766" 
d="M428 538c-58 0 -99 34 -99 85s41 85 99 85c64 0 99 -34 99 -85s-35 -85 -99 -85zM376 -200c-123 0 -167 21 -245 51v101c55 -42 156 -69 252 -69c148 0 209 72 210 169l5 98c-32 -118 -158 -169 -280 -169c-138 0 -262 111 -262 273c0 157 125 262 264 262
c124 0 245 -54 271 -178h13l-11 162h102v-440c0 -180 -132 -260 -319 -260zM365 67c106 0 198 75 198 185c0 107 -91 181 -198 181c-119 0 -196 -74 -196 -181c0 -110 77 -185 196 -185z" />
    <glyph glyph-name="h" unicode="h" horiz-adv-x="686" 
d="M73 0v700h126l-20 -406h6c19 117 97 222 243 222c143 -2 213 -97 213 -299v-217h-112v200c0 160 -45 232 -149 232c-122 0 -195 -118 -195 -309v-123h-112z" />
    <glyph glyph-name="hbar" unicode="&#x127;" horiz-adv-x="686" 
d="M428 516c143 -2 213 -97 213 -299v-217h-112v200c0 160 -45 232 -149 232c-122 0 -195 -118 -195 -309v-123h-112v536h-58v103h58v61h126l-3 -61h277v-103h-282l-12 -242h6c19 117 97 222 243 222z" />
    <glyph glyph-name="i" unicode="i" horiz-adv-x="284" 
d="M141 609c-42 0 -72 24 -72 69c0 44 30 69 72 69c43 0 74 -25 74 -69c0 -45 -31 -69 -74 -69zM87 0v500h112v-500h-112z" />
    <glyph glyph-name="dotlessi" unicode="&#x131;" horiz-adv-x="176" 
d="M32 0v500h112v-500h-112z" />
    <glyph glyph-name="iacute" unicode="&#xed;" horiz-adv-x="176" 
d="M64 541v80l287 186v-102zM32 0v500h112v-500h-112z" />
    <glyph glyph-name="icircumflex" unicode="&#xee;" horiz-adv-x="176" 
d="M88 818l287 -186v-80l-287 164l-287 -164v80zM32 0v500h112v-500h-112z" />
    <glyph glyph-name="idieresis" unicode="&#xef;" horiz-adv-x="176" 
d="M-53 535c-58 0 -99 34 -99 85s41 85 99 85c64 0 99 -34 99 -85s-35 -85 -99 -85zM237 535c-58 0 -99 34 -99 85s41 85 99 85c64 0 99 -34 99 -85s-35 -85 -99 -85zM32 0v500h112v-500h-112z" />
    <glyph glyph-name="i.loclTRK" horiz-adv-x="176" 
d="M87 535c-58 0 -99 34 -99 85s41 85 99 85c64 0 99 -34 99 -85s-35 -85 -99 -85zM32 0v500h112v-500h-112z" />
    <glyph glyph-name="igrave" unicode="&#xec;" horiz-adv-x="176" 
d="M94 541l-287 164v102l287 -186v-80zM32 0v500h112v-500h-112z" />
    <glyph glyph-name="imacron" unicode="&#x12b;" horiz-adv-x="176" 
d="M-178 643v54h532v-54h-532zM32 0v500h112v-500h-112z" />
    <glyph glyph-name="iogonek" unicode="&#x12f;" horiz-adv-x="284" 
d="M141 609c-42 0 -72 24 -72 69c0 44 30 69 72 69c43 0 74 -25 74 -69c0 -45 -31 -69 -74 -69zM254 -164c25 0 53 3 84 10l-3 -60c-36 -11 -74 -16 -110 -16c-110 0 -203 51 -203 131c0 36 19 80 65 127v472h112v-500h-69c-23 -24 -34 -48 -34 -69c0 -54 64 -95 158 -95z
" />
    <glyph glyph-name="j" unicode="j" horiz-adv-x="278" 
d="M138 609c-43 0 -72 24 -72 69c0 44 29 69 72 69s74 -25 74 -69c0 -45 -31 -69 -74 -69zM-17 -200v76c67 0 100 36 100 91v533h112v-510c0 -119 -107 -190 -212 -190z" />
    <glyph glyph-name="k" unicode="k" horiz-adv-x="733" 
d="M73 0v700h112v-473l324 273h166l-208 -161l213 -339h-137l-159 275l-199 -156v-119h-112z" />
    <glyph glyph-name="kcommaaccent" unicode="&#x137;" horiz-adv-x="733" 
d="M73 0v700h112v-473l324 273h166l-208 -161l213 -339h-137l-159 275l-199 -156v-119h-112zM238 -350l63 270h103l-113 -270h-53z" />
    <glyph glyph-name="l" unicode="l" horiz-adv-x="257" 
d="M73 0v700h112v-700h-112z" />
    <glyph glyph-name="lacute" unicode="&#x13a;" horiz-adv-x="257" 
d="M106 744v80l287 186v-102zM73 0v700h112v-700h-112z" />
    <glyph glyph-name="lcaron" unicode="&#x13e;" horiz-adv-x="433" 
d="M73 0v700h112v-700h-112zM224 429l63 270h103l-113 -270h-53z" />
    <glyph glyph-name="lcommaaccent" unicode="&#x13c;" horiz-adv-x="257" 
d="M73 0v700h112v-700h-112zM14 -350l63 270h103l-113 -270h-53z" />
    <glyph glyph-name="lslash" unicode="&#x142;" horiz-adv-x="540" 
d="M522 552l-190 -109v-443h-112v378l-164 -94l-37 68l201 115v233h112v-168l152 87z" />
    <glyph glyph-name="m" unicode="m" horiz-adv-x="1141" 
d="M73 0v500h126l-20 -206h6c19 117 97 222 243 222c123 -2 192 -72 209 -222h4c19 117 97 222 243 222c143 -2 213 -97 213 -299v-217h-112v200c0 163 -45 234 -149 232c-122 0 -195 -118 -195 -309v-123h-112v200c0 163 -45 234 -149 232c-122 0 -195 -118 -195 -309v-123
h-112z" />
    <glyph glyph-name="n" unicode="n" horiz-adv-x="685" 
d="M73 0v500h126l-20 -206h6c19 117 97 222 243 222c143 -2 213 -97 213 -299v-217h-112v200c0 160 -45 232 -149 232c-122 0 -195 -118 -195 -309v-123h-112z" />
    <glyph glyph-name="nacute" unicode="&#x144;" horiz-adv-x="685" 
d="M367 544v80l287 186v-102zM73 0v500h126l-20 -206h6c19 117 97 222 243 222c143 -2 213 -97 213 -299v-217h-112v200c0 160 -45 232 -149 232c-122 0 -195 -118 -195 -309v-123h-112z" />
    <glyph glyph-name="ncaron" unicode="&#x148;" horiz-adv-x="685" 
d="M391 657l287 164v-80l-287 -186l-287 186v80zM428 516c143 -2 213 -97 213 -299v-217h-112v200c0 160 -45 232 -149 232c-122 0 -195 -118 -195 -309v-123h-112v500h126l-20 -206h6c19 117 97 222 243 222z" />
    <glyph glyph-name="ncommaaccent" unicode="&#x146;" horiz-adv-x="685" 
d="M73 0v500h126l-20 -206h6c19 117 97 222 243 222c143 -2 213 -97 213 -299v-217h-112v200c0 160 -45 232 -149 232c-122 0 -195 -118 -195 -309v-123h-112zM239 -350l63 270h103l-113 -270h-53z" />
    <glyph glyph-name="eng" unicode="&#x14b;" horiz-adv-x="685" 
d="M428 516c143 -2 213 -97 213 -299v-217c-1 -171 -47 -200 -392 -200v89c202 0 280 7 280 79v32v200c0 160 -45 232 -149 232c-122 0 -195 -118 -195 -309v-123h-112v500h126l-20 -206h6c19 117 97 222 243 222z" />
    <glyph glyph-name="ntilde" unicode="&#xf1;" horiz-adv-x="685" 
d="M476 572c-72 0 -94 72 -135 72c-36 0 -61 -23 -62 -71h-61c1 78 52 130 123 130c64 0 86 -72 135 -72c37 0 62 22 63 71h60c-1 -79 -52 -130 -123 -130zM73 0v500h126l-20 -206h6c19 117 97 222 243 222c143 -2 213 -97 213 -299v-217h-112v200c0 160 -45 232 -149 232
c-122 0 -195 -118 -195 -309v-123h-112z" />
    <glyph glyph-name="o" unicode="o" horiz-adv-x="711" 
d="M355 -16c-186 0 -309 106 -309 266s123 266 309 266c187 0 310 -106 310 -266s-123 -266 -310 -266zM355 67c125 0 208 74 208 183s-83 183 -208 183c-124 0 -207 -74 -207 -183s83 -183 207 -183z" />
    <glyph glyph-name="oacute" unicode="&#xf3;" horiz-adv-x="711" 
d="M332 544v80l287 186v-102zM355 -16c-186 0 -309 106 -309 266s123 266 309 266c187 0 310 -106 310 -266s-123 -266 -310 -266zM355 67c125 0 208 74 208 183s-83 183 -208 183c-124 0 -207 -74 -207 -183s83 -183 207 -183z" />
    <glyph glyph-name="ocircumflex" unicode="&#xf4;" horiz-adv-x="711" 
d="M643 555l-287 164l-287 -164v80l287 186l287 -186v-80zM355 516c187 0 310 -106 310 -266s-123 -266 -310 -266c-186 0 -309 106 -309 266s123 266 309 266zM355 67c125 0 208 74 208 183s-83 183 -208 183c-124 0 -207 -74 -207 -183s83 -183 207 -183z" />
    <glyph glyph-name="odieresis" unicode="&#xf6;" horiz-adv-x="711" 
d="M215 538c-58 0 -99 34 -99 85s41 85 99 85c64 0 99 -34 99 -85s-35 -85 -99 -85zM505 538c-58 0 -99 34 -99 85s41 85 99 85c64 0 99 -34 99 -85s-35 -85 -99 -85zM355 -16c-186 0 -309 106 -309 266s123 266 309 266c187 0 310 -106 310 -266s-123 -266 -310 -266z
M355 67c125 0 208 74 208 183s-83 183 -208 183c-124 0 -207 -74 -207 -183s83 -183 207 -183z" />
    <glyph glyph-name="ograve" unicode="&#xf2;" horiz-adv-x="711" 
d="M362 544l-287 164v102l287 -186v-80zM355 -16c-186 0 -309 106 -309 266s123 266 309 266c187 0 310 -106 310 -266s-123 -266 -310 -266zM355 67c125 0 208 74 208 183s-83 183 -208 183c-124 0 -207 -74 -207 -183s83 -183 207 -183z" />
    <glyph glyph-name="ohungarumlaut" unicode="&#x151;" horiz-adv-x="711" 
d="M220 544v80l287 186v-102zM470 544v80l287 186v-102zM355 -16c-186 0 -309 106 -309 266s123 266 309 266c187 0 310 -106 310 -266s-123 -266 -310 -266zM355 67c125 0 208 74 208 183s-83 183 -208 183c-124 0 -207 -74 -207 -183s83 -183 207 -183z" />
    <glyph glyph-name="omacron" unicode="&#x14d;" horiz-adv-x="711" 
d="M99 646v54h532v-54h-532zM355 -16c-186 0 -309 106 -309 266s123 266 309 266c187 0 310 -106 310 -266s-123 -266 -310 -266zM355 67c125 0 208 74 208 183s-83 183 -208 183c-124 0 -207 -74 -207 -183s83 -183 207 -183z" />
    <glyph glyph-name="oslash" unicode="&#xf8;" horiz-adv-x="711" 
d="M721 500l-108 -91c33 -43 52 -97 52 -159c0 -160 -123 -266 -310 -266c-75 0 -139 17 -190 48l-38 -32h-126l102 86c-37 43 -57 99 -57 164c0 160 123 266 309 266c78 0 146 -19 197 -52l43 36h126zM148 250c0 -39 11 -73 30 -101l301 253c-34 20 -76 31 -124 31
c-124 0 -207 -74 -207 -183zM563 250c0 36 -9 68 -26 95l-298 -251c32 -17 71 -27 116 -27c125 0 208 74 208 183z" />
    <glyph glyph-name="otilde" unicode="&#xf5;" horiz-adv-x="711" 
d="M441 572c-72 0 -94 72 -135 72c-36 0 -61 -23 -62 -71h-61c1 78 52 130 123 130c64 0 86 -72 135 -72c37 0 62 22 63 71h60c-1 -79 -52 -130 -123 -130zM355 -16c-186 0 -309 106 -309 266s123 266 309 266c187 0 310 -106 310 -266s-123 -266 -310 -266zM355 67
c125 0 208 74 208 183s-83 183 -208 183c-124 0 -207 -74 -207 -183s83 -183 207 -183z" />
    <glyph glyph-name="oe" unicode="&#x153;" horiz-adv-x="1216" 
d="M1171 289v-82h-498c16 -101 92 -139 247 -139c122 0 172 31 229 55v-90c-106 -40 -161 -49 -279 -49c-113 0 -203 41 -254 112c-52 -71 -144 -112 -261 -112c-186 0 -309 106 -309 266s123 266 309 266c117 0 209 -41 261 -112c51 71 141 112 254 112
c179 0 298 -91 301 -227zM355 67c125 0 208 74 208 183s-83 183 -208 183c-124 0 -207 -74 -207 -183s83 -183 207 -183zM671 276l395 8c-3 111 -61 149 -196 149c-132 0 -191 -41 -199 -157z" />
    <glyph glyph-name="p" unicode="p" horiz-adv-x="769" 
d="M461 516c138 0 263 -108 263 -270c0 -157 -126 -262 -265 -262c-124 0 -245 54 -270 178h-4v-362h-112v700h116l-22 -163h12c25 127 157 179 282 179zM414 433c-107 0 -198 -75 -198 -185c0 -107 91 -181 198 -181c120 0 196 74 196 181c0 110 -76 185 -196 185z" />
    <glyph glyph-name="thorn" unicode="&#xfe;" horiz-adv-x="671" 
d="M398 516c138 0 243 -109 243 -270c0 -155 -105 -262 -245 -262c-127 0 -225 56 -250 178h-4v-362h-112v900h116l-22 -363h12c25 125 133 179 262 179zM353 55c116 0 176 67 176 193c0 128 -60 197 -176 197c-93 0 -177 -58 -177 -197c0 -137 84 -193 177 -193z" />
    <glyph glyph-name="q" unicode="q" horiz-adv-x="769" 
d="M308 516c125 0 257 -52 282 -179h12l-22 163h116v-700h-112v362h-4c-25 -124 -146 -178 -270 -178c-139 0 -265 105 -265 262c0 162 125 270 263 270zM355 433c-120 0 -196 -75 -196 -185c0 -107 76 -181 196 -181c107 0 198 74 198 181c0 110 -91 185 -198 185z" />
    <glyph glyph-name="r" unicode="r" horiz-adv-x="530" 
d="M73 0v500h126l-20 -206h10c26 164 103 222 305 222v-93c-225 0 -309 -94 -309 -255v-168h-112z" />
    <glyph glyph-name="racute" unicode="&#x155;" horiz-adv-x="530" 
d="M267 544v80l287 186v-102zM73 0v500h126l-20 -206h10c26 164 103 222 305 222v-93c-225 0 -309 -94 -309 -255v-168h-112z" />
    <glyph glyph-name="rcaron" unicode="&#x159;" horiz-adv-x="530" 
d="M291 657l287 164v-80l-287 -186l-287 186v80zM189 294c26 164 103 222 305 222v-93c-225 0 -309 -94 -309 -255v-168h-112v500h126l-20 -206h10z" />
    <glyph glyph-name="rcommaaccent" unicode="&#x157;" horiz-adv-x="530" 
d="M73 0v500h126l-20 -206h10c26 164 103 222 305 222v-93c-225 0 -309 -94 -309 -255v-168h-112zM11 -350l63 270h103l-113 -270h-53z" />
    <glyph glyph-name="s" unicode="s" horiz-adv-x="675" 
d="M336 -16c-77 0 -185 15 -268 39v87c84 -32 161 -43 249 -43c139 0 199 16 199 70c0 128 -470 -4 -470 216c0 109 118 163 294 163c60 0 163 -11 250 -28v-80c-71 15 -168 26 -243 26c-131 0 -188 -23 -188 -68c0 -123 471 -3 471 -221c0 -112 -118 -161 -294 -161z" />
    <glyph glyph-name="sacute" unicode="&#x15b;" horiz-adv-x="675" 
d="M314 544v80l287 186v-102zM336 -16c-77 0 -185 15 -268 39v87c84 -32 161 -43 249 -43c139 0 199 16 199 70c0 128 -470 -4 -470 216c0 109 118 163 294 163c60 0 163 -11 250 -28v-80c-71 15 -168 26 -243 26c-131 0 -188 -23 -188 -68c0 -123 471 -3 471 -221
c0 -112 -118 -161 -294 -161z" />
    <glyph glyph-name="scaron" unicode="&#x161;" horiz-adv-x="675" 
d="M625 741l-287 -186l-287 186v80l287 -164l287 164v-80zM159 366c0 -123 471 -3 471 -221c0 -112 -118 -161 -294 -161c-77 0 -185 15 -268 39v87c84 -32 161 -43 249 -43c139 0 199 16 199 70c0 128 -470 -4 -470 216c0 109 118 163 294 163c60 0 163 -11 250 -28v-80
c-71 15 -168 26 -243 26c-131 0 -188 -23 -188 -68z" />
    <glyph glyph-name="scedilla" unicode="&#x15f;" horiz-adv-x="675" 
d="M361 -69c199 -9 326 -47 326 -108c0 -62 -170 -109 -426 -110v55c228 1 300 23 300 55c0 34 -72 55 -300 58v53l30 51c-71 5 -155 18 -223 38v87c84 -32 161 -43 249 -43c139 0 199 16 199 70c0 128 -470 -4 -470 216c0 109 118 163 294 163c60 0 163 -11 250 -28v-80
c-71 15 -168 26 -243 26c-131 0 -188 -23 -188 -68c0 -123 471 -3 471 -221c0 -100 -95 -150 -241 -159z" />
    <glyph glyph-name="scommaaccent" unicode="&#x219;" horiz-adv-x="675" 
d="M336 -16c-77 0 -185 15 -268 39v87c84 -32 161 -43 249 -43c139 0 199 16 199 70c0 128 -470 -4 -470 216c0 109 118 163 294 163c60 0 163 -11 250 -28v-80c-71 15 -168 26 -243 26c-131 0 -188 -23 -188 -68c0 -123 471 -3 471 -221c0 -112 -118 -161 -294 -161z
M241 -341l63 270h103l-113 -270h-53z" />
    <glyph glyph-name="germandbls" unicode="&#xdf;" horiz-adv-x="841" 
d="M446 348c245 -8 350 -57 350 -161c0 -170 -170 -205 -412 -203c-34 1 -67 2 -101 4v92c32 -2 64 -3 91 -3c228 0 319 14 319 114c0 90 -62 112 -410 130v67c307 16 390 38 390 122c0 74 -50 95 -300 95h-208v-605h-112v700h330c213 0 393 -7 393 -175
c0 -118 -99 -168 -330 -168v-9z" />
    <glyph glyph-name="t" unicode="t" horiz-adv-x="441" 
d="M271 -10c-130 0 -150 47 -150 190v240h-80v80h101v120l91 20v-140h166v-80h-166v-210c0 -122 0 -149 107 -149c17 0 37 1 59 2v-53c-36 -14 -74 -20 -128 -20z" />
    <glyph glyph-name="tbar" unicode="&#x167;" horiz-adv-x="441" 
d="M401 230h-168v-20c0 -122 0 -149 107 -149c17 0 37 1 59 2v-53c-36 -14 -74 -20 -128 -20c-130 0 -150 47 -150 190v50h-79v87h79v103h-80v80h101v120l91 20v-140h166v-80h-166v-103h168v-87z" />
    <glyph glyph-name="tcaron" unicode="&#x165;" horiz-adv-x="580" 
d="M419 429l63 270h103l-113 -270h-53zM271 -10c-130 0 -150 47 -150 190v240h-80v80h101v120l91 20v-140h166v-80h-166v-210c0 -122 0 -149 107 -149c17 0 37 1 59 2v-53c-36 -14 -74 -20 -128 -20z" />
    <glyph glyph-name="uni0163" unicode="&#x163;" horiz-adv-x="441" 
d="M231 -69c199 -9 326 -47 326 -108c0 -62 -170 -109 -426 -110v55c228 1 300 23 300 55c0 34 -72 55 -300 58v53l42 74c-43 25 -52 77 -52 172v240h-80v80h101v120l91 20v-140h166v-80h-166v-210c0 -122 0 -149 107 -149c17 0 37 1 59 2v-53c-36 -14 -74 -20 -128 -20h-10
z" />
    <glyph glyph-name="uni021B" unicode="&#x21b;" horiz-adv-x="441" 
d="M271 -10c-130 0 -150 47 -150 190v240h-80v80h101v120l91 20v-140h166v-80h-166v-210c0 -122 0 -149 107 -149c17 0 37 1 59 2v-53c-36 -14 -74 -20 -128 -20zM122 -341l63 270h103l-113 -270h-53z" />
    <glyph glyph-name="u" unicode="u" horiz-adv-x="685" 
d="M612 500v-500h-126l20 206h-6c-19 -117 -97 -222 -243 -222c-143 2 -213 97 -213 299v217h112v-200c0 -160 45 -232 149 -232c122 0 195 118 195 309v123h112z" />
    <glyph glyph-name="uacute" unicode="&#xfa;" horiz-adv-x="685" 
d="M294 544v80l287 186v-102zM612 500v-500h-126l20 206h-6c-19 -117 -97 -222 -243 -222c-143 2 -213 97 -213 299v217h112v-200c0 -160 45 -232 149 -232c122 0 195 118 195 309v123h112z" />
    <glyph glyph-name="ucircumflex" unicode="&#xfb;" horiz-adv-x="685" 
d="M605 555l-287 164l-287 -164v80l287 186l287 -186v-80zM500 500h112v-500h-126l20 206h-6c-19 -117 -97 -222 -243 -222c-143 2 -213 97 -213 299v217h112v-200c0 -160 45 -232 149 -232c122 0 195 118 195 309v123z" />
    <glyph glyph-name="udieresis" unicode="&#xfc;" horiz-adv-x="685" 
d="M177 538c-58 0 -99 34 -99 85s41 85 99 85c64 0 99 -34 99 -85s-35 -85 -99 -85zM467 538c-58 0 -99 34 -99 85s41 85 99 85c64 0 99 -34 99 -85s-35 -85 -99 -85zM612 500v-500h-126l20 206h-6c-19 -117 -97 -222 -243 -222c-143 2 -213 97 -213 299v217h112v-200
c0 -160 45 -232 149 -232c122 0 195 118 195 309v123h112z" />
    <glyph glyph-name="ugrave" unicode="&#xf9;" horiz-adv-x="685" 
d="M324 544l-287 164v102l287 -186v-80zM612 500v-500h-126l20 206h-6c-19 -117 -97 -222 -243 -222c-143 2 -213 97 -213 299v217h112v-200c0 -160 45 -232 149 -232c122 0 195 118 195 309v123h112z" />
    <glyph glyph-name="uhungarumlaut" unicode="&#x171;" horiz-adv-x="685" 
d="M182 544v80l287 186v-102zM432 544v80l287 186v-102zM612 500v-500h-126l20 206h-6c-19 -117 -97 -222 -243 -222c-143 2 -213 97 -213 299v217h112v-200c0 -160 45 -232 149 -232c122 0 195 118 195 309v123h112z" />
    <glyph glyph-name="umacron" unicode="&#x16b;" horiz-adv-x="685" 
d="M77 646v54h532v-54h-532zM612 500v-500h-126l20 206h-6c-19 -117 -97 -222 -243 -222c-143 2 -213 97 -213 299v217h112v-200c0 -160 45 -232 149 -232c122 0 195 118 195 309v123h112z" />
    <glyph glyph-name="uogonek" unicode="&#x173;" horiz-adv-x="685" 
d="M668 -164c25 0 53 3 84 10l-3 -60c-36 -11 -74 -16 -110 -16c-110 0 -203 51 -203 131c0 32 15 71 51 112l19 193h-6c-19 -117 -97 -222 -243 -222c-143 2 -213 97 -213 299v217h112v-200c0 -160 45 -232 149 -232c122 0 195 118 195 309v123h112v-500h-68
c-23 -24 -34 -48 -34 -69c0 -54 64 -95 158 -95z" />
    <glyph glyph-name="uring" unicode="&#x16f;" horiz-adv-x="685" 
d="M318 538c-136 0 -253 41 -253 103s117 103 253 103c150 0 253 -41 253 -103s-103 -103 -253 -103zM318 589c51 0 91 18 91 51c0 36 -37 53 -91 53c-51 0 -89 -17 -89 -52s38 -52 89 -52zM612 500v-500h-126l20 206h-6c-19 -117 -97 -222 -243 -222
c-143 2 -213 97 -213 299v217h112v-200c0 -160 45 -232 149 -232c122 0 195 118 195 309v123h112z" />
    <glyph glyph-name="v" unicode="v" horiz-adv-x="775" 
d="M300 0l-264 500h118l234 -443l233 443h118l-264 -500h-175z" />
    <glyph glyph-name="w" unicode="w" horiz-adv-x="1054" 
d="M239 0l-214 500h108l184 -433l173 433h64l183 -433l184 433h108l-214 -500h-166l-126 306l-118 -306h-166z" />
    <glyph glyph-name="wacute" unicode="&#x1e83;" horiz-adv-x="1054" 
d="M497 544v80l287 186v-102zM239 0l-214 500h108l184 -433l173 433h64l183 -433l184 433h108l-214 -500h-166l-126 306l-118 -306h-166z" />
    <glyph glyph-name="wcircumflex" unicode="&#x175;" horiz-adv-x="1054" 
d="M808 555l-287 164l-287 -164v80l287 186l287 -186v-80zM921 500h108l-214 -500h-166l-126 306l-118 -306h-166l-214 500h108l184 -433l173 433h64l183 -433z" />
    <glyph glyph-name="wdieresis" unicode="&#x1e85;" horiz-adv-x="1054" 
d="M372 538c-58 0 -99 34 -99 85s41 85 99 85c64 0 99 -34 99 -85s-35 -85 -99 -85zM662 538c-58 0 -99 34 -99 85s41 85 99 85c64 0 99 -34 99 -85s-35 -85 -99 -85zM239 0l-214 500h108l184 -433l173 433h64l183 -433l184 433h108l-214 -500h-166l-126 306l-118 -306h-166
z" />
    <glyph glyph-name="wgrave" unicode="&#x1e81;" horiz-adv-x="1054" 
d="M527 544l-287 164v102l287 -186v-80zM239 0l-214 500h108l184 -433l173 433h64l183 -433l184 433h108l-214 -500h-166l-126 306l-118 -306h-166z" />
    <glyph glyph-name="x" unicode="x" horiz-adv-x="767" 
d="M26 0l279 251l-279 249h148l209 -188l210 188h148l-284 -253l275 -247h-147l-205 184l-207 -184h-147z" />
    <glyph glyph-name="y" unicode="y" horiz-adv-x="755" 
d="M229 -200l112 195l-316 505h120l240 -412l235 412h110l-391 -700h-110z" />
    <glyph glyph-name="yacute" unicode="&#xfd;" horiz-adv-x="755" 
d="M367 544v80l287 186v-102zM229 -200l112 195l-316 505h120l240 -412l235 412h110l-391 -700h-110z" />
    <glyph glyph-name="ycircumflex" unicode="&#x177;" horiz-adv-x="755" 
d="M678 555l-287 164l-287 -164v80l287 186l287 -186v-80zM620 500h110l-391 -700h-110l112 195l-316 505h120l240 -412z" />
    <glyph glyph-name="ydieresis" unicode="&#xff;" horiz-adv-x="755" 
d="M250 538c-58 0 -99 34 -99 85s41 85 99 85c64 0 99 -34 99 -85s-35 -85 -99 -85zM540 538c-58 0 -99 34 -99 85s41 85 99 85c64 0 99 -34 99 -85s-35 -85 -99 -85zM229 -200l112 195l-316 505h120l240 -412l235 412h110l-391 -700h-110z" />
    <glyph glyph-name="ygrave" unicode="&#x1ef3;" horiz-adv-x="755" 
d="M397 544l-287 164v102l287 -186v-80zM229 -200l112 195l-316 505h120l240 -412l235 412h110l-391 -700h-110z" />
    <glyph glyph-name="z" unicode="z" horiz-adv-x="712" 
d="M30 0v33l451 383h-443v84h644v-31l-449 -384h439v-85h-642z" />
    <glyph glyph-name="zacute" unicode="&#x17a;" horiz-adv-x="712" 
d="M349 544v80l287 186v-102zM30 0v33l451 383h-443v84h644v-31l-449 -384h439v-85h-642z" />
    <glyph glyph-name="zcaron" unicode="&#x17e;" horiz-adv-x="712" 
d="M660 741l-287 -186l-287 186v80l287 -164l287 164v-80zM682 500v-31l-449 -384h439v-85h-642v33l451 383h-443v84h644z" />
    <glyph glyph-name="zdotaccent" unicode="&#x17c;" horiz-adv-x="712" 
d="M373 538c-58 0 -99 34 -99 85s41 85 99 85c64 0 99 -34 99 -85s-35 -85 -99 -85zM30 0v33l451 383h-443v84h644v-31l-449 -384h439v-85h-642z" />
    <glyph glyph-name="c.001" horiz-adv-x="693" 
d="M347 -16c-181 0 -301 106 -301 266s120 266 301 266c180 0 300 -95 300 -237h-114c-6 97 -80 154 -186 154c-113 0 -189 -68 -189 -183s76 -183 189 -183c108 0 183 60 188 162h113c0 -147 -120 -245 -301 -245z" />
    <glyph glyph-name="e.001" horiz-adv-x="696" 
d="M533 175h118c-23 -113 -122 -191 -304 -191c-181 0 -301 106 -301 266s120 266 301 266c179 0 298 -91 301 -238v-71h-485c18 -84 92 -139 194 -139c88 0 159 43 176 107zM347 432c-107 0 -181 -67 -188 -166l374 7c-5 95 -78 159 -186 159z" />
    <glyph glyph-name="g.001" horiz-adv-x="761" 
d="M354 -200c-205 0 -301 76 -301 190h112c0 -67 50 -104 197 -104c184 0 231 48 231 245c-33 -90 -125 -150 -240 -150c-171 0 -296 111 -296 273c0 157 126 262 264 262c125 0 245 -54 271 -178h12l-15 162h101v-395c0 -218 -99 -305 -336 -305zM366 67
c106 0 199 75 199 185c0 107 -92 181 -199 181c-119 0 -196 -74 -196 -181c0 -110 77 -185 196 -185z" />
    <glyph glyph-name="uni0410" unicode="&#x410;" horiz-adv-x="1083" 
d="M36 0l431 700h149l430 -700h-126l-97 163h-564l-96 -163h-127zM315 256h453l-226 386z" />
    <glyph glyph-name="uni0411" unicode="&#x411;" horiz-adv-x="881" 
d="M584 427c135 0 235 -71 235 -213c0 -117 -90 -214 -235 -214h-493v607h-1v93h643v-93h-530v-180h381zM559 94c104 0 148 37 148 120s-44 118 -148 118h-357v-238h357z" />
    <glyph glyph-name="uni0412" unicode="&#x412;" horiz-adv-x="926" 
d="M91 0v700h513c145 0 225 -78 225 -185c0 -103 -76 -152 -194 -159c131 -3 217 -61 217 -170c0 -112 -90 -186 -226 -186h-535zM203 390h366c96 0 148 33 148 106c0 76 -52 111 -148 111h-367zM204 94h387c96 0 148 37 148 117c0 76 -52 110 -148 110h-388z" />
    <glyph glyph-name="uni0413" unicode="&#x413;" horiz-adv-x="744" 
d="M91 0v700h643v-93h-531v-607h-112z" />
    <glyph glyph-name="uni0414" unicode="&#x414;" horiz-adv-x="927" 
d="M12 -103v205c66 0 107 27 111 81l44 518l616 -1v-598h124v-205h-112v103h-671v-103h-112zM201 93h470v514h-400l-34 -415c-3 -39 -16 -71 -36 -99z" />
    <glyph glyph-name="uni0415" unicode="&#x415;" horiz-adv-x="810" 
d="M91 0v700h638v-93h-526v-209h517v-85h-517v-220h526v-93h-638z" />
    <glyph glyph-name="uni0401" unicode="&#x401;" horiz-adv-x="810" 
d="M276 738c-58 0 -99 34 -99 85s41 85 99 85c64 0 99 -34 99 -85s-35 -85 -99 -85zM566 738c-58 0 -99 34 -99 85s41 85 99 85c64 0 99 -34 99 -85s-35 -85 -99 -85zM91 0v700h638v-93h-526v-209h517v-85h-517v-220h526v-93h-638z" />
    <glyph glyph-name="uni0416" unicode="&#x416;" horiz-adv-x="1216" 
d="M10 0l428 350l-429 350h160l383 -334v334h112v-334l383 334h160l-430 -350l429 -350h-159l-383 334v-334h-112v334l-383 -334h-159z" />
    <glyph glyph-name="uni0417" unicode="&#x417;" horiz-adv-x="821" 
d="M389 -16c-126 0 -261 12 -348 44v93c68 -29 216 -44 316 -44c226 0 319 33 319 97c0 92 -120 120 -597 141v72c457 16 577 54 577 129c0 71 -82 108 -300 108c-99 0 -246 -17 -315 -45v93c84 31 229 45 325 45c213 0 393 -24 393 -192c0 -172 -299 -168 -330 -168v-9
c59 -2 350 11 350 -172c0 -154 -160 -192 -390 -192z" />
    <glyph glyph-name="uni0418" unicode="&#x418;" horiz-adv-x="967" 
d="M876 0h-112v563l-558 -563h-115v700h112v-564l559 564h114v-700z" />
    <glyph glyph-name="uni0419" unicode="&#x419;" horiz-adv-x="967" 
d="M478 751c-122 0 -212 59 -213 149h105c2 -55 46 -81 108 -81c64 0 106 26 110 81h103c-1 -90 -77 -149 -213 -149zM876 0h-112v563l-558 -563h-115v700h112v-564l559 564h114v-700z" />
    <glyph glyph-name="uni041A" unicode="&#x41a;" horiz-adv-x="766" 
d="M91 0v700h112v-334l383 334h160l-429 -351l428 -349h-159l-383 334v-334h-112z" />
    <glyph glyph-name="uni041B" unicode="&#x41b;" horiz-adv-x="873" 
d="M34 -16c-8 0 -16 0 -24 1l7 80c5 0 10 -1 15 -1c56 0 87 32 91 82l47 554h613v-700h-112v607h-397l-37 -452c-10 -110 -107 -171 -203 -171z" />
    <glyph glyph-name="uni041C" unicode="&#x41c;" horiz-adv-x="1065" 
d="M91 0v700h139l302 -529l303 529h138v-700h-112v544l-319 -544h-19l-320 540v-540h-112z" />
    <glyph glyph-name="uni041D" unicode="&#x41d;" horiz-adv-x="908" 
d="M91 0v700h112v-293h501v293h112v-700h-112v314h-501v-314h-112z" />
    <glyph glyph-name="uni041E" unicode="&#x41e;" horiz-adv-x="976" 
d="M488 -16c-273 0 -442 146 -442 366s169 366 442 366c274 0 443 -146 443 -366s-169 -366 -443 -366zM488 77c198 0 331 105 331 273c0 169 -133 273 -331 273c-197 0 -330 -104 -330 -273c0 -168 133 -273 330 -273z" />
    <glyph glyph-name="uni041F" unicode="&#x41f;" horiz-adv-x="825" 
d="M91 0v700h643v-700h-112v607h-419v-607h-112z" />
    <glyph glyph-name="uni0420" unicode="&#x420;" horiz-adv-x="881" 
d="M91 0v700h493c145 0 235 -97 235 -214c0 -142 -100 -213 -235 -213h-381v-273h-112zM202 368h357c104 0 148 35 148 118s-44 120 -148 120h-357v-238z" />
    <glyph glyph-name="uni0421" unicode="&#x421;" horiz-adv-x="935" 
d="M468 -16c-253 0 -422 146 -422 366s169 366 422 366s422 -128 422 -321h-114c-6 142 -129 228 -308 228c-186 0 -310 -104 -310 -273c0 -168 124 -273 310 -273c180 0 303 87 308 228h114c0 -193 -169 -321 -422 -321z" />
    <glyph glyph-name="uni0422" unicode="&#x422;" horiz-adv-x="896" 
d="M391 0v607h-355v93h823v-93h-356v-607h-112z" />
    <glyph glyph-name="uni0423" unicode="&#x423;" horiz-adv-x="755" 
d="M229 -1l112 195l-316 505h120l240 -412l235 412h110l-391 -700h-110z" />
    <glyph glyph-name="uni0424" unicode="&#x424;" horiz-adv-x="711" 
d="M665 355c0 -142 -97 -241 -249 -262v-93h-122v93c-151 21 -248 120 -248 262s97 241 248 262v83h122v-83c152 -21 249 -120 249 -262zM416 178c90 21 147 87 147 177s-57 156 -147 177v-354zM148 355c0 -90 57 -156 146 -176v352c-89 -20 -146 -86 -146 -176z" />
    <glyph glyph-name="uni0425" unicode="&#x425;" horiz-adv-x="928" 
d="M59 0l332 351l-333 349h139l267 -283l267 283h138l-337 -355l327 -345h-136l-264 280l-265 -280h-135z" />
    <glyph glyph-name="uni0427" unicode="&#x427;" horiz-adv-x="686" 
d="M613 700v-700h-126l20 406h-6c-19 -117 -97 -222 -243 -222c-143 2 -213 97 -213 299v217h112v-200c0 -160 45 -232 149 -232c122 0 195 118 195 309v123h112z" />
    <glyph glyph-name="uni0426" unicode="&#x426;" horiz-adv-x="816" 
d="M695 -103v103h-605v700h112v-607h371v607h112v-607h122v-196h-112z" />
    <glyph glyph-name="uni0428" unicode="&#x428;" horiz-adv-x="1123" 
d="M90 0v700h112v-607h304v607h112v-607h303v607h112v-700h-943z" />
    <glyph glyph-name="uni0429" unicode="&#x429;" horiz-adv-x="1164" 
d="M1043 -103v103h-953v700h112v-607h304v607h112v-607h303v607h112v-607h122v-196h-112z" />
    <glyph glyph-name="uni042C" unicode="&#x42c;" horiz-adv-x="881" 
d="M91 700h112v-273h381c135 0 235 -71 235 -213c0 -117 -90 -214 -235 -214h-493v700zM202 332v-238h357c104 0 148 37 148 120s-44 118 -148 118h-357z" />
    <glyph glyph-name="uni042A" unicode="&#x42a;" horiz-adv-x="881" 
d="M584 427c135 0 235 -71 235 -213c0 -117 -90 -214 -235 -214h-493v598h-119v102h231v-273h381zM559 94c104 0 148 37 148 120s-44 118 -148 118h-357v-238h357z" />
    <glyph glyph-name="uni042B" unicode="&#x42b;" horiz-adv-x="1165" 
d="M91 700h112v-273h381c135 0 235 -71 235 -213c0 -117 -90 -214 -235 -214h-493v700zM963 0v700h112v-700h-112zM202 332v-238h357c104 0 148 37 148 120s-44 118 -148 118h-357z" />
    <glyph glyph-name="uni042D" unicode="&#x42d;" horiz-adv-x="935" 
d="M467 716c253 0 422 -146 422 -366s-169 -366 -422 -366s-422 128 -422 321h114c5 -141 128 -228 308 -228c168 0 285 85 306 225h-392v94h393c-21 142 -139 227 -307 227c-179 0 -302 -86 -308 -228h-114c0 193 169 321 422 321z" />
    <glyph glyph-name="uni042E" unicode="&#x42e;" horiz-adv-x="1342" 
d="M853 716c274 0 443 -146 443 -366s-169 -366 -443 -366c-253 0 -416 125 -439 318h-212v-302h-112v700h112v-304h212c22 194 186 320 439 320zM853 77c198 0 331 105 331 273c0 169 -133 273 -331 273c-197 0 -330 -104 -330 -273c0 -168 133 -273 330 -273z" />
    <glyph glyph-name="uni042F" unicode="&#x42f;" horiz-adv-x="941" 
d="M850 0h-112l1 305h-288c-133 0 -168 -72 -298 -305h-122c124 228 189 328 350 339h-74c-135 0 -225 64 -225 176c0 107 80 185 225 185h543v-700zM739 401l1 205h-398c-104 0 -148 -33 -148 -109c0 -57 42 -96 148 -96h397z" />
    <glyph glyph-name="uni0430" unicode="&#x430;" horiz-adv-x="672" 
d="M232 -16c-74 0 -186 16 -186 132c0 167 361 169 469 180c-1 106 -49 138 -171 138c-78 0 -168 -28 -235 -57v85c84 31 187 54 275 54c175 0 243 -94 243 -234v-282h-113l30 179h-7c-30 -137 -152 -195 -305 -195zM271 66c122 0 238 56 241 161c-116 -10 -348 -9 -348 -98
c0 -40 39 -63 107 -63z" />
    <glyph glyph-name="uni0431" unicode="&#x431;" horiz-adv-x="867" 
d="M456 -12c-245 0 -410 119 -410 374c0 232 179 353 439 353c91 0 176 -8 283 23v-106c-88 -32 -199 -10 -302 -10c-192 0 -308 -105 -308 -288c68 58 196 126 345 126c221 0 319 -102 319 -238c0 -141 -133 -234 -366 -234zM447 81c176 0 262 39 262 145
c0 96 -75 145 -231 145c-104 0 -250 -49 -307 -131c32 -115 119 -159 276 -159z" />
    <glyph glyph-name="uni0432" unicode="&#x432;" horiz-adv-x="804" 
d="M90 0v500h425c158 0 225 -40 225 -135c0 -70 -55 -104 -184 -109c144 -3 207 -39 207 -120c0 -95 -68 -136 -226 -136h-447zM202 295h288c97 0 138 15 138 49c0 38 -41 54 -138 54h-289zM203 103h309c97 0 138 18 138 59c0 35 -41 54 -138 54h-310z" />
    <glyph glyph-name="uni0433" unicode="&#x433;" horiz-adv-x="570" 
d="M90 0v500h473v-93h-361v-407h-112z" />
    <glyph glyph-name="uni0434" unicode="&#x434;" horiz-adv-x="807" 
d="M12 -103v205c66 0 107 27 111 81l30 356h510v-437h124v-205h-112v103h-551v-103h-112zM201 93h350v353h-293l-21 -254c-3 -38 -16 -71 -36 -99z" />
    <glyph glyph-name="uni0435" unicode="&#x435;" horiz-adv-x="693" 
d="M347 -16c-181 0 -301 106 -301 266s120 266 301 266c179 0 298 -91 301 -227v-82h-498c16 -101 92 -139 247 -139c122 0 172 31 229 55v-90c-106 -40 -161 -49 -279 -49zM148 276l395 8c-3 111 -61 149 -196 149c-132 0 -191 -41 -199 -157z" />
    <glyph glyph-name="uni0451" unicode="&#x451;" horiz-adv-x="693" 
d="M206 538c-58 0 -99 34 -99 85s41 85 99 85c64 0 99 -34 99 -85s-35 -85 -99 -85zM496 538c-58 0 -99 34 -99 85s41 85 99 85c64 0 99 -34 99 -85s-35 -85 -99 -85zM347 -16c-181 0 -301 106 -301 266s120 266 301 266c179 0 298 -91 301 -227v-82h-498
c16 -101 92 -139 247 -139c122 0 172 31 229 55v-90c-106 -40 -161 -49 -279 -49zM148 276l395 8c-3 111 -61 149 -196 149c-132 0 -191 -41 -199 -157z" />
    <glyph glyph-name="uni0436" unicode="&#x436;" horiz-adv-x="1156" 
d="M10 0l397 251l-387 249h174l328 -221v221h112v-221l328 221h174l-388 -249l398 -251h-184l-328 221v-221h-112v221l-328 -221h-184z" />
    <glyph glyph-name="uni0437" unicode="&#x437;" horiz-adv-x="818" 
d="M385 -15c-125 0 -259 12 -345 44v93c68 -29 216 -44 316 -44c261 0 323 13 323 44c0 55 -120 68 -601 90v80c465 17 581 28 581 77c0 38 -59 53 -304 53c-99 0 -246 -17 -315 -45v93c84 31 229 45 325 45c213 0 393 -24 393 -129c0 -132 -299 -128 -330 -128v-9
c59 -2 350 11 350 -121c0 -107 -161 -143 -393 -143z" />
    <glyph glyph-name="uni0438" unicode="&#x438;" horiz-adv-x="838" 
d="M90 0v500h112v-384l432 384h114v-500h-112v384l-431 -384h-115z" />
    <glyph glyph-name="uni0439" unicode="&#x439;" horiz-adv-x="838" 
d="M424 551c-122 0 -212 59 -213 149h105c2 -55 46 -81 108 -81c64 0 106 26 110 81h103c-1 -90 -77 -149 -213 -149zM90 0v500h112v-384l432 384h114v-500h-112v384l-431 -384h-115z" />
    <glyph glyph-name="uni043A" unicode="&#x43a;" horiz-adv-x="728" 
d="M91 0v500h112v-221l328 221h174l-387 -249l397 -251h-184l-328 221v-221h-112z" />
    <glyph glyph-name="uni043B" unicode="&#x43b;" horiz-adv-x="681" 
d="M41 -13c-8 0 -16 0 -24 1l-3 80c66 0 102 27 106 81l30 351h520v-500h-112v407h-304l-20 -249c-10 -110 -99 -171 -193 -171z" />
    <glyph glyph-name="uni043C" unicode="&#x43c;" horiz-adv-x="952" 
d="M90 0v500h136l250 -344l250 344h136v-500h-112v343l-263 -343h-22l-263 351v-351h-112z" />
    <glyph glyph-name="uni043D" unicode="&#x43d;" horiz-adv-x="855" 
d="M90 0v500h112v-192h451v192h112v-500h-112v214h-451v-214h-112z" />
    <glyph glyph-name="uni043E" unicode="&#x43e;" horiz-adv-x="711" 
d="M355 -16c-186 0 -309 106 -309 266s123 266 309 266c187 0 310 -106 310 -266s-123 -266 -310 -266zM355 67c125 0 208 74 208 183s-83 183 -208 183c-124 0 -207 -74 -207 -183s83 -183 207 -183z" />
    <glyph glyph-name="uni043F" unicode="&#x43f;" horiz-adv-x="798" 
d="M91 0v500h615v-500h-112v408h-391v-408h-112z" />
    <glyph glyph-name="uni0440" unicode="&#x440;" horiz-adv-x="769" 
d="M461 516c138 0 263 -108 263 -270c0 -157 -126 -262 -265 -262c-124 0 -245 54 -270 178h-4v-362h-112v700h116l-22 -163h12c25 127 157 179 282 179zM414 433c-107 0 -198 -75 -198 -185c0 -107 91 -181 198 -181c120 0 196 74 196 181c0 110 -76 185 -196 185z" />
    <glyph glyph-name="uni0441" unicode="&#x441;" horiz-adv-x="632" 
d="M359 -16c-181 0 -313 106 -313 266c0 161 125 266 314 266c90 0 146 -18 226 -54v-91c-78 44 -138 62 -200 62c-152 0 -227 -45 -227 -183c0 -137 76 -183 230 -183c73 0 131 16 197 58v-87c-81 -36 -128 -54 -227 -54z" />
    <glyph glyph-name="uni0442" unicode="&#x442;" horiz-adv-x="736" 
d="M312 0v407h-276v93h663v-93h-275v-407h-112z" />
    <glyph glyph-name="uni0443" unicode="&#x443;" horiz-adv-x="755" 
d="M229 -200l112 195l-316 505h120l240 -412l235 412h110l-391 -700h-110z" />
    <glyph glyph-name="uni0444" unicode="&#x444;" horiz-adv-x="711" 
d="M665 250c0 -142 -97 -241 -249 -262v-84h-122v84c-151 21 -248 120 -248 262s97 241 248 262v92h122v-92c152 -21 249 -120 249 -262zM416 73c90 21 147 87 147 177s-57 156 -147 177v-354zM148 250c0 -90 57 -156 146 -176v352c-89 -20 -146 -86 -146 -176z" />
    <glyph glyph-name="uni0445" unicode="&#x445;" horiz-adv-x="767" 
d="M26 0l279 251l-279 249h148l209 -188l210 188h148l-284 -253l275 -247h-147l-205 184l-207 -184h-147z" />
    <glyph glyph-name="uni0447" unicode="&#x447;" horiz-adv-x="686" 
d="M488 0l15 302h-2c-19 -116 -96 -222 -243 -222c-142 2 -212 98 -212 299v121h112v-104c0 -160 44 -231 148 -231c122 0 196 117 196 308v27h112v-500h-126z" />
    <glyph glyph-name="uni0446" unicode="&#x446;" horiz-adv-x="773" 
d="M653 -103v103h-563v500h112v-407h329v407h112v-407h122v-196h-112z" />
    <glyph glyph-name="uni0448" unicode="&#x448;" horiz-adv-x="1106" 
d="M90 0v500h112v-407h295v407h112v-407h295v407h112v-500h-926z" />
    <glyph glyph-name="uni0449" unicode="&#x449;" horiz-adv-x="1146" 
d="M1026 -103v103h-936v500h112v-407h295v407h112v-407h295v407h112v-407h122v-196h-112z" />
    <glyph glyph-name="uni044C" unicode="&#x44c;" horiz-adv-x="840" 
d="M91 0v700h112v-273h341c135 0 235 -71 235 -213c0 -117 -90 -214 -235 -214h-453zM203 95h316c104 0 148 36 148 119s-44 119 -148 119h-316v-238z" />
    <glyph glyph-name="uni044A" unicode="&#x44a;" horiz-adv-x="840" 
d="M91 0v607h-121v93h233v-273h341c135 0 235 -71 235 -213c0 -117 -90 -214 -235 -214h-453zM203 95h316c104 0 148 36 148 119s-44 119 -148 119h-316v-238z" />
    <glyph glyph-name="uni044B" unicode="&#x44b;" horiz-adv-x="1124" 
d="M90 0v700h112v-273h341c135 0 235 -71 235 -213c0 -117 -90 -214 -235 -214h-453zM922 0v700h112v-700h-112zM202 95h316c104 0 148 36 148 119s-44 119 -148 119h-316v-238z" />
    <glyph glyph-name="uni044D" unicode="&#x44d;" horiz-adv-x="632" 
d="M272 516c189 0 314 -105 314 -266c0 -160 -132 -266 -313 -266c-99 0 -146 18 -227 54v87c66 -42 124 -58 197 -58c133 0 208 34 226 132h-297v102h297c-18 98 -92 132 -223 132c-62 0 -122 -18 -200 -62v91c80 36 136 54 226 54z" />
    <glyph glyph-name="uni044E" unicode="&#x44e;" horiz-adv-x="1021" 
d="M615 516c187 0 310 -106 310 -266s-123 -266 -310 -266c-167 0 -283 86 -305 219h-103v-203h-112v500h112v-203h103c22 133 138 219 305 219zM615 67c125 0 208 74 208 183s-83 183 -208 183c-124 0 -207 -74 -207 -183s83 -183 207 -183z" />
    <glyph glyph-name="uni044F" unicode="&#x44f;" horiz-adv-x="811" 
d="M30 0c117 147 183 192 333 199h-57c-158 0 -225 44 -225 145c0 94 67 134 225 134h415v-478h-112l1 162h-150c-140 0 -175 -9 -304 -162h-126zM331 263h279l1 115h-280c-97 0 -138 -18 -138 -53c0 -42 41 -62 138 -62z" />
    <glyph glyph-name="zero" unicode="0" horiz-adv-x="976" 
d="M488 -16c-273 0 -442 146 -442 366s169 366 442 366c274 0 443 -146 443 -366s-169 -366 -443 -366zM488 77c198 0 331 105 331 273c0 169 -133 273 -331 273c-197 0 -330 -104 -330 -273c0 -168 133 -273 330 -273z" />
    <glyph glyph-name="one" unicode="1" horiz-adv-x="587" 
d="M384 0v581l-329 -215v111l389 223h52v-700h-112z" />
    <glyph glyph-name="two" unicode="2" horiz-adv-x="853" 
d="M55 0v60c252 131 644 309 644 438c0 88 -73 124 -279 124c-101 0 -288 -23 -329 -39v97c59 19 235 35 356 35c238 0 365 -42 365 -198c0 -164 -310 -335 -535 -424h505v-93h-727z" />
    <glyph glyph-name="three" unicode="3" horiz-adv-x="821" 
d="M389 -16c-126 0 -261 12 -348 44v93c68 -29 216 -44 316 -44c226 0 319 33 319 97c0 92 -120 120 -597 141v72c457 16 577 54 577 129c0 71 -82 108 -300 108c-99 0 -246 -17 -315 -45v93c84 31 229 45 325 45c213 0 393 -24 393 -192c0 -172 -299 -168 -330 -168v-9
c59 -2 350 11 350 -172c0 -154 -160 -192 -390 -192z" />
    <glyph glyph-name="four" unicode="4" horiz-adv-x="881" 
d="M631 0v132h-610v66l532 502h190v-475h111v-93h-111v-132h-112zM165 225h466v440z" />
    <glyph glyph-name="five" unicode="5" horiz-adv-x="825" 
d="M358 -16c-89 0 -252 15 -317 41v102c54 -25 219 -50 314 -50c217 0 306 48 306 160c0 91 -83 120 -232 120c-160 0 -276 -45 -349 -78v421h655v-93h-567v-198c92 31 195 45 290 45c152 0 315 -35 315 -228c0 -155 -169 -242 -415 -242z" />
    <glyph glyph-name="six" unicode="6" horiz-adv-x="867" 
d="M456 -12c-245 0 -410 119 -410 374c0 232 179 353 439 353c123 0 208 -21 283 -58v-106c-93 52 -183 71 -302 71c-176 0 -308 -105 -308 -260v-28c68 58 196 126 345 126c221 0 319 -102 319 -238c0 -141 -133 -234 -366 -234zM447 81c176 0 262 39 262 145
c0 96 -75 145 -231 145c-104 0 -250 -49 -307 -131c32 -115 119 -159 276 -159z" />
    <glyph glyph-name="seven" unicode="7" horiz-adv-x="813" 
d="M179 0l476 607h-639v93h776v-44l-477 -656h-136z" />
    <glyph glyph-name="eight" unicode="8" horiz-adv-x="844" 
d="M436 -20c-223 0 -395 53 -395 203c0 118 129 151 221 161c-83 15 -201 59 -201 177c0 126 139 192 361 192c200 0 360 -62 360 -192c0 -118 -118 -162 -201 -177c93 -10 221 -43 221 -161c0 -128 -150 -203 -366 -203zM422 392c167 0 247 30 247 110
c0 68 -96 117 -247 117c-152 0 -248 -49 -248 -117c0 -80 82 -110 248 -110zM423 75c157 0 266 41 266 114c0 74 -85 109 -267 109s-268 -35 -268 -109c0 -73 111 -114 269 -114z" />
    <glyph glyph-name="nine" unicode="9" horiz-adv-x="867" 
d="M411 714c245 0 410 -119 410 -374c0 -232 -179 -353 -439 -353c-123 0 -208 21 -283 58v106c93 -52 183 -71 302 -71c176 0 308 105 308 260v28c-68 -58 -196 -126 -345 -126c-221 0 -319 102 -319 238c0 141 133 234 366 234zM420 621c-176 0 -262 -39 -262 -145
c0 -96 75 -145 231 -145c104 0 250 49 307 131c-32 115 -119 159 -276 159z" />
    <glyph glyph-name="zero.tf" horiz-adv-x="956" 
d="M478 -16c-273 0 -432 146 -432 366s164 366 432 366c274 0 433 -143 433 -366c0 -220 -159 -366 -433 -366zM479 11c273 0 405 144 405 341c0 196 -135 337 -405 337c-262 0 -406 -144 -406 -341c0 -196 147 -337 406 -337zM478 123c-170 0 -274 91 -274 227
c0 137 104 228 274 228s275 -91 275 -228c0 -136 -105 -227 -275 -227zM478 181c123 0 206 65 206 169c0 105 -83 170 -206 170c-122 0 -205 -65 -205 -170c0 -104 83 -169 205 -169z" />
    <glyph glyph-name="one.tf" horiz-adv-x="956" 
d="M478 -16c-273 0 -432 146 -432 366s164 366 432 366c274 0 433 -143 433 -366c0 -220 -159 -366 -433 -366zM478 11c273 0 405 144 405 341c0 196 -135 337 -405 337c-262 0 -406 -144 -406 -341c0 -196 147 -337 406 -337zM469 133v361l-204 -134v69l242 139h32v-435
h-70z" />
    <glyph glyph-name="two.tf" horiz-adv-x="956" 
d="M478 -16c-273 0 -432 146 -432 366c0 218 164 366 432 366c274 0 433 -143 433 -366c0 -220 -159 -366 -433 -366zM479 11c273 0 405 144 405 341c0 196 -135 337 -405 337c-262 0 -406 -144 -406 -341c0 -196 147 -337 406 -337zM252 136v37c157 82 400 192 400 272
c0 55 -45 77 -173 77c-63 0 -179 -14 -204 -24v60c36 12 145 22 221 22c147 0 226 -26 226 -123c0 -102 -192 -208 -332 -263h314v-58h-452z" />
    <glyph glyph-name="three.tf" horiz-adv-x="956" 
d="M478 -16c-273 0 -432 146 -432 366c0 218 164 366 432 366c274 0 433 -143 433 -366c0 -220 -159 -366 -433 -366zM478 11c273 0 405 144 405 341c0 196 -135 337 -405 337c-262 0 -406 -144 -406 -341c0 -196 147 -337 406 -337zM492 123c-79 0 -163 8 -217 27v58
c43 -18 135 -27 197 -27c140 0 198 20 198 60c0 57 -75 75 -371 88v44c284 10 358 34 358 80c0 44 -51 67 -186 67c-61 0 -153 -10 -196 -27v57c53 19 143 28 202 28c133 0 244 -15 244 -119c0 -107 -185 -104 -205 -104v-6c37 -1 218 7 218 -107c0 -95 -100 -119 -242 -119
z" />
    <glyph glyph-name="four.tf" horiz-adv-x="956" 
d="M478 -16c-273 0 -432 146 -432 366c0 218 164 366 432 366c274 0 433 -143 433 -366c0 -220 -159 -366 -433 -366zM478 11c273 0 405 144 405 341c0 196 -135 337 -405 337c-262 0 -406 -144 -406 -341c0 -196 147 -337 406 -337zM572 133v82h-379v41l330 312h118v-295
h69v-58h-69v-82h-69zM282 273h290v273z" />
    <glyph glyph-name="five.tf" horiz-adv-x="956" 
d="M478 -16c-273 0 -432 146 -432 366c0 218 164 366 432 366c274 0 433 -143 433 -366c0 -220 -159 -366 -433 -366zM479 11c273 0 405 144 405 341c0 196 -135 337 -405 337c-262 0 -406 -144 -406 -341c0 -196 147 -337 406 -337zM468 119c-55 0 -156 9 -197 26v63
c34 -16 136 -31 195 -31c135 0 190 30 190 99c0 57 -51 75 -144 75c-99 0 -171 -28 -216 -49v262h406v-58h-352v-123c57 19 121 28 180 28c95 0 196 -22 196 -142c0 -96 -105 -150 -258 -150z" />
    <glyph glyph-name="six.tf" horiz-adv-x="956" 
d="M478 -16c-273 0 -432 146 -432 366c0 218 164 366 432 366c274 0 433 -143 433 -366c0 -220 -159 -366 -433 -366zM479 11c273 0 405 144 405 341c0 196 -135 337 -405 337c-262 0 -406 -144 -406 -341c0 -196 147 -337 406 -337zM481 126c-152 0 -254 73 -254 232
c0 144 111 219 272 219c77 0 129 -13 176 -36v-66c-58 32 -114 44 -188 44c-109 0 -191 -65 -191 -161v-18c42 36 122 79 214 79c138 0 198 -64 198 -148c0 -88 -82 -145 -227 -145zM476 183c109 0 162 25 162 90c0 60 -46 90 -143 90c-65 0 -155 -30 -191 -81
c20 -71 74 -99 172 -99z" />
    <glyph glyph-name="seven.tf" horiz-adv-x="956" 
d="M478 -16c-273 0 -432 146 -432 366c0 218 164 366 432 366c274 0 433 -143 433 -366c0 -220 -159 -366 -433 -366zM478 11c273 0 405 144 405 341c0 196 -135 337 -405 337c-262 0 -406 -144 -406 -341c0 -196 147 -337 406 -337zM363 133l296 377h-397v58h482v-28
l-296 -407h-85z" />
    <glyph glyph-name="eight.tf" horiz-adv-x="956" 
d="M478 -16c-273 0 -432 146 -432 366c0 218 164 366 432 366c274 0 433 -143 433 -366c0 -220 -159 -366 -433 -366zM479 11c273 0 405 144 405 341c0 196 -135 337 -405 337c-262 0 -406 -144 -406 -341c0 -196 147 -337 406 -337zM473 120c-139 0 -246 32 -246 126
c0 73 81 93 138 100c-52 9 -125 36 -125 109c0 79 86 120 224 120c124 0 224 -39 224 -120c0 -73 -74 -100 -125 -109c57 -7 137 -27 137 -100c0 -80 -93 -126 -227 -126zM464 375c104 0 153 19 153 69c0 42 -59 72 -153 72s-154 -30 -154 -72c0 -50 51 -69 154 -69z
M465 179c97 0 165 25 165 70c0 46 -53 68 -166 68s-166 -22 -166 -68c0 -45 69 -70 167 -70z" />
    <glyph glyph-name="nine.tf" horiz-adv-x="956" 
d="M478 -16c-273 0 -432 146 -432 366c0 218 164 366 432 366c274 0 433 -143 433 -366c0 -220 -159 -366 -433 -366zM479 11c273 0 405 144 405 341c0 196 -135 337 -405 337c-262 0 -406 -144 -406 -341c0 -196 147 -337 406 -337zM484 576c152 0 255 -74 255 -232
c0 -144 -111 -219 -273 -219c-76 0 -129 13 -176 36v66c58 -33 114 -44 188 -44c109 0 191 65 191 161v17c-42 -36 -121 -78 -214 -78c-137 0 -198 64 -198 148c0 88 83 145 227 145zM490 519c-110 0 -163 -25 -163 -90c0 -60 47 -90 144 -90c64 0 155 30 190 81
c-20 71 -74 99 -171 99z" />
    <glyph glyph-name="fraction" unicode="&#x2044;" horiz-adv-x="1038" 
d="M40 -100l832 900h126l-832 -900h-126z" />
    <glyph glyph-name="onehalf" unicode="&#xbd;" horiz-adv-x="1734" 
d="M419 -22l688 744h104l-688 -744h-104zM295 161v397l-224 -147v76l265 152h36v-478h-77zM1177 61v41c172 89 439 211 439 299c0 60 -49 85 -190 85c-69 0 -197 -16 -225 -27v66c40 13 161 24 243 24c163 0 250 -28 250 -135c0 -112 -212 -229 -366 -289h345v-64h-496z" />
    <glyph glyph-name="onequarter" unicode="&#xbc;" horiz-adv-x="1603" 
d="M420 -22l688 744h104l-688 -744h-104zM295 161v397l-224 -147v76l265 152h36v-478h-77zM1384 61v90h-417v45l364 343h129v-324h76v-64h-76v-90h-76zM1066 215h318v300z" />
    <glyph glyph-name="threequarters" unicode="&#xbe;" horiz-adv-x="1610" 
d="M427 -22l688 744h104l-688 -744h-104zM286 150c-86 0 -179 8 -238 30v64c46 -20 148 -30 216 -30c154 0 218 22 218 66c0 63 -82 82 -408 96v49c312 11 394 37 394 88c0 49 -56 74 -205 74c-67 0 -168 -11 -215 -31v64c57 21 156 31 222 31c145 0 268 -17 268 -131
c0 -118 -204 -115 -225 -115v-6c40 -2 239 7 239 -118c0 -105 -109 -131 -266 -131zM1391 58v90h-417v45l364 343h129v-324h76v-64h-76v-90h-76zM1073 212h318v300z" />
    <glyph glyph-name="oneeighth" unicode="&#x215b;" horiz-adv-x="1704" 
d="M420 -22l688 744h104l-688 -744h-104zM295 161v397l-224 -147v76l265 152h36v-478h-77zM1391 47c-153 0 -270 37 -270 139c0 81 88 103 151 110c-57 10 -137 40 -137 121c0 86 95 131 246 131c137 0 246 -42 246 -131c0 -81 -80 -111 -137 -121c63 -7 151 -29 151 -110
c0 -87 -103 -139 -250 -139zM1381 329c114 0 169 20 169 75c0 46 -66 80 -169 80c-104 0 -169 -34 -169 -80c0 -55 56 -75 169 -75zM1382 112c107 0 182 28 182 78c0 51 -58 75 -183 75c-124 0 -183 -24 -183 -75c0 -50 76 -78 184 -78z" />
    <glyph glyph-name="threeeighths" unicode="&#x215c;" horiz-adv-x="1711" 
d="M416 -22l688 744h104l-688 -744h-104zM286 150c-86 0 -179 8 -238 30v64c46 -20 148 -30 216 -30c154 0 218 22 218 66c0 63 -82 82 -408 96v49c312 11 394 37 394 88c0 49 -56 74 -205 74c-67 0 -168 -11 -215 -31v64c57 21 156 31 222 31c145 0 268 -17 268 -131
c0 -118 -204 -115 -225 -115v-6c40 -2 239 7 239 -118c0 -105 -109 -131 -266 -131zM1398 44c-153 0 -270 37 -270 139c0 81 88 103 151 110c-57 10 -137 40 -137 121c0 86 95 131 246 131c137 0 246 -42 246 -131c0 -81 -80 -111 -137 -121c63 -7 151 -29 151 -110
c0 -87 -103 -139 -250 -139zM1388 326c114 0 169 20 169 75c0 46 -66 80 -169 80c-104 0 -169 -34 -169 -80c0 -55 56 -75 169 -75zM1389 109c107 0 182 28 182 78c0 51 -58 75 -183 75c-124 0 -183 -24 -183 -75c0 -50 76 -78 184 -78z" />
    <glyph glyph-name="fiveeighths" unicode="&#x215d;" horiz-adv-x="1751" 
d="M460 -22l688 744h104l-688 -744h-104zM265 147c-61 0 -173 10 -217 28v70c37 -17 150 -34 214 -34c149 0 209 32 209 109c0 62 -56 82 -158 82c-109 0 -189 -31 -238 -53v287h447v-63h-387v-136c63 22 133 31 198 31c104 0 215 -24 215 -156c0 -106 -115 -165 -283 -165z
M1438 44c-153 0 -270 37 -270 139c0 81 88 103 151 110c-57 10 -137 40 -137 121c0 86 95 131 246 131c137 0 246 -42 246 -131c0 -81 -80 -111 -137 -121c63 -7 151 -29 151 -110c0 -87 -103 -139 -250 -139zM1428 326c114 0 169 20 169 75c0 46 -66 80 -169 80
c-104 0 -169 -34 -169 -80c0 -55 56 -75 169 -75zM1429 109c107 0 182 28 182 78c0 51 -58 75 -183 75c-124 0 -183 -24 -183 -75c0 -50 76 -78 184 -78z" />
    <glyph glyph-name="seveneighths" unicode="&#x215e;" horiz-adv-x="1618" 
d="M314 -22l688 744h104l-688 -744h-104zM142 158l325 415h-436v63h530v-30l-326 -448h-93zM1305 44c-153 0 -270 37 -270 139c0 81 88 103 151 110c-57 10 -137 40 -137 121c0 86 95 131 246 131c137 0 246 -42 246 -131c0 -81 -80 -111 -137 -121c63 -7 151 -29 151 -110
c0 -87 -103 -139 -250 -139zM1295 326c114 0 169 20 169 75c0 46 -66 80 -169 80c-104 0 -169 -34 -169 -80c0 -55 56 -75 169 -75zM1296 109c107 0 182 28 182 78c0 51 -58 75 -183 75c-124 0 -183 -24 -183 -75c0 -50 76 -78 184 -78z" />
    <glyph glyph-name="asterisk" unicode="*" horiz-adv-x="615" 
d="M248 194l33 195l-128 -158l-83 75l174 117l-214 -30v108l214 -30l-174 117l83 76l128 -159l-33 195h118l-32 -195l128 159l83 -76l-175 -117l215 30v-108l-215 30l175 -117l-83 -75l-128 158l32 -195h-118z" />
    <glyph glyph-name="backslash" unicode="\" horiz-adv-x="1018" 
d="M862 0l-832 700h126l832 -700h-126z" />
    <glyph glyph-name="periodcentered" unicode="&#xb7;" horiz-adv-x="240" 
d="M120 228c-35 0 -67 29 -67 63c0 35 32 63 67 63s68 -28 68 -63c0 -34 -31 -63 -68 -63z" />
    <glyph glyph-name="bullet" unicode="&#x2022;" horiz-adv-x="529" 
d="M264 54c-91 0 -175 76 -175 165c0 91 84 164 175 164c92 0 178 -73 178 -164c0 -89 -81 -165 -178 -165z" />
    <glyph glyph-name="colon" unicode=":" horiz-adv-x="305" 
d="M120 288c-35 0 -67 29 -67 63c0 35 32 63 67 63s68 -28 68 -63c0 -34 -31 -63 -68 -63zM120 -18c-35 0 -67 29 -67 63c0 35 32 63 67 63s68 -28 68 -63c0 -34 -31 -63 -68 -63z" />
    <glyph glyph-name="comma" unicode="," horiz-adv-x="226" 
d="M30 -169l63 270h103l-113 -270h-53z" />
    <glyph glyph-name="ellipsis" unicode="&#x2026;" horiz-adv-x="905" 
d="M120 -18c-35 0 -67 29 -67 63c0 35 32 63 67 63s68 -28 68 -63c0 -34 -31 -63 -68 -63zM420 -18c-35 0 -67 29 -67 63c0 35 32 63 67 63s68 -28 68 -63c0 -34 -31 -63 -68 -63zM720 -18c-35 0 -67 29 -67 63c0 35 32 63 67 63s68 -28 68 -63c0 -34 -31 -63 -68 -63z" />
    <glyph glyph-name="exclam" unicode="!" horiz-adv-x="258" 
d="M72 294l-10 406h135l-10 -406h-115zM130 -18c-35 0 -67 29 -67 63c0 35 32 63 67 63s68 -28 68 -63c0 -34 -31 -63 -68 -63z" />
    <glyph glyph-name="exclamdown" unicode="&#xa1;" horiz-adv-x="260" 
d="M130 525c37 0 68 -29 68 -63c0 -35 -33 -63 -68 -63s-67 28 -67 63c0 34 32 63 67 63zM72 213h115l10 -406h-135z" />
    <glyph glyph-name="numbersign" unicode="#" horiz-adv-x="1009" 
d="M966 418h-151l-33 -153h160l-13 -82h-165l-39 -183h-126l39 183h-317l-39 -183h-126l39 183h-165l13 82h170l33 153h-179l13 82h184l43 200h126l-43 -200h317l43 200h126l-43 -200h146zM656 265l33 153h-317l-33 -153h317z" />
    <glyph glyph-name="period" unicode="." horiz-adv-x="240" 
d="M120 -18c-35 0 -67 29 -67 63c0 35 32 63 67 63s68 -28 68 -63c0 -34 -31 -63 -68 -63z" />
    <glyph glyph-name="question" unicode="?" horiz-adv-x="728" 
d="M234 232c-1 7 -1 12 -1 18c0 181 312 128 312 259c0 96 -55 113 -290 113c-67 0 -170 -10 -245 -21v96c82 11 196 18 280 18c244 0 368 -44 368 -209c0 -221 -351 -136 -351 -274h-73zM270 -18c-35 0 -67 29 -67 63c0 35 32 63 67 63s68 -28 68 -63
c0 -34 -31 -63 -68 -63z" />
    <glyph glyph-name="questiondown" unicode="&#xbf;" horiz-adv-x="742" 
d="M442 525c35 0 67 -29 67 -63c0 -35 -32 -63 -67 -63s-68 28 -68 63c0 34 31 63 68 63zM478 275c1 -7 1 -12 1 -18c0 -181 -312 -128 -312 -259c0 -96 55 -113 290 -113c67 0 170 10 245 21v-96c-82 -11 -196 -18 -280 -18c-244 0 -368 44 -368 209c0 221 351 136 351 274
h73z" />
    <glyph glyph-name="quotedbl" unicode="&#x22;" horiz-adv-x="358" 
d="M47 430l-17 270h114l-33 -270h-64zM231 430l-17 270h114l-33 -270h-64z" />
    <glyph glyph-name="quotesingle" unicode="'" horiz-adv-x="174" 
d="M47 430l-17 270h114l-33 -270h-64z" />
    <glyph glyph-name="semicolon" unicode=";" horiz-adv-x="293" 
d="M142 288c-35 0 -67 29 -67 63c0 35 32 63 67 63s68 -28 68 -63c0 -34 -31 -63 -68 -63zM30 -169l63 270h103l-113 -270h-53z" />
    <glyph glyph-name="slash" unicode="/" horiz-adv-x="1018" 
d="M30 0l832 700h126l-832 -700h-126z" />
    <glyph glyph-name="underscore" unicode="_" horiz-adv-x="1060" 
d="M30 0v83h1000v-83h-1000z" />
    <glyph glyph-name="braceleft" unicode="{" horiz-adv-x="683" 
d="M653 -80c-300 0 -343 65 -343 203c0 127 -94 192 -280 192v68c187 3 242 74 242 185c0 142 39 209 344 209v-61c-167 0 -252 -32 -252 -148c0 -99 11 -189 -146 -218c147 -9 183 -99 183 -227c0 -111 92 -142 252 -142v-61z" />
    <glyph glyph-name="braceright" unicode="}" horiz-adv-x="705" 
d="M52 -80v61c160 0 252 31 252 142c0 128 36 218 183 227c-157 29 -146 119 -146 218c0 116 -85 148 -252 148v61c305 0 344 -67 344 -209c0 -111 55 -182 242 -185v-68c-186 0 -280 -65 -280 -192c0 -138 -43 -203 -343 -203z" />
    <glyph glyph-name="bracketleft" unicode="[" horiz-adv-x="513" 
d="M483 648h-341v-786h341v-52h-453v890h453v-52z" />
    <glyph glyph-name="bracketright" unicode="]" horiz-adv-x="513" 
d="M483 700v-890h-453v52h341v786h-341v52h453z" />
    <glyph glyph-name="parenleft" unicode="(" horiz-adv-x="470" 
d="M420 -137c-234 1 -370 196 -370 487s136 486 370 487v-86c-165 -1 -274 -161 -274 -401s109 -400 274 -401v-86z" />
    <glyph glyph-name="parenright" unicode=")" horiz-adv-x="470" 
d="M50 -137v86c163 1 274 166 274 401c0 236 -111 400 -274 401v86c234 -1 370 -196 370 -487s-136 -486 -370 -487z" />
    <glyph glyph-name="emdash" unicode="&#x2014;" horiz-adv-x="1060" 
d="M30 289v83h1000v-83h-1000z" />
    <glyph glyph-name="endash" unicode="&#x2013;" horiz-adv-x="560" 
d="M30 289v83h500v-83h-500z" />
    <glyph glyph-name="hyphen" unicode="-" horiz-adv-x="460" 
d="M30 289v83h400v-83h-400z" />
    <glyph glyph-name="guillemotleft" unicode="&#xab;" horiz-adv-x="840" 
d="M259 500h150l-214 -250l214 -250h-150l-206 250zM788 500l-214 -250l214 -250h-150l-206 250l206 250h150z" />
    <glyph glyph-name="guillemotright" unicode="&#xbb;" horiz-adv-x="885" 
d="M53 500h150l206 -250l-206 -250h-150l214 250zM582 500l206 -250l-206 -250h-150l214 250l-214 250h150z" />
    <glyph glyph-name="guilsinglleft" unicode="&#x2039;" horiz-adv-x="416" 
d="M386 500l-214 -250l214 -250h-150l-206 250l206 250h150z" />
    <glyph glyph-name="guilsinglright" unicode="&#x203a;" horiz-adv-x="416" 
d="M180 500l206 -250l-206 -250h-150l214 250l-214 250h150z" />
    <glyph glyph-name="quotedblbase" unicode="&#x201e;" horiz-adv-x="293" 
d="M93 101h103l-113 -270h-53z" />
    <glyph glyph-name="quotedblleft" unicode="&#x201c;" horiz-adv-x="515" 
d="M263 700l-63 -270h-103l113 270h53zM485 700l-63 -270h-103l113 270h53z" />
    <glyph glyph-name="quotedblright" unicode="&#x201d;" horiz-adv-x="515" 
d="M30 430l63 270h103l-113 -270h-53zM252 430l63 270h103l-113 -270h-53z" />
    <glyph glyph-name="quoteleft" unicode="&#x2018;" horiz-adv-x="293" 
d="M263 700l-63 -270h-103l113 270h53z" />
    <glyph glyph-name="quoteright" unicode="&#x2019;" horiz-adv-x="293" 
d="M30 430l63 270h103l-113 -270h-53z" />
    <glyph glyph-name="quotesinglbase" unicode="&#x201a;" horiz-adv-x="293" 
d="M30 -169l63 270h103l-113 -270h-53z" />
    <glyph glyph-name="space" unicode=" " horiz-adv-x="300" 
 />
    <glyph glyph-name="cent" unicode="&#xa2;" horiz-adv-x="589" 
d="M376 523c-152 0 -227 -45 -227 -183c0 -137 76 -183 230 -183c73 0 131 16 197 58v-87c-66 -29 -109 -47 -176 -52v-106h-157v117c-124 34 -207 126 -207 253c0 128 79 221 207 253v107h157v-96c63 -6 112 -23 176 -52v-91c-78 44 -138 62 -200 62z" />
    <glyph glyph-name="currency" unicode="&#xa4;" horiz-adv-x="720" 
d="M140 37l-78 78l78 79c-30 36 -46 83 -46 136c0 56 18 104 51 141l-83 84l78 79l101 -101c34 11 74 17 118 17c47 0 87 -6 121 -16l100 100l79 -79l-82 -82c32 -37 47 -86 47 -143c0 -54 -14 -101 -42 -138l77 -77l-79 -78l-92 92c-36 -13 -79 -19 -129 -19
c-47 0 -89 7 -125 20zM359 169c111 0 186 65 186 161s-75 161 -186 161s-186 -65 -186 -161s75 -161 186 -161z" />
    <glyph glyph-name="dollar" unicode="$" horiz-adv-x="863" 
d="M818 201c0 -126 -123 -198 -308 -214v-97h-157v98c-192 18 -310 108 -307 233h114c-1 -89 108 -144 261 -144c184 1 284 39 284 119c0 206 -646 7 -646 305c0 126 118 198 294 212v122h157v-124c177 -21 289 -107 291 -232h-115c1 90 -108 144 -260 144
c-164 0 -252 -39 -252 -109c0 -178 644 8 644 -313z" />
    <glyph glyph-name="Euro" unicode="&#x20ac;" horiz-adv-x="1017" 
d="M546 77c180 0 303 87 308 228h114c0 -193 -169 -321 -422 -321c-203 0 -352 94 -403 245h-135v102h116v19c0 7 0 15 1 22h-117v102h136c52 149 200 242 402 242c253 0 422 -128 422 -321h-114c-6 142 -129 228 -308 228c-135 0 -237 -55 -283 -149h375v-102h-401
c-1 -7 -1 -15 -1 -22c0 -6 0 -13 1 -19h401v-102h-376c45 -96 148 -152 284 -152z" />
    <glyph glyph-name="sterling" unicode="&#xa3;" horiz-adv-x="902" 
d="M85 0v94c86 37 113 82 113 135h-148v102h127l-12 41h-115v102h94c-1 11 -1 21 -1 32c0 143 106 209 359 209c121 0 292 -16 350 -35v-97c-41 16 -228 39 -329 39c-196 0 -260 -33 -267 -148h514v-102h-498l11 -41h487v-102h-473c-2 -51 -21 -99 -74 -135h622v-94h-760z
" />
    <glyph glyph-name="yen" unicode="&#xa5;" horiz-adv-x="828" 
d="M843 700l-251 -336h197v-102h-273l-26 -35v-6h299v-102h-299v-119h-112v119h-299v102h299v5l-27 36h-272v102h196l-250 336h137l248 -336h48l248 336h137z" />
    <glyph glyph-name="dollar.001" horiz-adv-x="863" 
d="M333 -110v100c-122 13 -225 47 -271 69v106c66 -35 229 -87 351 -87c216 0 310 29 310 100c0 203 -687 62 -687 327c0 127 134 189 297 206v124h157v-121c102 -5 208 -19 285 -53v-103c-78 39 -236 64 -336 64c-205 0 -291 -29 -291 -102c0 -175 687 -54 687 -315
c0 -154 -176 -208 -345 -218v-97h-157z" />
    <glyph glyph-name="Euro.001" horiz-adv-x="927" 
d="M602 -16c-243 0 -399 94 -452 244h-120v103h100v19c0 7 0 14 1 21h-101v103h121c53 149 209 242 451 242c118 -1 203 -14 295 -54v-103c-87 41 -195 64 -295 64c-155 0 -274 -55 -329 -149h467v-103h-497l-1 -21c0 -6 0 -13 1 -19h497v-103h-468
c54 -96 174 -151 330 -151c106 0 214 23 295 64v-103c-92 -40 -177 -53 -295 -54z" />
    <glyph glyph-name="plus" unicode="+" horiz-adv-x="580" 
d="M249 71v218h-219v83h218v219h83v-219h219v-83h-218v-218h-83z" />
    <glyph glyph-name="minus" unicode="&#x2212;" horiz-adv-x="580" 
d="M30 289v83h520v-83h-520z" />
    <glyph glyph-name="multiply" unicode="&#xd7;" horiz-adv-x="600" 
d="M135 118l-57 59l153 154l-154 155l59 57l154 -154l155 156l57 -59l-154 -155l154 -154l-57 -59l-155 154z" />
    <glyph glyph-name="divide" unicode="&#xf7;" horiz-adv-x="600" 
d="M302 441c-35 0 -67 29 -67 63c0 35 32 63 67 63s68 -28 68 -63c0 -34 -31 -63 -68 -63zM41 242v83h520v-83h-520zM302 -18c-35 0 -67 29 -67 63c0 35 32 63 67 63s68 -28 68 -63c0 -34 -31 -63 -68 -63z" />
    <glyph glyph-name="equal" unicode="=" horiz-adv-x="580" 
d="M30 412v83h520v-83h-520zM30 159v83h520v-83h-520z" />
    <glyph glyph-name="notequal" unicode="&#x2260;" horiz-adv-x="580" 
d="M79 20l77 139h-126v83h173l94 170h-267v83h313l70 125h81l-70 -125h126v-83h-172l-94 -170h266v-83h-313l-77 -139h-81z" />
    <glyph glyph-name="greater" unicode="&#x3e;" horiz-adv-x="416" 
d="M30 0l214 250l-214 250h150l206 -250l-206 -250h-150z" />
    <glyph glyph-name="less" unicode="&#x3c;" horiz-adv-x="461" 
d="M236 0l-206 250l206 250h150l-214 -250l214 -250h-150z" />
    <glyph glyph-name="greaterequal" unicode="&#x2265;" horiz-adv-x="600" 
d="M123 204l259 141l-259 141h201l249 -141l-249 -141h-201zM75 0v43h475v-43h-475z" />
    <glyph glyph-name="lessequal" unicode="&#x2264;" horiz-adv-x="600" 
d="M324 204l-249 141l249 141h201l-259 -141l259 -141h-201zM98 0v43h475v-43h-475z" />
    <glyph glyph-name="plusminus" unicode="&#xb1;" horiz-adv-x="600" 
d="M248 196v153h-153v85h153v152h85v-152h152v-85h-152v-153h-85zM30 0v43h520v-43h-520z" />
    <glyph glyph-name="approxequal" unicode="&#x2248;" horiz-adv-x="441" 
d="M288 310c-72 0 -94 72 -135 72c-36 0 -61 -23 -62 -71h-61c1 78 52 130 123 130c64 0 86 -72 135 -72c37 0 62 22 63 71h60c-1 -79 -52 -130 -123 -130zM288 140c-72 0 -94 72 -135 72c-36 0 -61 -23 -62 -71h-61c1 78 52 130 123 130c64 0 86 -72 135 -72
c37 0 62 22 63 71h60c-1 -79 -52 -130 -123 -130z" />
    <glyph glyph-name="asciitilde" unicode="~" horiz-adv-x="441" 
d="M288 310c-72 0 -94 72 -135 72c-36 0 -61 -23 -62 -71h-61c1 78 52 130 123 130c64 0 86 -72 135 -72c37 0 62 22 63 71h60c-1 -79 -52 -130 -123 -130z" />
    <glyph glyph-name="logicalnot" unicode="&#xac;" horiz-adv-x="670" 
d="M557 76l-1 258h-526v83h610v-341h-83z" />
    <glyph glyph-name="emptyset" unicode="&#x2205;" horiz-adv-x="702" 
d="M736 493l-114 -96c28 -41 43 -91 43 -147c0 -160 -123 -266 -310 -266c-68 0 -128 14 -176 40l-132 -111l-76 80l123 104c-31 41 -48 93 -48 153c0 160 123 266 309 266c72 0 135 -16 184 -44l116 97zM148 250c0 -33 8 -64 22 -89l295 248c-31 16 -68 24 -110 24
c-124 0 -207 -74 -207 -183zM563 250c0 30 -6 58 -18 82l-291 -245c29 -13 63 -20 101 -20c125 0 208 74 208 183z" />
    <glyph glyph-name="infinity" unicode="&#x221e;" horiz-adv-x="988" 
d="M278 77c-151 0 -248 110 -248 228c0 122 103 236 250 236c129 0 202 -66 214 -167c12 105 90 167 214 167c147 0 250 -114 250 -236c0 -118 -97 -228 -248 -228c-131 0 -204 58 -216 157c-12 -99 -85 -157 -216 -157zM291 178c84 10 126 61 126 128
c0 72 -49 124 -138 124c-80 0 -133 -55 -133 -124c0 -74 59 -134 145 -128zM697 178c86 -6 145 54 145 128c0 69 -53 124 -133 124c-89 0 -138 -52 -138 -124c0 -67 42 -118 126 -128z" />
    <glyph glyph-name="integral" unicode="&#x222b;" horiz-adv-x="667" 
d="M10 -140l13 58c84 0 144 38 155 84l138 587c19 79 74 142 341 142l-13 -58c-83 0 -143 -37 -154 -84l-138 -587c-19 -78 -74 -142 -342 -142z" />
    <glyph glyph-name="product" unicode="&#x220f;" horiz-adv-x="790" 
d="M109 -170v787h-79v83h730v-83h-79v-787h-112v787h-348v-787h-112z" />
    <glyph glyph-name="summation" unicode="&#x2211;" horiz-adv-x="790" 
d="M30 0v83l299 257l-299 277v83h730v-83h-548l299 -277l-299 -257h548v-83h-730z" />
    <glyph glyph-name="radical" unicode="&#x221a;" horiz-adv-x="1109" 
d="M269 0l-264 501h129l257 -486l360 685h328v-83h-243l-325 -617h-242z" />
    <glyph glyph-name="partialdiff" unicode="&#x2202;" horiz-adv-x="836" 
d="M396 -12c-233 0 -366 93 -366 234c0 136 98 238 319 238c152 0 264 -83 321 -148c17 230 -101 369 -331 389l4 54c260 0 441 -161 441 -393c0 -255 -143 -374 -388 -374zM405 70c146 0 223 48 253 160c-46 95 -165 175 -284 175c-138 0 -231 -67 -231 -168
c0 -99 104 -167 262 -167z" />
    <glyph glyph-name="percent" unicode="%" horiz-adv-x="1039" 
d="M259 460c-112 0 -209 50 -209 125s97 125 209 125c124 0 209 -50 209 -125s-85 -125 -209 -125zM110 0l711 700h118l-710 -700h-119zM259 500c72 0 120 33 120 83c0 52 -48 88 -120 88c-71 0 -119 -35 -119 -86s48 -85 119 -85zM781 -11c-112 0 -209 50 -209 125
s97 125 209 125c124 0 209 -50 209 -125s-85 -125 -209 -125zM781 28c73 0 120 34 120 84c0 52 -48 87 -120 87c-71 0 -119 -34 -119 -85s48 -86 119 -86z" />
    <glyph glyph-name="perthousand" unicode="&#x2030;" horiz-adv-x="1519" 
d="M259 460c-112 0 -209 50 -209 125s97 125 209 125c124 0 209 -50 209 -125s-85 -125 -209 -125zM110 0l711 700h118l-710 -700h-119zM259 500c72 0 120 33 120 83c0 52 -48 88 -120 88c-71 0 -119 -35 -119 -86s48 -85 119 -85zM781 -11c-112 0 -209 50 -209 125
s97 125 209 125c124 0 209 -50 209 -125s-85 -125 -209 -125zM1260 -11c-112 0 -209 50 -209 125s97 125 209 125c124 0 209 -50 209 -125s-85 -125 -209 -125zM781 28c73 0 120 34 120 84c0 52 -48 87 -120 87c-71 0 -119 -34 -119 -85s48 -86 119 -86zM1260 28
c72 0 120 34 120 84c0 52 -48 87 -120 87c-71 0 -119 -34 -119 -85s48 -86 119 -86z" />
    <glyph glyph-name="arrowup" unicode="&#x2191;" horiz-adv-x="561" 
d="M228 -58v600l-198 -168l1 132l250 206l250 -206v-132l-198 169v-601h-105z" />
    <glyph glyph-name="arrowright" unicode="&#x2192;" horiz-adv-x="830" 
d="M30 383h600l-168 198l132 -1l206 -250l-206 -250h-132l169 198h-601v105z" />
    <glyph glyph-name="arrowdown" unicode="&#x2193;" horiz-adv-x="561" 
d="M333 699v-600l198 168l-1 -132l-250 -206l-250 206v132l198 -169v601h105z" />
    <glyph glyph-name="arrowleft" unicode="&#x2190;" horiz-adv-x="830" 
d="M800 278h-600l168 -198l-132 1l-206 250l206 250h132l-169 -198h601v-105z" />
    <glyph glyph-name="lozenge" unicode="&#x25ca;" horiz-adv-x="726" 
d="M236 0l-206 250l206 250h254l206 -250l-206 -250h-254zM363 27l191 223l-191 223l-191 -223z" />
    <glyph glyph-name="at" unicode="@" horiz-adv-x="1073" 
d="M536 725c301 0 487 -168 487 -373c0 -97 -48 -187 -164 -230h-175l25 147h-6c-25 -112 -125 -160 -251 -160c-61 0 -153 13 -153 108c0 138 297 139 386 149c-1 87 -41 113 -141 113c-64 0 -138 -23 -193 -47v70c69 26 154 45 226 45c144 0 200 -78 200 -193v-216
c108 59 135 118 135 214c0 166 -152 277 -376 277c-223 0 -374 -126 -374 -307s151 -306 374 -306c65 0 122 8 171 25v-102c-52 -13 -109 -20 -171 -20c-300 0 -486 161 -486 403s186 403 486 403zM484 176c100 0 196 46 198 133c-95 -8 -286 -8 -286 -81
c0 -33 32 -52 88 -52z" />
    <glyph glyph-name="ampersand" unicode="&#x26;" horiz-adv-x="879" 
d="M365 -12c-119 0 -325 32 -325 221c0 113 113 199 271 198l-208 211v82h625v-90h-495l422 -422c61 53 110 120 142 190l61 -75c-39 -72 -87 -132 -140 -179l123 -124h-130l-68 69c-89 -55 -187 -81 -278 -81zM372 79c76 0 145 21 207 55l-206 209
c-105 25 -221 -18 -221 -111c0 -109 79 -153 220 -153z" />
    <glyph glyph-name="paragraph" unicode="&#xb6;" horiz-adv-x="939" 
d="M394 -180v453h-129c-135 0 -235 71 -235 213c0 117 90 214 235 214h245v-880h-116zM797 -180v880h112v-880h-112z" />
    <glyph glyph-name="section" unicode="&#xa7;" horiz-adv-x="644" 
d="M320 0c-77 0 -185 15 -268 39v79c84 -32 135 -43 268 -43c145 0 182 8 182 42c0 115 -472 32 -472 229c0 43 19 68 65 84c-34 22 -65 53 -65 96c0 110 118 164 294 164c60 0 163 -11 250 -28v-79c-71 15 -175 26 -250 26c-145 0 -182 -8 -182 -55c0 -80 472 -6 472 -221
c0 -44 -26 -72 -56 -92c29 -22 56 -51 56 -89c0 -103 -118 -152 -294 -152zM365 257c88 0 127 24 131 76c6 61 -44 91 -171 103c-18 1 -33 2 -48 2c-84 0 -125 -24 -130 -78c-5 -60 44 -90 167 -101c19 -1 36 -2 51 -2z" />
    <glyph glyph-name="copyright" unicode="&#xa9;" horiz-adv-x="965" 
d="M482 -16c-273 0 -432 146 -432 366s164 366 432 366c274 0 433 -143 433 -366c0 -220 -159 -366 -433 -366zM482 11c273 0 405 144 405 341c0 196 -135 337 -405 337c-262 0 -406 -144 -406 -341c0 -196 147 -337 406 -337zM487 85c-181 0 -301 106 -301 266
s120 266 301 266c180 0 300 -95 300 -237h-114c-7 97 -81 162 -186 162c-113 0 -189 -76 -189 -191s76 -191 189 -191c108 0 183 68 188 170h113c0 -147 -120 -245 -301 -245z" />
    <glyph glyph-name="registered" unicode="&#xae;" horiz-adv-x="965" 
d="M482 -16c-273 0 -432 146 -432 366s164 366 432 366c274 0 433 -143 433 -366c0 -220 -159 -366 -433 -366zM482 11c273 0 405 144 405 341c0 196 -135 337 -405 337c-262 0 -406 -144 -406 -341c0 -196 147 -337 406 -337zM260 133v435h337c90 0 139 -49 139 -115
c0 -70 -56 -110 -139 -110h-46c100 -6 140 -68 217 -210h-76c-80 145 -102 189 -185 189h-179l1 -189h-69zM328 382h247c66 0 92 24 92 60c0 47 -28 67 -92 67h-247v-127z" />
    <glyph glyph-name="trademark" unicode="&#x2122;" horiz-adv-x="1308" 
d="M314 222v415h-242v63h562v-63h-243v-415h-77zM677 222v478h95l206 -361l207 361h95v-478h-77v372l-218 -372h-13l-218 369v-369h-77z" />
    <glyph glyph-name="degree" unicode="&#xb0;" horiz-adv-x="518" 
d="M259 460c-112 0 -209 50 -209 125s97 125 209 125c124 0 209 -50 209 -125s-85 -125 -209 -125zM259 500c72 0 120 33 120 83c0 52 -48 88 -120 88c-71 0 -119 -35 -119 -86s48 -85 119 -85z" />
    <glyph glyph-name="bar" unicode="|" horiz-adv-x="232" 
d="M60 -170v890h112v-890h-112z" />
    <glyph glyph-name="brokenbar" unicode="&#xa6;" horiz-adv-x="232" 
d="M60 313v407h112v-407h-112zM60 -170v418h112v-418h-112z" />
    <glyph glyph-name="dagger" unicode="&#x2020;" horiz-adv-x="580" 
d="M234 -170v586h-204v83h204v221h112v-221h204v-83h-204v-586h-112z" />
    <glyph glyph-name="daggerdbl" unicode="&#x2021;" horiz-adv-x="600" 
d="M234 -170v170h-204v83h204v333h-204v83h204v221h112v-221h204v-83h-204v-333h204v-83h-204v-170h-112z" />
    <glyph glyph-name="asciicircum" unicode="^" horiz-adv-x="560" 
d="M30 317v118l250 274l250 -274v-118l-250 242z" />
    <glyph glyph-name="uni0308" unicode="&#x308;" 
d="M-439 538c-58 0 -99 34 -99 85s41 85 99 85c64 0 99 -34 99 -85s-35 -85 -99 -85zM-149 538c-58 0 -99 34 -99 85s41 85 99 85c64 0 99 -34 99 -85s-35 -85 -99 -85z" />
    <glyph glyph-name="uni0307" unicode="&#x307;" 
d="M-62 538c-58 0 -99 34 -99 85s41 85 99 85c64 0 99 -34 99 -85s-35 -85 -99 -85z" />
    <glyph glyph-name="gravecomb" unicode="&#x300;" 
d="M-50 544l-287 164v102l287 -186v-80z" />
    <glyph glyph-name="acutecomb" unicode="&#x301;" 
d="M-337 544v80l287 186v-102z" />
    <glyph glyph-name="uni030B" unicode="&#x30b;" 
d="M-587 544v80l287 186v-102zM-337 544v80l287 186v-102z" />
    <glyph glyph-name="uni0302" unicode="&#x302;" 
d="M-337 821l287 -186v-80l-287 164l-287 -164v80z" />
    <glyph glyph-name="uni030C" unicode="&#x30c;" 
d="M-337 657l287 164v-80l-287 -186l-287 186v80z" />
    <glyph glyph-name="uni0306" unicode="&#x306;" 
d="M-263 551c-122 0 -212 59 -213 149h105c2 -55 46 -81 108 -81c64 0 106 26 110 81h103c-1 -90 -77 -149 -213 -149z" />
    <glyph glyph-name="uni030A" unicode="&#x30a;" 
d="M-303 538c-136 0 -253 41 -253 103s117 103 253 103c150 0 253 -41 253 -103s-103 -103 -253 -103zM-303 589c51 0 91 18 91 51c0 36 -37 53 -91 53c-51 0 -89 -17 -89 -52s38 -52 89 -52z" />
    <glyph glyph-name="tildecomb" unicode="&#x303;" 
d="M-173 572c-72 0 -94 72 -135 72c-36 0 -61 -23 -62 -71h-61c1 78 52 130 123 130c64 0 86 -72 135 -72c37 0 62 22 63 71h60c-1 -79 -52 -130 -123 -130z" />
    <glyph glyph-name="uni0304" unicode="&#x304;" 
d="M-582 646v54h532v-54h-532z" />
    <glyph glyph-name="uni0312" unicode="&#x312;" 
d="M-50 798l-63 -270h-103l113 270h53z" />
    <glyph glyph-name="uni0326" unicode="&#x326;" 
d="M-238 -341l63 270h103l-113 -270h-53z" />
    <glyph glyph-name="uni0327" unicode="&#x327;" 
d="M-376 -69c199 -9 326 -47 326 -108c0 -62 -170 -109 -426 -110v55c228 1 300 23 300 55c0 34 -72 55 -300 58v53l58 101h95z" />
    <glyph glyph-name="uni0328" unicode="&#x328;" 
d="M-185 -230c-110 0 -203 51 -203 131c0 37 20 82 68 130c22 22 38 30 48 30c11 0 15 -10 15 -21c0 -10 -3 -20 -11 -28c-31 -28 -46 -56 -46 -81c0 -54 64 -95 158 -95c25 0 53 3 84 10l-3 -60c-36 -11 -74 -16 -110 -16z" />
    <glyph glyph-name="uni0335" unicode="&#x335;" 
d="M-550 289v83h500v-83h-500z" />
    <glyph glyph-name="uni0336" unicode="&#x336;" 
d="M-1050 289v83h1000v-83h-1000z" />
    <glyph glyph-name="uni0337" unicode="&#x337;" 
d="M-770 0l594 500h126l-594 -500h-126z" />
    <glyph glyph-name="uni0338" unicode="&#x338;" 
d="M-1008 0l832 700h126l-832 -700h-126z" />
    <glyph glyph-name="acute" unicode="&#xb4;" horiz-adv-x="387" 
d="M50 544v80l287 186v-102z" />
    <glyph glyph-name="breve" unicode="&#x2d8;" horiz-adv-x="526" 
d="M263 551c-122 0 -212 59 -213 149h105c2 -55 46 -81 108 -81c64 0 106 26 110 81h103c-1 -90 -77 -149 -213 -149z" />
    <glyph glyph-name="caron" unicode="&#x2c7;" horiz-adv-x="674" 
d="M337 657l287 164v-80l-287 -186l-287 186v80z" />
    <glyph glyph-name="cedilla" unicode="&#xb8;" horiz-adv-x="526" 
d="M150 -69c199 -9 326 -47 326 -108c0 -62 -170 -109 -426 -110v55c228 1 300 23 300 55c0 34 -72 55 -300 58v53l58 101h95z" />
    <glyph glyph-name="circumflex" unicode="&#x2c6;" horiz-adv-x="674" 
d="M337 821l287 -186v-80l-287 164l-287 -164v80z" />
    <glyph glyph-name="dieresis" unicode="&#xa8;" horiz-adv-x="588" 
d="M149 538c-58 0 -99 34 -99 85s41 85 99 85c64 0 99 -34 99 -85s-35 -85 -99 -85zM439 538c-58 0 -99 34 -99 85s41 85 99 85c64 0 99 -34 99 -85s-35 -85 -99 -85z" />
    <glyph glyph-name="dotaccent" unicode="&#x2d9;" horiz-adv-x="298" 
d="M149 538c-58 0 -99 34 -99 85s41 85 99 85c64 0 99 -34 99 -85s-35 -85 -99 -85z" />
    <glyph glyph-name="grave" unicode="`" horiz-adv-x="387" 
d="M337 544l-287 164v102l287 -186v-80z" />
    <glyph glyph-name="hungarumlaut" unicode="&#x2dd;" horiz-adv-x="637" 
d="M50 544v80l287 186v-102zM300 544v80l287 186v-102z" />
    <glyph glyph-name="macron" unicode="&#xaf;" horiz-adv-x="632" 
d="M50 646v54h532v-54h-532z" />
    <glyph glyph-name="ogonek" unicode="&#x2db;" horiz-adv-x="445" 
d="M260 -230c-110 0 -203 51 -203 131c0 37 20 82 68 130c22 22 38 30 48 30c11 0 15 -10 15 -21c0 -10 -3 -20 -11 -28c-31 -28 -46 -56 -46 -81c0 -54 64 -95 158 -95c25 0 53 3 84 10l-3 -60c-36 -11 -74 -16 -110 -16z" />
    <glyph glyph-name="ring" unicode="&#x2da;" horiz-adv-x="606" 
d="M303 538c-136 0 -253 41 -253 103s117 103 253 103c150 0 253 -41 253 -103s-103 -103 -253 -103zM303 589c51 0 91 18 91 51c0 36 -37 53 -91 53c-51 0 -89 -17 -89 -52s38 -52 89 -52z" />
    <glyph glyph-name="tilde" unicode="&#x2dc;" horiz-adv-x="481" 
d="M308 572c-72 0 -94 72 -135 72c-36 0 -61 -23 -62 -71h-61c1 78 52 130 123 130c64 0 86 -72 135 -72c37 0 62 22 63 71h60c-1 -79 -52 -130 -123 -130z" />
    <glyph glyph-name="brevecombcy" 
d="M-266 551c-122 0 -212 59 -213 149h105c2 -55 46 -81 108 -81c64 0 106 26 110 81h103c-1 -90 -77 -149 -213 -149z" />
    </font>
</defs>
</svg>
